M48
; DRILL file KiCad 10.0.4 date 2026-07-25T22:43:44
; FORMAT={-:-/ absolute / metric / decimal}
; #@! TF.CreationDate,2026-07-25T22:43:44-04:00
; #@! TF.GenerationSoftware,Kicad,Pcbnew,10.0.4
; #@! TF.FileFunction,Plated,1,4,PTH
FMAT,2
METRIC
; #@! TA.AperFunction,Plated,PTH,ViaDrill
T1C0.300
; #@! TA.AperFunction,Plated,PTH,ComponentDrill
T2C0.500
; #@! TA.AperFunction,Plated,PTH,ComponentDrill
T3C1.000
; #@! TA.AperFunction,Plated,PTH,ComponentDrill
T4C1.100
; #@! TA.AperFunction,Plated,PTH,ComponentDrill
T5C1.300
%
G90
G05
T1
X129.111Y-87.5
X129.35Y-101.5
X129.845Y-87.852
X132.0Y-78.5
X135.35Y-91.0
X135.35Y-98.5
X135.5Y-85.0
X136.85Y-100.5
X137.0Y-94.5
X137.5Y-72.0
X138.35Y-92.5
X138.35Y-94.175
X139.0Y-68.5
X139.12Y-94.27
X140.0Y-76.5
X141.439Y-96.565
X141.5Y-92.0
X142.0Y-75.0
X142.0Y-92.75
X143.25Y-86.75
X144.0Y-67.5
X144.5Y-72.0
X145.25Y-73.5
X145.25Y-82.25
X145.5Y-84.0
X146.0Y-76.5
X146.0Y-79.0
X149.0Y-71.5
X149.0Y-84.25
X149.5Y-67.5
X149.75Y-84.25
X153.75Y-76.0
X156.349Y-73.26
X157.246Y-75.352
X157.25Y-100.25
X157.285Y-70.999
X157.5Y-98.75
X158.493Y-75.365
X158.5Y-71.0
X159.805Y-70.96
X159.805Y-75.339
X160.0Y-98.75
X160.663Y-73.221
X161.0Y-84.5
X162.0Y-100.25
X163.5Y-101.5
X165.0Y-80.5
X166.25Y-84.0
X167.5Y-81.0
X170.0Y-76.5
X170.25Y-70.0
X170.25Y-83.75
X170.5Y-67.5
X170.75Y-68.75
X172.02Y-78.52
X172.25Y-94.0
X172.5Y-83.0
X172.75Y-105.0
X173.0Y-107.75
X173.0Y-112.5
X173.25Y-68.0
X175.25Y-67.75
T3
X125.3Y-82.0
X127.84Y-82.0
X130.38Y-82.0
X132.92Y-82.0
X135.46Y-82.0
X138.0Y-82.0
X140.54Y-82.0
X143.08Y-82.0
X161.8Y-89.75
X164.34Y-89.75
X166.88Y-89.75
X169.42Y-89.75
X171.96Y-89.75
X174.5Y-89.75
X177.04Y-89.75
X177.5Y-70.9
X177.5Y-73.44
X177.5Y-75.98
X177.5Y-78.52
X177.5Y-81.06
X177.5Y-83.6
X180.21Y-96.13
X180.21Y-98.67
X180.21Y-101.21
X180.21Y-103.75
X180.21Y-106.29
X180.21Y-108.83
X180.21Y-111.37
X182.75Y-96.13
X182.75Y-98.67
X182.75Y-101.21
X182.75Y-103.75
X182.75Y-106.29
X182.75Y-108.83
X182.75Y-111.37
T4
X127.5Y-106.25
X127.5Y-110.75
X134.0Y-106.25
X134.0Y-110.75
X142.25Y-105.75
X142.25Y-110.25
X148.75Y-105.75
X148.75Y-110.25
X159.0Y-106.0
X159.0Y-110.5
X165.5Y-106.0
X165.5Y-110.5
T5
X128.25Y-72.032
X133.25Y-72.032
X151.25Y-92.718
X156.25Y-92.718
T2
G00X125.31Y-89.51
M15
G01X124.71Y-89.51
M16
G05
G00X125.31Y-98.49
M15
G01X124.71Y-98.49
M16
G05
G00X131.26Y-89.87
M15
G01X130.66Y-89.87
M16
G05
G00X131.26Y-98.13
M15
G01X130.66Y-98.13
M16
G05
M30
