%TF.GenerationSoftware,KiCad,Pcbnew,10.0.4*%
%TF.CreationDate,2026-07-25T22:44:44-04:00*%
%TF.ProjectId,FirstESPproject,46697273-7445-4535-9070-726f6a656374,rev?*%
%TF.SameCoordinates,Original*%
%TF.FileFunction,Soldermask,Top*%
%TF.FilePolarity,Negative*%
%FSLAX46Y46*%
G04 Gerber Fmt 4.6, Leading zero omitted, Abs format (unit mm)*
G04 Created by KiCad (PCBNEW 10.0.4) date 2026-07-25 22:44:44*
%MOMM*%
%LPD*%
G01*
G04 APERTURE LIST*
G04 Aperture macros list*
%AMRoundRect*
0 Rectangle with rounded corners*
0 $1 Rounding radius*
0 $2 $3 $4 $5 $6 $7 $8 $9 X,Y pos of 4 corners*
0 Add a 4 corners polygon primitive as box body*
4,1,4,$2,$3,$4,$5,$6,$7,$8,$9,$2,$3,0*
0 Add four circle primitives for the rounded corners*
1,1,$1+$1,$2,$3*
1,1,$1+$1,$4,$5*
1,1,$1+$1,$6,$7*
1,1,$1+$1,$8,$9*
0 Add four rect primitives between the rounded corners*
20,1,$1+$1,$2,$3,$4,$5,0*
20,1,$1+$1,$4,$5,$6,$7,0*
20,1,$1+$1,$6,$7,$8,$9,0*
20,1,$1+$1,$8,$9,$2,$3,0*%
%AMFreePoly0*
4,1,23,0.500000,-0.750000,0.000000,-0.750000,0.000000,-0.745722,-0.065263,-0.745722,-0.191342,-0.711940,-0.304381,-0.646677,-0.396677,-0.554381,-0.461940,-0.441342,-0.495722,-0.315263,-0.495722,-0.250000,-0.500000,-0.250000,-0.500000,0.250000,-0.495722,0.250000,-0.495722,0.315263,-0.461940,0.441342,-0.396677,0.554381,-0.304381,0.646677,-0.191342,0.711940,-0.065263,0.745722,0.000000,0.745722,
0.000000,0.750000,0.500000,0.750000,0.500000,-0.750000,0.500000,-0.750000,$1*%
%AMFreePoly1*
4,1,23,0.000000,0.745722,0.065263,0.745722,0.191342,0.711940,0.304381,0.646677,0.396677,0.554381,0.461940,0.441342,0.495722,0.315263,0.495722,0.250000,0.500000,0.250000,0.500000,-0.250000,0.495722,-0.250000,0.495722,-0.315263,0.461940,-0.441342,0.396677,-0.554381,0.304381,-0.646677,0.191342,-0.711940,0.065263,-0.745722,0.000000,-0.745722,0.000000,-0.750000,-0.500000,-0.750000,
-0.500000,0.750000,0.000000,0.750000,0.000000,0.745722,0.000000,0.745722,$1*%
G04 Aperture macros list end*
%ADD10C,0.010000*%
%ADD11R,1.500000X0.900000*%
%ADD12R,0.800000X0.800000*%
%ADD13RoundRect,0.250000X0.250000X0.475000X-0.250000X0.475000X-0.250000X-0.475000X0.250000X-0.475000X0*%
%ADD14RoundRect,0.225000X-0.250000X0.225000X-0.250000X-0.225000X0.250000X-0.225000X0.250000X0.225000X0*%
%ADD15RoundRect,0.200000X-0.275000X0.200000X-0.275000X-0.200000X0.275000X-0.200000X0.275000X0.200000X0*%
%ADD16RoundRect,0.250000X0.475000X-0.250000X0.475000X0.250000X-0.475000X0.250000X-0.475000X-0.250000X0*%
%ADD17C,0.650000*%
%ADD18O,0.650000X0.950000*%
%ADD19RoundRect,0.075000X-0.275000X0.075000X-0.275000X-0.075000X0.275000X-0.075000X0.275000X0.075000X0*%
%ADD20O,1.400000X0.800000*%
%ADD21RoundRect,0.150000X0.587500X0.150000X-0.587500X0.150000X-0.587500X-0.150000X0.587500X-0.150000X0*%
%ADD22RoundRect,0.200000X0.200000X0.275000X-0.200000X0.275000X-0.200000X-0.275000X0.200000X-0.275000X0*%
%ADD23RoundRect,0.250000X0.300000X0.300000X-0.300000X0.300000X-0.300000X-0.300000X0.300000X-0.300000X0*%
%ADD24R,1.700000X1.700000*%
%ADD25C,1.700000*%
%ADD26RoundRect,0.200000X0.275000X-0.200000X0.275000X0.200000X-0.275000X0.200000X-0.275000X-0.200000X0*%
%ADD27RoundRect,0.250001X1.149999X1.149999X-1.149999X1.149999X-1.149999X-1.149999X1.149999X-1.149999X0*%
%ADD28C,2.800000*%
%ADD29FreePoly0,0.000000*%
%ADD30FreePoly1,0.000000*%
%ADD31RoundRect,0.200000X-0.200000X-0.275000X0.200000X-0.275000X0.200000X0.275000X-0.200000X0.275000X0*%
%ADD32RoundRect,0.250001X-1.149999X-1.149999X1.149999X-1.149999X1.149999X1.149999X-1.149999X1.149999X0*%
%ADD33RoundRect,0.225000X0.250000X-0.225000X0.250000X0.225000X-0.250000X0.225000X-0.250000X-0.225000X0*%
%ADD34C,2.000000*%
%ADD35RoundRect,0.150000X-0.512500X-0.150000X0.512500X-0.150000X0.512500X0.150000X-0.512500X0.150000X0*%
%ADD36RoundRect,0.225000X0.225000X0.375000X-0.225000X0.375000X-0.225000X-0.375000X0.225000X-0.375000X0*%
%ADD37RoundRect,0.250000X-0.325000X-0.650000X0.325000X-0.650000X0.325000X0.650000X-0.325000X0.650000X0*%
%ADD38RoundRect,0.218750X-0.218750X-0.256250X0.218750X-0.256250X0.218750X0.256250X-0.218750X0.256250X0*%
%ADD39RoundRect,0.250000X-0.250000X-0.475000X0.250000X-0.475000X0.250000X0.475000X-0.250000X0.475000X0*%
G04 APERTURE END LIST*
D10*
%TO.C,D4*%
X135700000Y-93950000D02*
X135750000Y-93950000D01*
X135751000Y-93950000D01*
X135753000Y-93950000D01*
X135754000Y-93950000D01*
X135755000Y-93951000D01*
X135756000Y-93951000D01*
X135758000Y-93951000D01*
X135759000Y-93952000D01*
X135760000Y-93952000D01*
X135761000Y-93953000D01*
X135763000Y-93953000D01*
X135764000Y-93954000D01*
X135765000Y-93955000D01*
X135766000Y-93956000D01*
X135767000Y-93956000D01*
X135768000Y-93957000D01*
X135769000Y-93958000D01*
X135769000Y-93959000D01*
X135770000Y-93960000D01*
X135771000Y-93961000D01*
X135772000Y-93962000D01*
X135772000Y-93964000D01*
X135773000Y-93965000D01*
X135773000Y-93966000D01*
X135774000Y-93967000D01*
X135774000Y-93969000D01*
X135774000Y-93970000D01*
X135775000Y-93971000D01*
X135775000Y-93972000D01*
X135775000Y-93974000D01*
X135775000Y-93975000D01*
X135775000Y-94025000D01*
X135775000Y-94026000D01*
X135775000Y-94028000D01*
X135775000Y-94029000D01*
X135774000Y-94030000D01*
X135774000Y-94031000D01*
X135774000Y-94033000D01*
X135773000Y-94034000D01*
X135773000Y-94035000D01*
X135772000Y-94036000D01*
X135772000Y-94037000D01*
X135771000Y-94039000D01*
X135770000Y-94040000D01*
X135769000Y-94041000D01*
X135769000Y-94042000D01*
X135768000Y-94043000D01*
X135767000Y-94044000D01*
X135766000Y-94044000D01*
X135765000Y-94045000D01*
X135764000Y-94046000D01*
X135763000Y-94047000D01*
X135761000Y-94047000D01*
X135760000Y-94048000D01*
X135759000Y-94048000D01*
X135758000Y-94049000D01*
X135756000Y-94049000D01*
X135755000Y-94049000D01*
X135754000Y-94050000D01*
X135753000Y-94050000D01*
X135751000Y-94050000D01*
X135750000Y-94050000D01*
X135700000Y-94050000D01*
X135699000Y-94050000D01*
X135697000Y-94050000D01*
X135696000Y-94050000D01*
X135695000Y-94049000D01*
X135694000Y-94049000D01*
X135692000Y-94049000D01*
X135691000Y-94048000D01*
X135690000Y-94048000D01*
X135689000Y-94047000D01*
X135688000Y-94047000D01*
X135686000Y-94046000D01*
X135685000Y-94045000D01*
X135684000Y-94044000D01*
X135683000Y-94044000D01*
X135682000Y-94043000D01*
X135681000Y-94042000D01*
X135681000Y-94041000D01*
X135680000Y-94040000D01*
X135679000Y-94039000D01*
X135678000Y-94037000D01*
X135678000Y-94036000D01*
X135677000Y-94035000D01*
X135677000Y-94034000D01*
X135676000Y-94033000D01*
X135676000Y-94031000D01*
X135676000Y-94030000D01*
X135675000Y-94029000D01*
X135675000Y-94028000D01*
X135675000Y-94026000D01*
X135675000Y-94025000D01*
X135675000Y-93975000D01*
X135675000Y-93974000D01*
X135675000Y-93972000D01*
X135675000Y-93971000D01*
X135676000Y-93970000D01*
X135676000Y-93969000D01*
X135676000Y-93967000D01*
X135677000Y-93966000D01*
X135677000Y-93965000D01*
X135678000Y-93964000D01*
X135678000Y-93962000D01*
X135679000Y-93961000D01*
X135680000Y-93960000D01*
X135681000Y-93959000D01*
X135681000Y-93958000D01*
X135682000Y-93957000D01*
X135683000Y-93956000D01*
X135684000Y-93956000D01*
X135685000Y-93955000D01*
X135686000Y-93954000D01*
X135688000Y-93953000D01*
X135689000Y-93953000D01*
X135690000Y-93952000D01*
X135691000Y-93952000D01*
X135692000Y-93951000D01*
X135694000Y-93951000D01*
X135695000Y-93951000D01*
X135696000Y-93950000D01*
X135697000Y-93950000D01*
X135699000Y-93950000D01*
X135700000Y-93950000D01*
G36*
X135755000Y-93951000D02*
G01*
X135756000Y-93951000D01*
X135758000Y-93951000D01*
X135759000Y-93952000D01*
X135760000Y-93952000D01*
X135761000Y-93953000D01*
X135763000Y-93953000D01*
X135764000Y-93954000D01*
X135765000Y-93955000D01*
X135766000Y-93956000D01*
X135767000Y-93956000D01*
X135768000Y-93957000D01*
X135769000Y-93958000D01*
X135769000Y-93959000D01*
X135770000Y-93960000D01*
X135771000Y-93961000D01*
X135772000Y-93962000D01*
X135772000Y-93964000D01*
X135773000Y-93965000D01*
X135773000Y-93966000D01*
X135774000Y-93967000D01*
X135774000Y-93969000D01*
X135774000Y-93970000D01*
X135775000Y-93971000D01*
X135775000Y-93972000D01*
X135775000Y-93974000D01*
X135775000Y-93975000D01*
X135775000Y-94025000D01*
X135775000Y-94026000D01*
X135775000Y-94028000D01*
X135775000Y-94029000D01*
X135774000Y-94030000D01*
X135774000Y-94031000D01*
X135774000Y-94033000D01*
X135773000Y-94034000D01*
X135773000Y-94035000D01*
X135772000Y-94036000D01*
X135772000Y-94037000D01*
X135771000Y-94039000D01*
X135770000Y-94040000D01*
X135769000Y-94041000D01*
X135769000Y-94042000D01*
X135768000Y-94043000D01*
X135767000Y-94044000D01*
X135766000Y-94044000D01*
X135765000Y-94045000D01*
X135764000Y-94046000D01*
X135763000Y-94047000D01*
X135761000Y-94047000D01*
X135760000Y-94048000D01*
X135759000Y-94048000D01*
X135758000Y-94049000D01*
X135756000Y-94049000D01*
X135755000Y-94049000D01*
X135754000Y-94050000D01*
X135753000Y-94050000D01*
X135751000Y-94050000D01*
X135750000Y-94050000D01*
X135700000Y-94050000D01*
X135699000Y-94050000D01*
X135697000Y-94050000D01*
X135696000Y-94050000D01*
X135695000Y-94049000D01*
X135694000Y-94049000D01*
X135692000Y-94049000D01*
X135691000Y-94048000D01*
X135690000Y-94048000D01*
X135689000Y-94047000D01*
X135688000Y-94047000D01*
X135686000Y-94046000D01*
X135685000Y-94045000D01*
X135684000Y-94044000D01*
X135683000Y-94044000D01*
X135682000Y-94043000D01*
X135681000Y-94042000D01*
X135681000Y-94041000D01*
X135680000Y-94040000D01*
X135679000Y-94039000D01*
X135678000Y-94037000D01*
X135678000Y-94036000D01*
X135677000Y-94035000D01*
X135677000Y-94034000D01*
X135676000Y-94033000D01*
X135676000Y-94031000D01*
X135676000Y-94030000D01*
X135675000Y-94029000D01*
X135675000Y-94028000D01*
X135675000Y-94026000D01*
X135675000Y-94025000D01*
X135675000Y-93975000D01*
X135675000Y-93974000D01*
X135675000Y-93972000D01*
X135675000Y-93971000D01*
X135676000Y-93970000D01*
X135676000Y-93969000D01*
X135676000Y-93967000D01*
X135677000Y-93966000D01*
X135677000Y-93965000D01*
X135678000Y-93964000D01*
X135678000Y-93962000D01*
X135679000Y-93961000D01*
X135680000Y-93960000D01*
X135681000Y-93959000D01*
X135681000Y-93958000D01*
X135682000Y-93957000D01*
X135683000Y-93956000D01*
X135684000Y-93956000D01*
X135685000Y-93955000D01*
X135686000Y-93954000D01*
X135688000Y-93953000D01*
X135689000Y-93953000D01*
X135690000Y-93952000D01*
X135691000Y-93952000D01*
X135692000Y-93951000D01*
X135694000Y-93951000D01*
X135695000Y-93951000D01*
X135696000Y-93950000D01*
X135697000Y-93950000D01*
X135699000Y-93950000D01*
X135700000Y-93950000D01*
X135750000Y-93950000D01*
X135751000Y-93950000D01*
X135753000Y-93950000D01*
X135754000Y-93950000D01*
X135755000Y-93951000D01*
G37*
X135700000Y-94950000D02*
X135750000Y-94950000D01*
X135751000Y-94950000D01*
X135753000Y-94950000D01*
X135754000Y-94950000D01*
X135755000Y-94951000D01*
X135756000Y-94951000D01*
X135758000Y-94951000D01*
X135759000Y-94952000D01*
X135760000Y-94952000D01*
X135761000Y-94953000D01*
X135763000Y-94953000D01*
X135764000Y-94954000D01*
X135765000Y-94955000D01*
X135766000Y-94956000D01*
X135767000Y-94956000D01*
X135768000Y-94957000D01*
X135769000Y-94958000D01*
X135769000Y-94959000D01*
X135770000Y-94960000D01*
X135771000Y-94961000D01*
X135772000Y-94963000D01*
X135772000Y-94964000D01*
X135773000Y-94965000D01*
X135773000Y-94966000D01*
X135774000Y-94967000D01*
X135774000Y-94969000D01*
X135774000Y-94970000D01*
X135775000Y-94971000D01*
X135775000Y-94972000D01*
X135775000Y-94974000D01*
X135775000Y-94975000D01*
X135775000Y-95025000D01*
X135775000Y-95026000D01*
X135775000Y-95028000D01*
X135775000Y-95029000D01*
X135774000Y-95030000D01*
X135774000Y-95031000D01*
X135774000Y-95033000D01*
X135773000Y-95034000D01*
X135773000Y-95035000D01*
X135772000Y-95036000D01*
X135772000Y-95038000D01*
X135771000Y-95039000D01*
X135770000Y-95040000D01*
X135769000Y-95041000D01*
X135769000Y-95042000D01*
X135768000Y-95043000D01*
X135767000Y-95044000D01*
X135766000Y-95044000D01*
X135765000Y-95045000D01*
X135764000Y-95046000D01*
X135762000Y-95047000D01*
X135761000Y-95047000D01*
X135760000Y-95048000D01*
X135759000Y-95048000D01*
X135758000Y-95049000D01*
X135756000Y-95049000D01*
X135755000Y-95049000D01*
X135754000Y-95050000D01*
X135753000Y-95050000D01*
X135751000Y-95050000D01*
X135750000Y-95050000D01*
X135700000Y-95050000D01*
X135699000Y-95050000D01*
X135697000Y-95050000D01*
X135696000Y-95050000D01*
X135695000Y-95049000D01*
X135694000Y-95049000D01*
X135692000Y-95049000D01*
X135691000Y-95048000D01*
X135690000Y-95048000D01*
X135689000Y-95047000D01*
X135688000Y-95047000D01*
X135686000Y-95046000D01*
X135685000Y-95045000D01*
X135684000Y-95044000D01*
X135683000Y-95044000D01*
X135682000Y-95043000D01*
X135681000Y-95042000D01*
X135681000Y-95041000D01*
X135680000Y-95040000D01*
X135679000Y-95039000D01*
X135678000Y-95038000D01*
X135678000Y-95036000D01*
X135677000Y-95035000D01*
X135677000Y-95034000D01*
X135676000Y-95033000D01*
X135676000Y-95031000D01*
X135676000Y-95030000D01*
X135675000Y-95029000D01*
X135675000Y-95028000D01*
X135675000Y-95026000D01*
X135675000Y-95025000D01*
X135675000Y-94975000D01*
X135675000Y-94974000D01*
X135675000Y-94972000D01*
X135675000Y-94971000D01*
X135676000Y-94970000D01*
X135676000Y-94969000D01*
X135676000Y-94967000D01*
X135677000Y-94966000D01*
X135677000Y-94965000D01*
X135678000Y-94964000D01*
X135678000Y-94963000D01*
X135679000Y-94961000D01*
X135680000Y-94960000D01*
X135681000Y-94959000D01*
X135681000Y-94958000D01*
X135682000Y-94957000D01*
X135683000Y-94956000D01*
X135684000Y-94956000D01*
X135685000Y-94955000D01*
X135686000Y-94954000D01*
X135688000Y-94953000D01*
X135689000Y-94953000D01*
X135690000Y-94952000D01*
X135691000Y-94952000D01*
X135692000Y-94951000D01*
X135694000Y-94951000D01*
X135695000Y-94951000D01*
X135696000Y-94950000D01*
X135697000Y-94950000D01*
X135699000Y-94950000D01*
X135700000Y-94950000D01*
G36*
X135755000Y-94951000D02*
G01*
X135756000Y-94951000D01*
X135758000Y-94951000D01*
X135759000Y-94952000D01*
X135760000Y-94952000D01*
X135761000Y-94953000D01*
X135763000Y-94953000D01*
X135764000Y-94954000D01*
X135765000Y-94955000D01*
X135766000Y-94956000D01*
X135767000Y-94956000D01*
X135768000Y-94957000D01*
X135769000Y-94958000D01*
X135769000Y-94959000D01*
X135770000Y-94960000D01*
X135771000Y-94961000D01*
X135772000Y-94963000D01*
X135772000Y-94964000D01*
X135773000Y-94965000D01*
X135773000Y-94966000D01*
X135774000Y-94967000D01*
X135774000Y-94969000D01*
X135774000Y-94970000D01*
X135775000Y-94971000D01*
X135775000Y-94972000D01*
X135775000Y-94974000D01*
X135775000Y-94975000D01*
X135775000Y-95025000D01*
X135775000Y-95026000D01*
X135775000Y-95028000D01*
X135775000Y-95029000D01*
X135774000Y-95030000D01*
X135774000Y-95031000D01*
X135774000Y-95033000D01*
X135773000Y-95034000D01*
X135773000Y-95035000D01*
X135772000Y-95036000D01*
X135772000Y-95038000D01*
X135771000Y-95039000D01*
X135770000Y-95040000D01*
X135769000Y-95041000D01*
X135769000Y-95042000D01*
X135768000Y-95043000D01*
X135767000Y-95044000D01*
X135766000Y-95044000D01*
X135765000Y-95045000D01*
X135764000Y-95046000D01*
X135762000Y-95047000D01*
X135761000Y-95047000D01*
X135760000Y-95048000D01*
X135759000Y-95048000D01*
X135758000Y-95049000D01*
X135756000Y-95049000D01*
X135755000Y-95049000D01*
X135754000Y-95050000D01*
X135753000Y-95050000D01*
X135751000Y-95050000D01*
X135750000Y-95050000D01*
X135700000Y-95050000D01*
X135699000Y-95050000D01*
X135697000Y-95050000D01*
X135696000Y-95050000D01*
X135695000Y-95049000D01*
X135694000Y-95049000D01*
X135692000Y-95049000D01*
X135691000Y-95048000D01*
X135690000Y-95048000D01*
X135689000Y-95047000D01*
X135688000Y-95047000D01*
X135686000Y-95046000D01*
X135685000Y-95045000D01*
X135684000Y-95044000D01*
X135683000Y-95044000D01*
X135682000Y-95043000D01*
X135681000Y-95042000D01*
X135681000Y-95041000D01*
X135680000Y-95040000D01*
X135679000Y-95039000D01*
X135678000Y-95038000D01*
X135678000Y-95036000D01*
X135677000Y-95035000D01*
X135677000Y-95034000D01*
X135676000Y-95033000D01*
X135676000Y-95031000D01*
X135676000Y-95030000D01*
X135675000Y-95029000D01*
X135675000Y-95028000D01*
X135675000Y-95026000D01*
X135675000Y-95025000D01*
X135675000Y-94975000D01*
X135675000Y-94974000D01*
X135675000Y-94972000D01*
X135675000Y-94971000D01*
X135676000Y-94970000D01*
X135676000Y-94969000D01*
X135676000Y-94967000D01*
X135677000Y-94966000D01*
X135677000Y-94965000D01*
X135678000Y-94964000D01*
X135678000Y-94963000D01*
X135679000Y-94961000D01*
X135680000Y-94960000D01*
X135681000Y-94959000D01*
X135681000Y-94958000D01*
X135682000Y-94957000D01*
X135683000Y-94956000D01*
X135684000Y-94956000D01*
X135685000Y-94955000D01*
X135686000Y-94954000D01*
X135688000Y-94953000D01*
X135689000Y-94953000D01*
X135690000Y-94952000D01*
X135691000Y-94952000D01*
X135692000Y-94951000D01*
X135694000Y-94951000D01*
X135695000Y-94951000D01*
X135696000Y-94950000D01*
X135697000Y-94950000D01*
X135699000Y-94950000D01*
X135700000Y-94950000D01*
X135750000Y-94950000D01*
X135751000Y-94950000D01*
X135753000Y-94950000D01*
X135754000Y-94950000D01*
X135755000Y-94951000D01*
G37*
X135950000Y-94450000D02*
X136000000Y-94450000D01*
X136001000Y-94450000D01*
X136003000Y-94450000D01*
X136004000Y-94450000D01*
X136005000Y-94451000D01*
X136006000Y-94451000D01*
X136008000Y-94451000D01*
X136009000Y-94452000D01*
X136010000Y-94452000D01*
X136011000Y-94453000D01*
X136012000Y-94453000D01*
X136014000Y-94454000D01*
X136015000Y-94455000D01*
X136016000Y-94456000D01*
X136017000Y-94456000D01*
X136018000Y-94457000D01*
X136019000Y-94458000D01*
X136019000Y-94459000D01*
X136020000Y-94460000D01*
X136021000Y-94461000D01*
X136022000Y-94462000D01*
X136022000Y-94464000D01*
X136023000Y-94465000D01*
X136023000Y-94466000D01*
X136024000Y-94467000D01*
X136024000Y-94469000D01*
X136024000Y-94470000D01*
X136025000Y-94471000D01*
X136025000Y-94472000D01*
X136025000Y-94474000D01*
X136025000Y-94475000D01*
X136025000Y-94525000D01*
X136025000Y-94526000D01*
X136025000Y-94528000D01*
X136025000Y-94529000D01*
X136024000Y-94530000D01*
X136024000Y-94531000D01*
X136024000Y-94533000D01*
X136023000Y-94534000D01*
X136023000Y-94535000D01*
X136022000Y-94536000D01*
X136022000Y-94538000D01*
X136021000Y-94539000D01*
X136020000Y-94540000D01*
X136019000Y-94541000D01*
X136019000Y-94542000D01*
X136018000Y-94543000D01*
X136017000Y-94544000D01*
X136016000Y-94544000D01*
X136015000Y-94545000D01*
X136014000Y-94546000D01*
X136012000Y-94547000D01*
X136011000Y-94547000D01*
X136010000Y-94548000D01*
X136009000Y-94548000D01*
X136008000Y-94549000D01*
X136006000Y-94549000D01*
X136005000Y-94549000D01*
X136004000Y-94550000D01*
X136003000Y-94550000D01*
X136001000Y-94550000D01*
X136000000Y-94550000D01*
X135950000Y-94550000D01*
X135949000Y-94550000D01*
X135947000Y-94550000D01*
X135946000Y-94550000D01*
X135945000Y-94549000D01*
X135944000Y-94549000D01*
X135942000Y-94549000D01*
X135941000Y-94548000D01*
X135940000Y-94548000D01*
X135939000Y-94547000D01*
X135937000Y-94547000D01*
X135936000Y-94546000D01*
X135935000Y-94545000D01*
X135934000Y-94544000D01*
X135933000Y-94544000D01*
X135932000Y-94543000D01*
X135931000Y-94542000D01*
X135931000Y-94541000D01*
X135930000Y-94540000D01*
X135929000Y-94539000D01*
X135928000Y-94537000D01*
X135928000Y-94536000D01*
X135927000Y-94535000D01*
X135927000Y-94534000D01*
X135926000Y-94533000D01*
X135926000Y-94531000D01*
X135926000Y-94530000D01*
X135925000Y-94529000D01*
X135925000Y-94528000D01*
X135925000Y-94526000D01*
X135925000Y-94525000D01*
X135925000Y-94475000D01*
X135925000Y-94474000D01*
X135925000Y-94472000D01*
X135925000Y-94471000D01*
X135926000Y-94470000D01*
X135926000Y-94469000D01*
X135926000Y-94467000D01*
X135927000Y-94466000D01*
X135927000Y-94465000D01*
X135928000Y-94464000D01*
X135928000Y-94463000D01*
X135929000Y-94461000D01*
X135930000Y-94460000D01*
X135931000Y-94459000D01*
X135931000Y-94458000D01*
X135932000Y-94457000D01*
X135933000Y-94456000D01*
X135934000Y-94456000D01*
X135935000Y-94455000D01*
X135936000Y-94454000D01*
X135937000Y-94453000D01*
X135939000Y-94453000D01*
X135940000Y-94452000D01*
X135941000Y-94452000D01*
X135942000Y-94451000D01*
X135944000Y-94451000D01*
X135945000Y-94451000D01*
X135946000Y-94450000D01*
X135947000Y-94450000D01*
X135949000Y-94450000D01*
X135950000Y-94450000D01*
G36*
X136005000Y-94451000D02*
G01*
X136006000Y-94451000D01*
X136008000Y-94451000D01*
X136009000Y-94452000D01*
X136010000Y-94452000D01*
X136011000Y-94453000D01*
X136012000Y-94453000D01*
X136014000Y-94454000D01*
X136015000Y-94455000D01*
X136016000Y-94456000D01*
X136017000Y-94456000D01*
X136018000Y-94457000D01*
X136019000Y-94458000D01*
X136019000Y-94459000D01*
X136020000Y-94460000D01*
X136021000Y-94461000D01*
X136022000Y-94462000D01*
X136022000Y-94464000D01*
X136023000Y-94465000D01*
X136023000Y-94466000D01*
X136024000Y-94467000D01*
X136024000Y-94469000D01*
X136024000Y-94470000D01*
X136025000Y-94471000D01*
X136025000Y-94472000D01*
X136025000Y-94474000D01*
X136025000Y-94475000D01*
X136025000Y-94525000D01*
X136025000Y-94526000D01*
X136025000Y-94528000D01*
X136025000Y-94529000D01*
X136024000Y-94530000D01*
X136024000Y-94531000D01*
X136024000Y-94533000D01*
X136023000Y-94534000D01*
X136023000Y-94535000D01*
X136022000Y-94536000D01*
X136022000Y-94538000D01*
X136021000Y-94539000D01*
X136020000Y-94540000D01*
X136019000Y-94541000D01*
X136019000Y-94542000D01*
X136018000Y-94543000D01*
X136017000Y-94544000D01*
X136016000Y-94544000D01*
X136015000Y-94545000D01*
X136014000Y-94546000D01*
X136012000Y-94547000D01*
X136011000Y-94547000D01*
X136010000Y-94548000D01*
X136009000Y-94548000D01*
X136008000Y-94549000D01*
X136006000Y-94549000D01*
X136005000Y-94549000D01*
X136004000Y-94550000D01*
X136003000Y-94550000D01*
X136001000Y-94550000D01*
X136000000Y-94550000D01*
X135950000Y-94550000D01*
X135949000Y-94550000D01*
X135947000Y-94550000D01*
X135946000Y-94550000D01*
X135945000Y-94549000D01*
X135944000Y-94549000D01*
X135942000Y-94549000D01*
X135941000Y-94548000D01*
X135940000Y-94548000D01*
X135939000Y-94547000D01*
X135937000Y-94547000D01*
X135936000Y-94546000D01*
X135935000Y-94545000D01*
X135934000Y-94544000D01*
X135933000Y-94544000D01*
X135932000Y-94543000D01*
X135931000Y-94542000D01*
X135931000Y-94541000D01*
X135930000Y-94540000D01*
X135929000Y-94539000D01*
X135928000Y-94537000D01*
X135928000Y-94536000D01*
X135927000Y-94535000D01*
X135927000Y-94534000D01*
X135926000Y-94533000D01*
X135926000Y-94531000D01*
X135926000Y-94530000D01*
X135925000Y-94529000D01*
X135925000Y-94528000D01*
X135925000Y-94526000D01*
X135925000Y-94525000D01*
X135925000Y-94475000D01*
X135925000Y-94474000D01*
X135925000Y-94472000D01*
X135925000Y-94471000D01*
X135926000Y-94470000D01*
X135926000Y-94469000D01*
X135926000Y-94467000D01*
X135927000Y-94466000D01*
X135927000Y-94465000D01*
X135928000Y-94464000D01*
X135928000Y-94463000D01*
X135929000Y-94461000D01*
X135930000Y-94460000D01*
X135931000Y-94459000D01*
X135931000Y-94458000D01*
X135932000Y-94457000D01*
X135933000Y-94456000D01*
X135934000Y-94456000D01*
X135935000Y-94455000D01*
X135936000Y-94454000D01*
X135937000Y-94453000D01*
X135939000Y-94453000D01*
X135940000Y-94452000D01*
X135941000Y-94452000D01*
X135942000Y-94451000D01*
X135944000Y-94451000D01*
X135945000Y-94451000D01*
X135946000Y-94450000D01*
X135947000Y-94450000D01*
X135949000Y-94450000D01*
X135950000Y-94450000D01*
X136000000Y-94450000D01*
X136001000Y-94450000D01*
X136003000Y-94450000D01*
X136004000Y-94450000D01*
X136005000Y-94451000D01*
G37*
%TO.C,JP1*%
G36*
X146385008Y-69150442D02*
G01*
X146685008Y-69150442D01*
X146685008Y-70650442D01*
X146385008Y-70650442D01*
X146385008Y-69150442D01*
G37*
%TD*%
D11*
%TO.C,U1*%
X151250000Y-67500000D03*
X151250000Y-68770000D03*
X151250000Y-70040000D03*
X151250000Y-71310000D03*
X151250000Y-72580000D03*
X151250000Y-73850000D03*
X151250000Y-75120000D03*
X151250000Y-76390000D03*
X151250000Y-77660000D03*
X151250000Y-78930000D03*
X151250000Y-80200000D03*
X151250000Y-81470000D03*
X151250000Y-82740000D03*
X151250000Y-84010000D03*
X168750000Y-84010000D03*
X168750000Y-82740000D03*
X168750000Y-81470000D03*
X168750000Y-80200000D03*
X168750000Y-78930000D03*
X168750000Y-77660000D03*
X168750000Y-76390000D03*
X168750000Y-75120000D03*
X168750000Y-73850000D03*
X168750000Y-72580000D03*
X168750000Y-71310000D03*
X168750000Y-70040000D03*
X168750000Y-68770000D03*
X168750000Y-67500000D03*
D12*
X157245000Y-71970000D03*
X157245000Y-73220000D03*
X157245000Y-74470000D03*
X158495000Y-71970000D03*
X158495000Y-73220000D03*
X158495000Y-74470000D03*
X159745000Y-71970000D03*
X159745000Y-73220000D03*
X159745000Y-74470000D03*
%TD*%
D13*
%TO.C,C9*%
X169700000Y-92500000D03*
X167800000Y-92500000D03*
%TD*%
D14*
%TO.C,C3*%
X138500000Y-74725000D03*
X138500000Y-76275000D03*
%TD*%
D15*
%TO.C,R8*%
X146500000Y-81675000D03*
X146500000Y-83325000D03*
%TD*%
D16*
%TO.C,C2*%
X142850000Y-98950000D03*
X142850000Y-97050000D03*
%TD*%
D17*
%TO.C,J1*%
X132210000Y-90400000D03*
D18*
X132210000Y-97600000D03*
D19*
X132870000Y-91250000D03*
X132870000Y-91750000D03*
X132870000Y-92250000D03*
X132870000Y-92750000D03*
X132870000Y-93250000D03*
X132870000Y-93750000D03*
X132870000Y-94250000D03*
X132870000Y-94750000D03*
X132870000Y-95250000D03*
X132870000Y-95750000D03*
X132870000Y-96250000D03*
X132870000Y-96750000D03*
X131170000Y-96500000D03*
X131170000Y-96000000D03*
X131170000Y-95500000D03*
X131170000Y-95000000D03*
X131170000Y-94500000D03*
X131170000Y-94000000D03*
X131170000Y-93500000D03*
X131170000Y-93000000D03*
X131170000Y-92500000D03*
X131170000Y-92000000D03*
X131170000Y-91500000D03*
X131170000Y-91000000D03*
D20*
X125010000Y-89510000D03*
X130960000Y-89870000D03*
X130960000Y-98130000D03*
X125010000Y-98490000D03*
%TD*%
D14*
%TO.C,C6*%
X143500000Y-73225000D03*
X143500000Y-74775000D03*
%TD*%
D21*
%TO.C,Q1*%
X146500000Y-87650000D03*
X146500000Y-85750000D03*
X144625000Y-86700000D03*
%TD*%
D22*
%TO.C,R6*%
X162075000Y-101500000D03*
X160425000Y-101500000D03*
%TD*%
D23*
%TO.C,D3*%
X140250000Y-96500000D03*
X137450000Y-96500000D03*
%TD*%
D24*
%TO.C,J4*%
X177500000Y-70900000D03*
D25*
X177500000Y-73440000D03*
X177500000Y-75980000D03*
X177500000Y-78520000D03*
X177500000Y-81060000D03*
X177500000Y-83600000D03*
%TD*%
D26*
%TO.C,R9*%
X148250000Y-80075000D03*
X148250000Y-78425000D03*
%TD*%
D27*
%TO.C,J2*%
X133250000Y-72032500D03*
D28*
X128250000Y-72032500D03*
%TD*%
D29*
%TO.C,JP1*%
X145885008Y-69900442D03*
D30*
X147185008Y-69900442D03*
%TD*%
D31*
%TO.C,R4*%
X126700000Y-101500000D03*
X128350000Y-101500000D03*
%TD*%
D32*
%TO.C,J7*%
X151250000Y-92717500D03*
D28*
X156250000Y-92717500D03*
%TD*%
D14*
%TO.C,C1*%
X147000000Y-73950000D03*
X147000000Y-75500000D03*
%TD*%
D33*
%TO.C,C11*%
X180000000Y-78275000D03*
X180000000Y-76725000D03*
%TD*%
D34*
%TO.C,SW2*%
X142250000Y-105750000D03*
X148750000Y-105750000D03*
X142250000Y-110250000D03*
X148750000Y-110250000D03*
%TD*%
D35*
%TO.C,U2*%
X138862500Y-71050000D03*
X138862500Y-72000000D03*
X138862500Y-72950000D03*
X141137500Y-72950000D03*
X141137500Y-71050000D03*
%TD*%
D34*
%TO.C,SW1*%
X159000000Y-106000000D03*
X165500000Y-106000000D03*
X159000000Y-110500000D03*
X165500000Y-110500000D03*
%TD*%
D24*
%TO.C,J6*%
X182750000Y-96130000D03*
D25*
X180210000Y-96130000D03*
X182750000Y-98670000D03*
X180210000Y-98670000D03*
X182750000Y-101210000D03*
X180210000Y-101210000D03*
X182750000Y-103750000D03*
X180210000Y-103750000D03*
X182750000Y-106290000D03*
X180210000Y-106290000D03*
X182750000Y-108830000D03*
X180210000Y-108830000D03*
X182750000Y-111370000D03*
X180210000Y-111370000D03*
%TD*%
D36*
%TO.C,D2*%
X140500000Y-99000000D03*
X137200000Y-99000000D03*
%TD*%
D31*
%TO.C,R7*%
X132175000Y-85000000D03*
X133825000Y-85000000D03*
%TD*%
%TO.C,R2*%
X145675000Y-72000000D03*
X147325000Y-72000000D03*
%TD*%
D26*
%TO.C,R1*%
X143500000Y-70825000D03*
X143500000Y-69175000D03*
%TD*%
D37*
%TO.C,C13*%
X127525000Y-78500000D03*
X130475000Y-78500000D03*
%TD*%
D24*
%TO.C,J5*%
X125300000Y-82000000D03*
D25*
X127840000Y-82000000D03*
X130380000Y-82000000D03*
X132920000Y-82000000D03*
X135460000Y-82000000D03*
X138000000Y-82000000D03*
X140540000Y-82000000D03*
X143080000Y-82000000D03*
%TD*%
D38*
%TO.C,D1*%
X140212500Y-68500000D03*
X141787500Y-68500000D03*
%TD*%
D39*
%TO.C,C7*%
X145550000Y-67500000D03*
X147450000Y-67500000D03*
%TD*%
D31*
%TO.C,R5*%
X135700000Y-92500000D03*
X137350000Y-92500000D03*
%TD*%
D34*
%TO.C,SW3*%
X127500000Y-106250000D03*
X134000000Y-106250000D03*
X127500000Y-110750000D03*
X134000000Y-110750000D03*
%TD*%
D24*
%TO.C,J3*%
X177040000Y-89750000D03*
D25*
X174500000Y-89750000D03*
X171960000Y-89750000D03*
X169420000Y-89750000D03*
X166880000Y-89750000D03*
X164340000Y-89750000D03*
X161800000Y-89750000D03*
%TD*%
M02*
