%TF.GenerationSoftware,KiCad,Pcbnew,10.0.4*%
%TF.CreationDate,2026-07-25T22:44:44-04:00*%
%TF.ProjectId,FirstESPproject,46697273-7445-4535-9070-726f6a656374,rev?*%
%TF.SameCoordinates,Original*%
%TF.FileFunction,Paste,Top*%
%TF.FilePolarity,Positive*%
%FSLAX46Y46*%
G04 Gerber Fmt 4.6, Leading zero omitted, Abs format (unit mm)*
G04 Created by KiCad (PCBNEW 10.0.4) date 2026-07-25 22:44:44*
%MOMM*%
%LPD*%
G01*
G04 APERTURE LIST*
G04 Aperture macros list*
%AMRoundRect*
0 Rectangle with rounded corners*
0 $1 Rounding radius*
0 $2 $3 $4 $5 $6 $7 $8 $9 X,Y pos of 4 corners*
0 Add a 4 corners polygon primitive as box body*
4,1,4,$2,$3,$4,$5,$6,$7,$8,$9,$2,$3,0*
0 Add four circle primitives for the rounded corners*
1,1,$1+$1,$2,$3*
1,1,$1+$1,$4,$5*
1,1,$1+$1,$6,$7*
1,1,$1+$1,$8,$9*
0 Add four rect primitives between the rounded corners*
20,1,$1+$1,$2,$3,$4,$5,0*
20,1,$1+$1,$4,$5,$6,$7,0*
20,1,$1+$1,$6,$7,$8,$9,0*
20,1,$1+$1,$8,$9,$2,$3,0*%
G04 Aperture macros list end*
%ADD10C,0.010000*%
%ADD11R,1.500000X0.900000*%
%ADD12R,0.800000X0.800000*%
%ADD13RoundRect,0.250000X0.250000X0.475000X-0.250000X0.475000X-0.250000X-0.475000X0.250000X-0.475000X0*%
%ADD14RoundRect,0.225000X-0.250000X0.225000X-0.250000X-0.225000X0.250000X-0.225000X0.250000X0.225000X0*%
%ADD15RoundRect,0.200000X-0.275000X0.200000X-0.275000X-0.200000X0.275000X-0.200000X0.275000X0.200000X0*%
%ADD16RoundRect,0.250000X0.475000X-0.250000X0.475000X0.250000X-0.475000X0.250000X-0.475000X-0.250000X0*%
%ADD17RoundRect,0.075000X-0.275000X0.075000X-0.275000X-0.075000X0.275000X-0.075000X0.275000X0.075000X0*%
%ADD18RoundRect,0.150000X0.587500X0.150000X-0.587500X0.150000X-0.587500X-0.150000X0.587500X-0.150000X0*%
%ADD19RoundRect,0.200000X0.200000X0.275000X-0.200000X0.275000X-0.200000X-0.275000X0.200000X-0.275000X0*%
%ADD20RoundRect,0.250000X0.300000X0.300000X-0.300000X0.300000X-0.300000X-0.300000X0.300000X-0.300000X0*%
%ADD21RoundRect,0.200000X0.275000X-0.200000X0.275000X0.200000X-0.275000X0.200000X-0.275000X-0.200000X0*%
%ADD22RoundRect,0.200000X-0.200000X-0.275000X0.200000X-0.275000X0.200000X0.275000X-0.200000X0.275000X0*%
%ADD23RoundRect,0.225000X0.250000X-0.225000X0.250000X0.225000X-0.250000X0.225000X-0.250000X-0.225000X0*%
%ADD24RoundRect,0.150000X-0.512500X-0.150000X0.512500X-0.150000X0.512500X0.150000X-0.512500X0.150000X0*%
%ADD25RoundRect,0.225000X0.225000X0.375000X-0.225000X0.375000X-0.225000X-0.375000X0.225000X-0.375000X0*%
%ADD26RoundRect,0.250000X-0.325000X-0.650000X0.325000X-0.650000X0.325000X0.650000X-0.325000X0.650000X0*%
%ADD27RoundRect,0.218750X-0.218750X-0.256250X0.218750X-0.256250X0.218750X0.256250X-0.218750X0.256250X0*%
%ADD28RoundRect,0.250000X-0.250000X-0.475000X0.250000X-0.475000X0.250000X0.475000X-0.250000X0.475000X0*%
G04 APERTURE END LIST*
D10*
%TO.C,D4*%
X135670000Y-93895000D02*
X135780000Y-93895000D01*
X135783000Y-93895000D01*
X135785000Y-93895000D01*
X135788000Y-93896000D01*
X135790000Y-93896000D01*
X135793000Y-93897000D01*
X135795000Y-93897000D01*
X135798000Y-93898000D01*
X135800000Y-93899000D01*
X135803000Y-93900000D01*
X135805000Y-93902000D01*
X135807000Y-93903000D01*
X135809000Y-93905000D01*
X135811000Y-93906000D01*
X135813000Y-93908000D01*
X135815000Y-93910000D01*
X135817000Y-93912000D01*
X135819000Y-93914000D01*
X135820000Y-93916000D01*
X135822000Y-93918000D01*
X135823000Y-93920000D01*
X135825000Y-93922000D01*
X135826000Y-93925000D01*
X135827000Y-93927000D01*
X135828000Y-93930000D01*
X135828000Y-93932000D01*
X135829000Y-93935000D01*
X135829000Y-93937000D01*
X135830000Y-93940000D01*
X135830000Y-93942000D01*
X135830000Y-93945000D01*
X135830000Y-94055000D01*
X135830000Y-94058000D01*
X135830000Y-94060000D01*
X135829000Y-94063000D01*
X135829000Y-94065000D01*
X135828000Y-94068000D01*
X135828000Y-94070000D01*
X135827000Y-94073000D01*
X135826000Y-94075000D01*
X135825000Y-94078000D01*
X135823000Y-94080000D01*
X135822000Y-94082000D01*
X135820000Y-94084000D01*
X135819000Y-94086000D01*
X135817000Y-94088000D01*
X135815000Y-94090000D01*
X135813000Y-94092000D01*
X135811000Y-94094000D01*
X135809000Y-94095000D01*
X135807000Y-94097000D01*
X135805000Y-94098000D01*
X135803000Y-94100000D01*
X135800000Y-94101000D01*
X135798000Y-94102000D01*
X135795000Y-94103000D01*
X135793000Y-94103000D01*
X135790000Y-94104000D01*
X135788000Y-94104000D01*
X135785000Y-94105000D01*
X135783000Y-94105000D01*
X135780000Y-94105000D01*
X135670000Y-94105000D01*
X135667000Y-94105000D01*
X135665000Y-94105000D01*
X135662000Y-94104000D01*
X135660000Y-94104000D01*
X135657000Y-94103000D01*
X135655000Y-94103000D01*
X135652000Y-94102000D01*
X135650000Y-94101000D01*
X135647000Y-94100000D01*
X135645000Y-94098000D01*
X135643000Y-94097000D01*
X135641000Y-94095000D01*
X135639000Y-94094000D01*
X135637000Y-94092000D01*
X135635000Y-94090000D01*
X135633000Y-94088000D01*
X135631000Y-94086000D01*
X135630000Y-94084000D01*
X135628000Y-94082000D01*
X135627000Y-94080000D01*
X135625000Y-94078000D01*
X135624000Y-94075000D01*
X135623000Y-94073000D01*
X135622000Y-94070000D01*
X135622000Y-94068000D01*
X135621000Y-94065000D01*
X135621000Y-94063000D01*
X135620000Y-94060000D01*
X135620000Y-94058000D01*
X135620000Y-94055000D01*
X135620000Y-93945000D01*
X135620000Y-93942000D01*
X135620000Y-93940000D01*
X135621000Y-93937000D01*
X135621000Y-93935000D01*
X135622000Y-93932000D01*
X135622000Y-93930000D01*
X135623000Y-93927000D01*
X135624000Y-93925000D01*
X135625000Y-93922000D01*
X135627000Y-93920000D01*
X135628000Y-93918000D01*
X135630000Y-93916000D01*
X135631000Y-93914000D01*
X135633000Y-93912000D01*
X135635000Y-93910000D01*
X135637000Y-93908000D01*
X135639000Y-93906000D01*
X135641000Y-93905000D01*
X135643000Y-93903000D01*
X135645000Y-93902000D01*
X135647000Y-93900000D01*
X135650000Y-93899000D01*
X135652000Y-93898000D01*
X135655000Y-93897000D01*
X135657000Y-93897000D01*
X135660000Y-93896000D01*
X135662000Y-93896000D01*
X135665000Y-93895000D01*
X135667000Y-93895000D01*
X135670000Y-93895000D01*
G36*
X135788000Y-93896000D02*
G01*
X135790000Y-93896000D01*
X135793000Y-93897000D01*
X135795000Y-93897000D01*
X135798000Y-93898000D01*
X135800000Y-93899000D01*
X135803000Y-93900000D01*
X135805000Y-93902000D01*
X135807000Y-93903000D01*
X135809000Y-93905000D01*
X135811000Y-93906000D01*
X135813000Y-93908000D01*
X135815000Y-93910000D01*
X135817000Y-93912000D01*
X135819000Y-93914000D01*
X135820000Y-93916000D01*
X135822000Y-93918000D01*
X135823000Y-93920000D01*
X135825000Y-93922000D01*
X135826000Y-93925000D01*
X135827000Y-93927000D01*
X135828000Y-93930000D01*
X135828000Y-93932000D01*
X135829000Y-93935000D01*
X135829000Y-93937000D01*
X135830000Y-93940000D01*
X135830000Y-93942000D01*
X135830000Y-93945000D01*
X135830000Y-94055000D01*
X135830000Y-94058000D01*
X135830000Y-94060000D01*
X135829000Y-94063000D01*
X135829000Y-94065000D01*
X135828000Y-94068000D01*
X135828000Y-94070000D01*
X135827000Y-94073000D01*
X135826000Y-94075000D01*
X135825000Y-94078000D01*
X135823000Y-94080000D01*
X135822000Y-94082000D01*
X135820000Y-94084000D01*
X135819000Y-94086000D01*
X135817000Y-94088000D01*
X135815000Y-94090000D01*
X135813000Y-94092000D01*
X135811000Y-94094000D01*
X135809000Y-94095000D01*
X135807000Y-94097000D01*
X135805000Y-94098000D01*
X135803000Y-94100000D01*
X135800000Y-94101000D01*
X135798000Y-94102000D01*
X135795000Y-94103000D01*
X135793000Y-94103000D01*
X135790000Y-94104000D01*
X135788000Y-94104000D01*
X135785000Y-94105000D01*
X135783000Y-94105000D01*
X135780000Y-94105000D01*
X135670000Y-94105000D01*
X135667000Y-94105000D01*
X135665000Y-94105000D01*
X135662000Y-94104000D01*
X135660000Y-94104000D01*
X135657000Y-94103000D01*
X135655000Y-94103000D01*
X135652000Y-94102000D01*
X135650000Y-94101000D01*
X135647000Y-94100000D01*
X135645000Y-94098000D01*
X135643000Y-94097000D01*
X135641000Y-94095000D01*
X135639000Y-94094000D01*
X135637000Y-94092000D01*
X135635000Y-94090000D01*
X135633000Y-94088000D01*
X135631000Y-94086000D01*
X135630000Y-94084000D01*
X135628000Y-94082000D01*
X135627000Y-94080000D01*
X135625000Y-94078000D01*
X135624000Y-94075000D01*
X135623000Y-94073000D01*
X135622000Y-94070000D01*
X135622000Y-94068000D01*
X135621000Y-94065000D01*
X135621000Y-94063000D01*
X135620000Y-94060000D01*
X135620000Y-94058000D01*
X135620000Y-94055000D01*
X135620000Y-93945000D01*
X135620000Y-93942000D01*
X135620000Y-93940000D01*
X135621000Y-93937000D01*
X135621000Y-93935000D01*
X135622000Y-93932000D01*
X135622000Y-93930000D01*
X135623000Y-93927000D01*
X135624000Y-93925000D01*
X135625000Y-93922000D01*
X135627000Y-93920000D01*
X135628000Y-93918000D01*
X135630000Y-93916000D01*
X135631000Y-93914000D01*
X135633000Y-93912000D01*
X135635000Y-93910000D01*
X135637000Y-93908000D01*
X135639000Y-93906000D01*
X135641000Y-93905000D01*
X135643000Y-93903000D01*
X135645000Y-93902000D01*
X135647000Y-93900000D01*
X135650000Y-93899000D01*
X135652000Y-93898000D01*
X135655000Y-93897000D01*
X135657000Y-93897000D01*
X135660000Y-93896000D01*
X135662000Y-93896000D01*
X135665000Y-93895000D01*
X135667000Y-93895000D01*
X135670000Y-93895000D01*
X135780000Y-93895000D01*
X135783000Y-93895000D01*
X135785000Y-93895000D01*
X135788000Y-93896000D01*
G37*
X135670000Y-94895000D02*
X135780000Y-94895000D01*
X135783000Y-94895000D01*
X135785000Y-94895000D01*
X135788000Y-94896000D01*
X135790000Y-94896000D01*
X135793000Y-94897000D01*
X135795000Y-94897000D01*
X135798000Y-94898000D01*
X135800000Y-94899000D01*
X135803000Y-94900000D01*
X135805000Y-94902000D01*
X135807000Y-94903000D01*
X135809000Y-94905000D01*
X135811000Y-94906000D01*
X135813000Y-94908000D01*
X135815000Y-94910000D01*
X135817000Y-94912000D01*
X135819000Y-94914000D01*
X135820000Y-94916000D01*
X135822000Y-94918000D01*
X135823000Y-94920000D01*
X135825000Y-94922000D01*
X135826000Y-94925000D01*
X135827000Y-94927000D01*
X135828000Y-94930000D01*
X135828000Y-94932000D01*
X135829000Y-94935000D01*
X135829000Y-94937000D01*
X135830000Y-94940000D01*
X135830000Y-94942000D01*
X135830000Y-94945000D01*
X135830000Y-95055000D01*
X135830000Y-95058000D01*
X135830000Y-95060000D01*
X135829000Y-95063000D01*
X135829000Y-95065000D01*
X135828000Y-95068000D01*
X135828000Y-95070000D01*
X135827000Y-95073000D01*
X135826000Y-95075000D01*
X135825000Y-95078000D01*
X135823000Y-95080000D01*
X135822000Y-95082000D01*
X135820000Y-95084000D01*
X135819000Y-95086000D01*
X135817000Y-95088000D01*
X135815000Y-95090000D01*
X135813000Y-95092000D01*
X135811000Y-95094000D01*
X135809000Y-95095000D01*
X135807000Y-95097000D01*
X135805000Y-95098000D01*
X135803000Y-95100000D01*
X135800000Y-95101000D01*
X135798000Y-95102000D01*
X135795000Y-95103000D01*
X135793000Y-95103000D01*
X135790000Y-95104000D01*
X135788000Y-95104000D01*
X135785000Y-95105000D01*
X135783000Y-95105000D01*
X135780000Y-95105000D01*
X135670000Y-95105000D01*
X135667000Y-95105000D01*
X135665000Y-95105000D01*
X135662000Y-95104000D01*
X135660000Y-95104000D01*
X135657000Y-95103000D01*
X135655000Y-95103000D01*
X135652000Y-95102000D01*
X135650000Y-95101000D01*
X135647000Y-95100000D01*
X135645000Y-95098000D01*
X135643000Y-95097000D01*
X135641000Y-95095000D01*
X135639000Y-95094000D01*
X135637000Y-95092000D01*
X135635000Y-95090000D01*
X135633000Y-95088000D01*
X135631000Y-95086000D01*
X135630000Y-95084000D01*
X135628000Y-95082000D01*
X135627000Y-95080000D01*
X135625000Y-95078000D01*
X135624000Y-95075000D01*
X135623000Y-95073000D01*
X135622000Y-95070000D01*
X135622000Y-95068000D01*
X135621000Y-95065000D01*
X135621000Y-95063000D01*
X135620000Y-95060000D01*
X135620000Y-95058000D01*
X135620000Y-95055000D01*
X135620000Y-94945000D01*
X135620000Y-94942000D01*
X135620000Y-94940000D01*
X135621000Y-94937000D01*
X135621000Y-94935000D01*
X135622000Y-94932000D01*
X135622000Y-94930000D01*
X135623000Y-94927000D01*
X135624000Y-94925000D01*
X135625000Y-94922000D01*
X135627000Y-94920000D01*
X135628000Y-94918000D01*
X135630000Y-94916000D01*
X135631000Y-94914000D01*
X135633000Y-94912000D01*
X135635000Y-94910000D01*
X135637000Y-94908000D01*
X135639000Y-94906000D01*
X135641000Y-94905000D01*
X135643000Y-94903000D01*
X135645000Y-94902000D01*
X135647000Y-94900000D01*
X135650000Y-94899000D01*
X135652000Y-94898000D01*
X135655000Y-94897000D01*
X135657000Y-94897000D01*
X135660000Y-94896000D01*
X135662000Y-94896000D01*
X135665000Y-94895000D01*
X135667000Y-94895000D01*
X135670000Y-94895000D01*
G36*
X135788000Y-94896000D02*
G01*
X135790000Y-94896000D01*
X135793000Y-94897000D01*
X135795000Y-94897000D01*
X135798000Y-94898000D01*
X135800000Y-94899000D01*
X135803000Y-94900000D01*
X135805000Y-94902000D01*
X135807000Y-94903000D01*
X135809000Y-94905000D01*
X135811000Y-94906000D01*
X135813000Y-94908000D01*
X135815000Y-94910000D01*
X135817000Y-94912000D01*
X135819000Y-94914000D01*
X135820000Y-94916000D01*
X135822000Y-94918000D01*
X135823000Y-94920000D01*
X135825000Y-94922000D01*
X135826000Y-94925000D01*
X135827000Y-94927000D01*
X135828000Y-94930000D01*
X135828000Y-94932000D01*
X135829000Y-94935000D01*
X135829000Y-94937000D01*
X135830000Y-94940000D01*
X135830000Y-94942000D01*
X135830000Y-94945000D01*
X135830000Y-95055000D01*
X135830000Y-95058000D01*
X135830000Y-95060000D01*
X135829000Y-95063000D01*
X135829000Y-95065000D01*
X135828000Y-95068000D01*
X135828000Y-95070000D01*
X135827000Y-95073000D01*
X135826000Y-95075000D01*
X135825000Y-95078000D01*
X135823000Y-95080000D01*
X135822000Y-95082000D01*
X135820000Y-95084000D01*
X135819000Y-95086000D01*
X135817000Y-95088000D01*
X135815000Y-95090000D01*
X135813000Y-95092000D01*
X135811000Y-95094000D01*
X135809000Y-95095000D01*
X135807000Y-95097000D01*
X135805000Y-95098000D01*
X135803000Y-95100000D01*
X135800000Y-95101000D01*
X135798000Y-95102000D01*
X135795000Y-95103000D01*
X135793000Y-95103000D01*
X135790000Y-95104000D01*
X135788000Y-95104000D01*
X135785000Y-95105000D01*
X135783000Y-95105000D01*
X135780000Y-95105000D01*
X135670000Y-95105000D01*
X135667000Y-95105000D01*
X135665000Y-95105000D01*
X135662000Y-95104000D01*
X135660000Y-95104000D01*
X135657000Y-95103000D01*
X135655000Y-95103000D01*
X135652000Y-95102000D01*
X135650000Y-95101000D01*
X135647000Y-95100000D01*
X135645000Y-95098000D01*
X135643000Y-95097000D01*
X135641000Y-95095000D01*
X135639000Y-95094000D01*
X135637000Y-95092000D01*
X135635000Y-95090000D01*
X135633000Y-95088000D01*
X135631000Y-95086000D01*
X135630000Y-95084000D01*
X135628000Y-95082000D01*
X135627000Y-95080000D01*
X135625000Y-95078000D01*
X135624000Y-95075000D01*
X135623000Y-95073000D01*
X135622000Y-95070000D01*
X135622000Y-95068000D01*
X135621000Y-95065000D01*
X135621000Y-95063000D01*
X135620000Y-95060000D01*
X135620000Y-95058000D01*
X135620000Y-95055000D01*
X135620000Y-94945000D01*
X135620000Y-94942000D01*
X135620000Y-94940000D01*
X135621000Y-94937000D01*
X135621000Y-94935000D01*
X135622000Y-94932000D01*
X135622000Y-94930000D01*
X135623000Y-94927000D01*
X135624000Y-94925000D01*
X135625000Y-94922000D01*
X135627000Y-94920000D01*
X135628000Y-94918000D01*
X135630000Y-94916000D01*
X135631000Y-94914000D01*
X135633000Y-94912000D01*
X135635000Y-94910000D01*
X135637000Y-94908000D01*
X135639000Y-94906000D01*
X135641000Y-94905000D01*
X135643000Y-94903000D01*
X135645000Y-94902000D01*
X135647000Y-94900000D01*
X135650000Y-94899000D01*
X135652000Y-94898000D01*
X135655000Y-94897000D01*
X135657000Y-94897000D01*
X135660000Y-94896000D01*
X135662000Y-94896000D01*
X135665000Y-94895000D01*
X135667000Y-94895000D01*
X135670000Y-94895000D01*
X135780000Y-94895000D01*
X135783000Y-94895000D01*
X135785000Y-94895000D01*
X135788000Y-94896000D01*
G37*
X135920000Y-94395000D02*
X136030000Y-94395000D01*
X136033000Y-94395000D01*
X136035000Y-94395000D01*
X136038000Y-94396000D01*
X136040000Y-94396000D01*
X136043000Y-94397000D01*
X136045000Y-94397000D01*
X136048000Y-94398000D01*
X136050000Y-94399000D01*
X136053000Y-94400000D01*
X136055000Y-94402000D01*
X136057000Y-94403000D01*
X136059000Y-94405000D01*
X136061000Y-94406000D01*
X136063000Y-94408000D01*
X136065000Y-94410000D01*
X136067000Y-94412000D01*
X136069000Y-94414000D01*
X136070000Y-94416000D01*
X136072000Y-94418000D01*
X136073000Y-94420000D01*
X136075000Y-94422000D01*
X136076000Y-94425000D01*
X136077000Y-94427000D01*
X136078000Y-94430000D01*
X136078000Y-94432000D01*
X136079000Y-94435000D01*
X136079000Y-94437000D01*
X136080000Y-94440000D01*
X136080000Y-94442000D01*
X136080000Y-94445000D01*
X136080000Y-94555000D01*
X136080000Y-94558000D01*
X136080000Y-94560000D01*
X136079000Y-94563000D01*
X136079000Y-94565000D01*
X136078000Y-94568000D01*
X136078000Y-94570000D01*
X136077000Y-94573000D01*
X136076000Y-94575000D01*
X136075000Y-94578000D01*
X136073000Y-94580000D01*
X136072000Y-94582000D01*
X136070000Y-94584000D01*
X136069000Y-94586000D01*
X136067000Y-94588000D01*
X136065000Y-94590000D01*
X136063000Y-94592000D01*
X136061000Y-94594000D01*
X136059000Y-94595000D01*
X136057000Y-94597000D01*
X136055000Y-94598000D01*
X136053000Y-94600000D01*
X136050000Y-94601000D01*
X136048000Y-94602000D01*
X136045000Y-94603000D01*
X136043000Y-94603000D01*
X136040000Y-94604000D01*
X136038000Y-94604000D01*
X136035000Y-94605000D01*
X136033000Y-94605000D01*
X136030000Y-94605000D01*
X135920000Y-94605000D01*
X135917000Y-94605000D01*
X135915000Y-94605000D01*
X135912000Y-94604000D01*
X135910000Y-94604000D01*
X135907000Y-94603000D01*
X135905000Y-94603000D01*
X135902000Y-94602000D01*
X135900000Y-94601000D01*
X135897000Y-94600000D01*
X135895000Y-94598000D01*
X135893000Y-94597000D01*
X135891000Y-94595000D01*
X135889000Y-94594000D01*
X135887000Y-94592000D01*
X135885000Y-94590000D01*
X135883000Y-94588000D01*
X135881000Y-94586000D01*
X135880000Y-94584000D01*
X135878000Y-94582000D01*
X135877000Y-94580000D01*
X135875000Y-94578000D01*
X135874000Y-94575000D01*
X135873000Y-94573000D01*
X135872000Y-94570000D01*
X135872000Y-94568000D01*
X135871000Y-94565000D01*
X135871000Y-94563000D01*
X135870000Y-94560000D01*
X135870000Y-94558000D01*
X135870000Y-94555000D01*
X135870000Y-94445000D01*
X135870000Y-94442000D01*
X135870000Y-94440000D01*
X135871000Y-94437000D01*
X135871000Y-94435000D01*
X135872000Y-94432000D01*
X135872000Y-94430000D01*
X135873000Y-94427000D01*
X135874000Y-94425000D01*
X135875000Y-94422000D01*
X135877000Y-94420000D01*
X135878000Y-94418000D01*
X135880000Y-94416000D01*
X135881000Y-94414000D01*
X135883000Y-94412000D01*
X135885000Y-94410000D01*
X135887000Y-94408000D01*
X135889000Y-94406000D01*
X135891000Y-94405000D01*
X135893000Y-94403000D01*
X135895000Y-94402000D01*
X135897000Y-94400000D01*
X135900000Y-94399000D01*
X135902000Y-94398000D01*
X135905000Y-94397000D01*
X135907000Y-94397000D01*
X135910000Y-94396000D01*
X135912000Y-94396000D01*
X135915000Y-94395000D01*
X135917000Y-94395000D01*
X135920000Y-94395000D01*
G36*
X136038000Y-94396000D02*
G01*
X136040000Y-94396000D01*
X136043000Y-94397000D01*
X136045000Y-94397000D01*
X136048000Y-94398000D01*
X136050000Y-94399000D01*
X136053000Y-94400000D01*
X136055000Y-94402000D01*
X136057000Y-94403000D01*
X136059000Y-94405000D01*
X136061000Y-94406000D01*
X136063000Y-94408000D01*
X136065000Y-94410000D01*
X136067000Y-94412000D01*
X136069000Y-94414000D01*
X136070000Y-94416000D01*
X136072000Y-94418000D01*
X136073000Y-94420000D01*
X136075000Y-94422000D01*
X136076000Y-94425000D01*
X136077000Y-94427000D01*
X136078000Y-94430000D01*
X136078000Y-94432000D01*
X136079000Y-94435000D01*
X136079000Y-94437000D01*
X136080000Y-94440000D01*
X136080000Y-94442000D01*
X136080000Y-94445000D01*
X136080000Y-94555000D01*
X136080000Y-94558000D01*
X136080000Y-94560000D01*
X136079000Y-94563000D01*
X136079000Y-94565000D01*
X136078000Y-94568000D01*
X136078000Y-94570000D01*
X136077000Y-94573000D01*
X136076000Y-94575000D01*
X136075000Y-94578000D01*
X136073000Y-94580000D01*
X136072000Y-94582000D01*
X136070000Y-94584000D01*
X136069000Y-94586000D01*
X136067000Y-94588000D01*
X136065000Y-94590000D01*
X136063000Y-94592000D01*
X136061000Y-94594000D01*
X136059000Y-94595000D01*
X136057000Y-94597000D01*
X136055000Y-94598000D01*
X136053000Y-94600000D01*
X136050000Y-94601000D01*
X136048000Y-94602000D01*
X136045000Y-94603000D01*
X136043000Y-94603000D01*
X136040000Y-94604000D01*
X136038000Y-94604000D01*
X136035000Y-94605000D01*
X136033000Y-94605000D01*
X136030000Y-94605000D01*
X135920000Y-94605000D01*
X135917000Y-94605000D01*
X135915000Y-94605000D01*
X135912000Y-94604000D01*
X135910000Y-94604000D01*
X135907000Y-94603000D01*
X135905000Y-94603000D01*
X135902000Y-94602000D01*
X135900000Y-94601000D01*
X135897000Y-94600000D01*
X135895000Y-94598000D01*
X135893000Y-94597000D01*
X135891000Y-94595000D01*
X135889000Y-94594000D01*
X135887000Y-94592000D01*
X135885000Y-94590000D01*
X135883000Y-94588000D01*
X135881000Y-94586000D01*
X135880000Y-94584000D01*
X135878000Y-94582000D01*
X135877000Y-94580000D01*
X135875000Y-94578000D01*
X135874000Y-94575000D01*
X135873000Y-94573000D01*
X135872000Y-94570000D01*
X135872000Y-94568000D01*
X135871000Y-94565000D01*
X135871000Y-94563000D01*
X135870000Y-94560000D01*
X135870000Y-94558000D01*
X135870000Y-94555000D01*
X135870000Y-94445000D01*
X135870000Y-94442000D01*
X135870000Y-94440000D01*
X135871000Y-94437000D01*
X135871000Y-94435000D01*
X135872000Y-94432000D01*
X135872000Y-94430000D01*
X135873000Y-94427000D01*
X135874000Y-94425000D01*
X135875000Y-94422000D01*
X135877000Y-94420000D01*
X135878000Y-94418000D01*
X135880000Y-94416000D01*
X135881000Y-94414000D01*
X135883000Y-94412000D01*
X135885000Y-94410000D01*
X135887000Y-94408000D01*
X135889000Y-94406000D01*
X135891000Y-94405000D01*
X135893000Y-94403000D01*
X135895000Y-94402000D01*
X135897000Y-94400000D01*
X135900000Y-94399000D01*
X135902000Y-94398000D01*
X135905000Y-94397000D01*
X135907000Y-94397000D01*
X135910000Y-94396000D01*
X135912000Y-94396000D01*
X135915000Y-94395000D01*
X135917000Y-94395000D01*
X135920000Y-94395000D01*
X136030000Y-94395000D01*
X136033000Y-94395000D01*
X136035000Y-94395000D01*
X136038000Y-94396000D01*
G37*
%TD*%
D11*
%TO.C,U1*%
X151250000Y-67500000D03*
X151250000Y-68770000D03*
X151250000Y-70040000D03*
X151250000Y-71310000D03*
X151250000Y-72580000D03*
X151250000Y-73850000D03*
X151250000Y-75120000D03*
X151250000Y-76390000D03*
X151250000Y-77660000D03*
X151250000Y-78930000D03*
X151250000Y-80200000D03*
X151250000Y-81470000D03*
X151250000Y-82740000D03*
X151250000Y-84010000D03*
X168750000Y-84010000D03*
X168750000Y-82740000D03*
X168750000Y-81470000D03*
X168750000Y-80200000D03*
X168750000Y-78930000D03*
X168750000Y-77660000D03*
X168750000Y-76390000D03*
X168750000Y-75120000D03*
X168750000Y-73850000D03*
X168750000Y-72580000D03*
X168750000Y-71310000D03*
X168750000Y-70040000D03*
X168750000Y-68770000D03*
X168750000Y-67500000D03*
D12*
X157245000Y-71970000D03*
X157245000Y-73220000D03*
X157245000Y-74470000D03*
X158495000Y-71970000D03*
X158495000Y-73220000D03*
X158495000Y-74470000D03*
X159745000Y-71970000D03*
X159745000Y-73220000D03*
X159745000Y-74470000D03*
%TD*%
D13*
%TO.C,C9*%
X169700000Y-92500000D03*
X167800000Y-92500000D03*
%TD*%
D14*
%TO.C,C3*%
X138500000Y-74725000D03*
X138500000Y-76275000D03*
%TD*%
D15*
%TO.C,R8*%
X146500000Y-81675000D03*
X146500000Y-83325000D03*
%TD*%
D16*
%TO.C,C2*%
X142850000Y-98950000D03*
X142850000Y-97050000D03*
%TD*%
D17*
%TO.C,J1*%
X132870000Y-91250000D03*
X132870000Y-91750000D03*
X132870000Y-92250000D03*
X132870000Y-92750000D03*
X132870000Y-93250000D03*
X132870000Y-93750000D03*
X132870000Y-94250000D03*
X132870000Y-94750000D03*
X132870000Y-95250000D03*
X132870000Y-95750000D03*
X132870000Y-96250000D03*
X132870000Y-96750000D03*
X131170000Y-96500000D03*
X131170000Y-96000000D03*
X131170000Y-95500000D03*
X131170000Y-95000000D03*
X131170000Y-94500000D03*
X131170000Y-94000000D03*
X131170000Y-93500000D03*
X131170000Y-93000000D03*
X131170000Y-92500000D03*
X131170000Y-92000000D03*
X131170000Y-91500000D03*
X131170000Y-91000000D03*
%TD*%
D14*
%TO.C,C6*%
X143500000Y-73225000D03*
X143500000Y-74775000D03*
%TD*%
D18*
%TO.C,Q1*%
X146500000Y-87650000D03*
X146500000Y-85750000D03*
X144625000Y-86700000D03*
%TD*%
D19*
%TO.C,R6*%
X162075000Y-101500000D03*
X160425000Y-101500000D03*
%TD*%
D20*
%TO.C,D3*%
X140250000Y-96500000D03*
X137450000Y-96500000D03*
%TD*%
D21*
%TO.C,R9*%
X148250000Y-80075000D03*
X148250000Y-78425000D03*
%TD*%
D22*
%TO.C,R4*%
X126700000Y-101500000D03*
X128350000Y-101500000D03*
%TD*%
D14*
%TO.C,C1*%
X147000000Y-73950000D03*
X147000000Y-75500000D03*
%TD*%
D23*
%TO.C,C11*%
X180000000Y-78275000D03*
X180000000Y-76725000D03*
%TD*%
D24*
%TO.C,U2*%
X138862500Y-71050000D03*
X138862500Y-72000000D03*
X138862500Y-72950000D03*
X141137500Y-72950000D03*
X141137500Y-71050000D03*
%TD*%
D25*
%TO.C,D2*%
X140500000Y-99000000D03*
X137200000Y-99000000D03*
%TD*%
D22*
%TO.C,R7*%
X132175000Y-85000000D03*
X133825000Y-85000000D03*
%TD*%
%TO.C,R2*%
X145675000Y-72000000D03*
X147325000Y-72000000D03*
%TD*%
D21*
%TO.C,R1*%
X143500000Y-70825000D03*
X143500000Y-69175000D03*
%TD*%
D26*
%TO.C,C13*%
X127525000Y-78500000D03*
X130475000Y-78500000D03*
%TD*%
D27*
%TO.C,D1*%
X140212500Y-68500000D03*
X141787500Y-68500000D03*
%TD*%
D28*
%TO.C,C7*%
X145550000Y-67500000D03*
X147450000Y-67500000D03*
%TD*%
D22*
%TO.C,R5*%
X135700000Y-92500000D03*
X137350000Y-92500000D03*
%TD*%
M02*
