%TF.GenerationSoftware,KiCad,Pcbnew,10.0.4*%
%TF.CreationDate,2026-07-25T22:44:44-04:00*%
%TF.ProjectId,FirstESPproject,46697273-7445-4535-9070-726f6a656374,rev?*%
%TF.SameCoordinates,Original*%
%TF.FileFunction,Copper,L3,Inr*%
%TF.FilePolarity,Positive*%
%FSLAX46Y46*%
G04 Gerber Fmt 4.6, Leading zero omitted, Abs format (unit mm)*
G04 Created by KiCad (PCBNEW 10.0.4) date 2026-07-25 22:44:44*
%MOMM*%
%LPD*%
G01*
G04 APERTURE LIST*
G04 Aperture macros list*
%AMRoundRect*
0 Rectangle with rounded corners*
0 $1 Rounding radius*
0 $2 $3 $4 $5 $6 $7 $8 $9 X,Y pos of 4 corners*
0 Add a 4 corners polygon primitive as box body*
4,1,4,$2,$3,$4,$5,$6,$7,$8,$9,$2,$3,0*
0 Add four circle primitives for the rounded corners*
1,1,$1+$1,$2,$3*
1,1,$1+$1,$4,$5*
1,1,$1+$1,$6,$7*
1,1,$1+$1,$8,$9*
0 Add four rect primitives between the rounded corners*
20,1,$1+$1,$2,$3,$4,$5,0*
20,1,$1+$1,$4,$5,$6,$7,0*
20,1,$1+$1,$6,$7,$8,$9,0*
20,1,$1+$1,$8,$9,$2,$3,0*%
G04 Aperture macros list end*
%TA.AperFunction,ComponentPad*%
%ADD10O,1.400000X0.800000*%
%TD*%
%TA.AperFunction,ComponentPad*%
%ADD11R,1.700000X1.700000*%
%TD*%
%TA.AperFunction,ComponentPad*%
%ADD12C,1.700000*%
%TD*%
%TA.AperFunction,ComponentPad*%
%ADD13RoundRect,0.250001X1.149999X1.149999X-1.149999X1.149999X-1.149999X-1.149999X1.149999X-1.149999X0*%
%TD*%
%TA.AperFunction,ComponentPad*%
%ADD14C,2.800000*%
%TD*%
%TA.AperFunction,ComponentPad*%
%ADD15RoundRect,0.250001X-1.149999X-1.149999X1.149999X-1.149999X1.149999X1.149999X-1.149999X1.149999X0*%
%TD*%
%TA.AperFunction,ComponentPad*%
%ADD16C,2.000000*%
%TD*%
%TA.AperFunction,ViaPad*%
%ADD17C,0.600000*%
%TD*%
G04 APERTURE END LIST*
D10*
%TO.N,Net-(J1-SHIELD)*%
%TO.C,J1*%
X125010000Y-89510000D03*
X130960000Y-89870000D03*
X130960000Y-98130000D03*
X125010000Y-98490000D03*
%TD*%
D11*
%TO.N,+3.3V*%
%TO.C,J4*%
X177500000Y-70900000D03*
D12*
%TO.N,GND*%
X177500000Y-73440000D03*
%TO.N,SCL_I2C*%
X177500000Y-75980000D03*
%TO.N,SDA_I2C*%
X177500000Y-78520000D03*
%TO.N,+3.3V*%
X177500000Y-81060000D03*
%TO.N,unconnected-(J4-Pin_6-Pad6)*%
X177500000Y-83600000D03*
%TD*%
D13*
%TO.N,+5V*%
%TO.C,J2*%
X133250000Y-72032500D03*
D14*
%TO.N,GND*%
X128250000Y-72032500D03*
%TD*%
D15*
%TO.N,Fan_PWM*%
%TO.C,J7*%
X151250000Y-92717500D03*
D14*
%TO.N,GND*%
X156250000Y-92717500D03*
%TD*%
D16*
%TO.N,GND*%
%TO.C,SW2*%
X142250000Y-105750000D03*
X148750000Y-105750000D03*
%TO.N,GPIO9_Boot*%
X142250000Y-110250000D03*
X148750000Y-110250000D03*
%TD*%
%TO.N,GND*%
%TO.C,SW1*%
X159000000Y-106000000D03*
X165500000Y-106000000D03*
%TO.N,CHIP_PU*%
X159000000Y-110500000D03*
X165500000Y-110500000D03*
%TD*%
D11*
%TO.N,+3.3V*%
%TO.C,J6*%
X182750000Y-96130000D03*
D12*
%TO.N,GPIO1*%
X180210000Y-96130000D03*
%TO.N,GPIO2*%
X182750000Y-98670000D03*
%TO.N,GPIO3*%
X180210000Y-98670000D03*
%TO.N,GPIO7*%
X182750000Y-101210000D03*
%TO.N,GPIO16*%
X180210000Y-101210000D03*
%TO.N,GPIO17*%
X182750000Y-103750000D03*
%TO.N,unconnected-(J6-Pin_8-Pad8)*%
X180210000Y-103750000D03*
%TO.N,GPIO15*%
X182750000Y-106290000D03*
%TO.N,GPIO11*%
X180210000Y-106290000D03*
%TO.N,GPIO10*%
X182750000Y-108830000D03*
%TO.N,GPIO9_Boot*%
X180210000Y-108830000D03*
%TO.N,GPIO8_Strapping*%
X182750000Y-111370000D03*
%TO.N,GND*%
X180210000Y-111370000D03*
%TD*%
D11*
%TO.N,+5V*%
%TO.C,J5*%
X125300000Y-82000000D03*
D12*
%TO.N,GND*%
X127840000Y-82000000D03*
%TO.N,Net-(J5-Pin_3)*%
X130380000Y-82000000D03*
%TO.N,MCU_TX_UART*%
X132920000Y-82000000D03*
%TO.N,MCU_RX_UART*%
X135460000Y-82000000D03*
%TO.N,Net-(J5-Pin_3)*%
X138000000Y-82000000D03*
%TO.N,unconnected-(J5-Pin_7-Pad7)*%
X140540000Y-82000000D03*
%TO.N,unconnected-(J5-Pin_8-Pad8)*%
X143080000Y-82000000D03*
%TD*%
D16*
%TO.N,GND*%
%TO.C,SW3*%
X127500000Y-106250000D03*
X134000000Y-106250000D03*
%TO.N,GPIO0_Interrupt*%
X127500000Y-110750000D03*
X134000000Y-110750000D03*
%TD*%
D11*
%TO.N,CS_SPI*%
%TO.C,J3*%
X177040000Y-89750000D03*
D12*
%TO.N,MOSI_SPI*%
X174500000Y-89750000D03*
%TO.N,+3.3V*%
X171960000Y-89750000D03*
%TO.N,SCK_SPI*%
X169420000Y-89750000D03*
%TO.N,GND*%
X166880000Y-89750000D03*
%TO.N,MISO_SPI*%
X164340000Y-89750000D03*
%TO.N,unconnected-(J3-Pin_7-Pad7)*%
X161800000Y-89750000D03*
%TD*%
D17*
%TO.N,SDA_I2C*%
X170000000Y-76500000D03*
X172020000Y-78520000D03*
%TO.N,CS_SPI*%
X170250000Y-83750000D03*
X172500000Y-83000000D03*
%TO.N,MISO_SPI*%
X167500000Y-81000000D03*
X165000000Y-80500000D03*
%TO.N,GPIO9_Boot*%
X166250000Y-84000000D03*
%TO.N,GND*%
X156349279Y-73259837D03*
X158500000Y-71000000D03*
X146000000Y-76500000D03*
X141438509Y-96564960D03*
X158492941Y-75364523D03*
X157284695Y-70999249D03*
X159805121Y-70960273D03*
X135350000Y-98500000D03*
X137500000Y-72000000D03*
X129350000Y-101500000D03*
X140000000Y-76500000D03*
X159805121Y-75338539D03*
X139000000Y-68500000D03*
X136850000Y-100500000D03*
X145500000Y-84000000D03*
X135350000Y-91000000D03*
X149500000Y-67500000D03*
X170500000Y-67500000D03*
X138350000Y-92500000D03*
X157245719Y-75351531D03*
X160662586Y-73220862D03*
X132000000Y-78500000D03*
X137000000Y-94500000D03*
X143250000Y-86750000D03*
X142000000Y-75000000D03*
%TO.N,USB_D+*%
X141500000Y-92000000D03*
X149750000Y-84250000D03*
X138350000Y-94175000D03*
X129111413Y-87500000D03*
%TO.N,USB_D-*%
X149000000Y-84250000D03*
X129844656Y-87852148D03*
X142000000Y-92750000D03*
X139120190Y-94270190D03*
%TO.N,+3.3V*%
X163500000Y-101500000D03*
X144000000Y-67500000D03*
X144500000Y-72000000D03*
X135500000Y-85000000D03*
%TO.N,CHIP_PU*%
X145250000Y-73500000D03*
X145250000Y-82250000D03*
%TO.N,GPIO2*%
X170750000Y-68750000D03*
%TO.N,GPIO3*%
X170250000Y-70000000D03*
%TO.N,GPIO7*%
X161000000Y-84500000D03*
X172250000Y-94000000D03*
%TO.N,GPIO16*%
X173250000Y-68000000D03*
%TO.N,GPIO17*%
X175250000Y-67750000D03*
%TO.N,GPIO11*%
X162000000Y-100250000D03*
X157250000Y-100250000D03*
%TO.N,GPIO10*%
X173000000Y-112500000D03*
X160000000Y-98750000D03*
X172750000Y-105000000D03*
X173000000Y-107750000D03*
X157500000Y-98750000D03*
%TO.N,MCU_RX_UART*%
X146000000Y-79000000D03*
X149000000Y-71500000D03*
%TO.N,GPIO0_Interrupt*%
X153750000Y-76000000D03*
%TD*%
%TA.AperFunction,Conductor*%
%TO.N,+3.3V*%
G36*
X170213045Y-66059685D02*
G01*
X170258800Y-66112489D01*
X170260567Y-66116547D01*
X170287636Y-66181897D01*
X170358103Y-66252364D01*
X170450172Y-66290500D01*
X182955830Y-66290500D01*
X182997294Y-66290500D01*
X183002702Y-66290618D01*
X183015967Y-66291197D01*
X183408558Y-66308337D01*
X183419293Y-66309277D01*
X183819386Y-66361950D01*
X183830010Y-66363823D01*
X184223993Y-66451167D01*
X184234405Y-66453956D01*
X184619279Y-66575307D01*
X184629414Y-66578996D01*
X185002232Y-66733423D01*
X185012024Y-66737989D01*
X185281388Y-66878211D01*
X185369942Y-66924309D01*
X185379310Y-66929717D01*
X185719638Y-67146530D01*
X185728499Y-67152735D01*
X186048627Y-67398378D01*
X186056914Y-67405332D01*
X186354412Y-67677938D01*
X186362061Y-67685587D01*
X186634667Y-67983085D01*
X186641621Y-67991372D01*
X186887264Y-68311500D01*
X186893469Y-68320361D01*
X187110282Y-68660689D01*
X187115690Y-68670057D01*
X187302007Y-69027969D01*
X187306579Y-69037773D01*
X187460997Y-69410570D01*
X187464696Y-69420733D01*
X187573717Y-69766503D01*
X187586037Y-69805575D01*
X187588837Y-69816025D01*
X187676173Y-70209977D01*
X187678051Y-70220629D01*
X187679744Y-70233489D01*
X187728071Y-70600566D01*
X187730720Y-70620683D01*
X187731663Y-70631460D01*
X187747324Y-70990172D01*
X187749382Y-71037297D01*
X187749500Y-71042706D01*
X187749500Y-111997293D01*
X187749382Y-112002702D01*
X187731663Y-112408539D01*
X187730720Y-112419316D01*
X187678051Y-112819370D01*
X187676173Y-112830022D01*
X187588837Y-113223974D01*
X187586037Y-113234424D01*
X187464697Y-113619264D01*
X187460997Y-113629429D01*
X187306579Y-114002226D01*
X187302007Y-114012030D01*
X187115690Y-114369942D01*
X187110282Y-114379310D01*
X186893469Y-114719638D01*
X186887264Y-114728499D01*
X186641621Y-115048627D01*
X186634667Y-115056914D01*
X186362061Y-115354412D01*
X186354412Y-115362061D01*
X186056914Y-115634667D01*
X186048627Y-115641621D01*
X185728499Y-115887264D01*
X185719638Y-115893469D01*
X185379310Y-116110282D01*
X185369942Y-116115690D01*
X185012030Y-116302007D01*
X185002226Y-116306579D01*
X184629429Y-116460997D01*
X184619264Y-116464697D01*
X184234424Y-116586037D01*
X184223974Y-116588837D01*
X183830022Y-116676173D01*
X183819370Y-116678051D01*
X183419316Y-116730720D01*
X183408539Y-116731663D01*
X183002703Y-116749382D01*
X182997294Y-116749500D01*
X127002706Y-116749500D01*
X126997297Y-116749382D01*
X126591460Y-116731663D01*
X126580685Y-116730720D01*
X126380656Y-116704385D01*
X126180629Y-116678051D01*
X126169977Y-116676173D01*
X125915393Y-116619733D01*
X125776022Y-116588836D01*
X125765579Y-116586038D01*
X125380733Y-116464696D01*
X125370570Y-116460997D01*
X124997773Y-116306579D01*
X124987969Y-116302007D01*
X124630057Y-116115690D01*
X124620689Y-116110282D01*
X124280361Y-115893469D01*
X124271500Y-115887264D01*
X123951372Y-115641621D01*
X123943085Y-115634667D01*
X123645587Y-115362061D01*
X123637938Y-115354412D01*
X123365332Y-115056914D01*
X123358378Y-115048627D01*
X123112735Y-114728499D01*
X123106530Y-114719638D01*
X122889717Y-114379310D01*
X122884309Y-114369942D01*
X122697992Y-114012030D01*
X122693420Y-114002226D01*
X122655314Y-113910230D01*
X122538996Y-113629414D01*
X122535307Y-113619279D01*
X122413956Y-113234405D01*
X122411167Y-113223993D01*
X122323823Y-112830010D01*
X122321950Y-112819386D01*
X122269521Y-112421153D01*
X172199500Y-112421153D01*
X172199500Y-112578846D01*
X172230261Y-112733489D01*
X172230264Y-112733501D01*
X172290602Y-112879172D01*
X172290609Y-112879185D01*
X172378210Y-113010288D01*
X172378213Y-113010292D01*
X172489707Y-113121786D01*
X172489711Y-113121789D01*
X172620814Y-113209390D01*
X172620827Y-113209397D01*
X172766498Y-113269735D01*
X172766503Y-113269737D01*
X172921153Y-113300499D01*
X172921156Y-113300500D01*
X172921158Y-113300500D01*
X173078844Y-113300500D01*
X173078845Y-113300499D01*
X173233497Y-113269737D01*
X173379179Y-113209394D01*
X173510289Y-113121789D01*
X173621789Y-113010289D01*
X173709394Y-112879179D01*
X173769737Y-112733497D01*
X173800500Y-112578842D01*
X173800500Y-112421158D01*
X173800500Y-112421155D01*
X173800499Y-112421153D01*
X173769738Y-112266510D01*
X173769737Y-112266503D01*
X173769735Y-112266498D01*
X173709397Y-112120827D01*
X173709390Y-112120814D01*
X173621789Y-111989711D01*
X173621786Y-111989707D01*
X173510292Y-111878213D01*
X173510288Y-111878210D01*
X173379185Y-111790609D01*
X173379172Y-111790602D01*
X173233501Y-111730264D01*
X173233489Y-111730261D01*
X173078845Y-111699500D01*
X173078842Y-111699500D01*
X172921158Y-111699500D01*
X172921155Y-111699500D01*
X172766510Y-111730261D01*
X172766498Y-111730264D01*
X172620827Y-111790602D01*
X172620814Y-111790609D01*
X172489711Y-111878210D01*
X172489707Y-111878213D01*
X172378213Y-111989707D01*
X172378210Y-111989711D01*
X172290609Y-112120814D01*
X172290602Y-112120827D01*
X172230264Y-112266498D01*
X172230261Y-112266510D01*
X172199500Y-112421153D01*
X122269521Y-112421153D01*
X122269275Y-112419281D01*
X122268337Y-112408558D01*
X122250618Y-112002701D01*
X122250500Y-111997293D01*
X122250500Y-110631902D01*
X125999500Y-110631902D01*
X125999500Y-110868097D01*
X126036446Y-111101368D01*
X126109433Y-111325996D01*
X126186635Y-111477512D01*
X126216657Y-111536433D01*
X126355483Y-111727510D01*
X126522490Y-111894517D01*
X126713567Y-112033343D01*
X126783658Y-112069056D01*
X126924003Y-112140566D01*
X126924005Y-112140566D01*
X126924008Y-112140568D01*
X127044412Y-112179689D01*
X127148631Y-112213553D01*
X127381903Y-112250500D01*
X127381908Y-112250500D01*
X127618097Y-112250500D01*
X127851368Y-112213553D01*
X128075992Y-112140568D01*
X128286433Y-112033343D01*
X128477510Y-111894517D01*
X128644517Y-111727510D01*
X128783343Y-111536433D01*
X128890568Y-111325992D01*
X128963553Y-111101368D01*
X129000500Y-110868097D01*
X129000500Y-110631902D01*
X132499500Y-110631902D01*
X132499500Y-110868097D01*
X132536446Y-111101368D01*
X132609433Y-111325996D01*
X132686635Y-111477512D01*
X132716657Y-111536433D01*
X132855483Y-111727510D01*
X133022490Y-111894517D01*
X133213567Y-112033343D01*
X133283658Y-112069056D01*
X133424003Y-112140566D01*
X133424005Y-112140566D01*
X133424008Y-112140568D01*
X133544412Y-112179689D01*
X133648631Y-112213553D01*
X133881903Y-112250500D01*
X133881908Y-112250500D01*
X134118097Y-112250500D01*
X134351368Y-112213553D01*
X134575992Y-112140568D01*
X134786433Y-112033343D01*
X134977510Y-111894517D01*
X135144517Y-111727510D01*
X135283343Y-111536433D01*
X135390568Y-111325992D01*
X135463553Y-111101368D01*
X135500500Y-110868097D01*
X135500500Y-110631902D01*
X135463553Y-110398631D01*
X135403871Y-110214951D01*
X135390568Y-110174008D01*
X135390566Y-110174005D01*
X135390566Y-110174003D01*
X135369114Y-110131902D01*
X140749500Y-110131902D01*
X140749500Y-110368097D01*
X140786446Y-110601368D01*
X140859433Y-110825996D01*
X140966657Y-111036433D01*
X141105483Y-111227510D01*
X141272490Y-111394517D01*
X141463567Y-111533343D01*
X141562991Y-111584002D01*
X141674003Y-111640566D01*
X141674005Y-111640566D01*
X141674008Y-111640568D01*
X141794412Y-111679689D01*
X141898631Y-111713553D01*
X142131903Y-111750500D01*
X142131908Y-111750500D01*
X142368097Y-111750500D01*
X142601368Y-111713553D01*
X142825992Y-111640568D01*
X143036433Y-111533343D01*
X143227510Y-111394517D01*
X143394517Y-111227510D01*
X143533343Y-111036433D01*
X143640568Y-110825992D01*
X143713553Y-110601368D01*
X143731159Y-110490208D01*
X143750500Y-110368097D01*
X143750500Y-110131902D01*
X147249500Y-110131902D01*
X147249500Y-110368097D01*
X147286446Y-110601368D01*
X147359433Y-110825996D01*
X147466657Y-111036433D01*
X147605483Y-111227510D01*
X147772490Y-111394517D01*
X147963567Y-111533343D01*
X148062991Y-111584002D01*
X148174003Y-111640566D01*
X148174005Y-111640566D01*
X148174008Y-111640568D01*
X148294412Y-111679689D01*
X148398631Y-111713553D01*
X148631903Y-111750500D01*
X148631908Y-111750500D01*
X148868097Y-111750500D01*
X149101368Y-111713553D01*
X149325992Y-111640568D01*
X149536433Y-111533343D01*
X149727510Y-111394517D01*
X149894517Y-111227510D01*
X150033343Y-111036433D01*
X150140568Y-110825992D01*
X150213553Y-110601368D01*
X150248313Y-110381902D01*
X157499500Y-110381902D01*
X157499500Y-110618097D01*
X157536446Y-110851368D01*
X157609433Y-111075996D01*
X157716657Y-111286433D01*
X157855483Y-111477510D01*
X158022490Y-111644517D01*
X158213567Y-111783343D01*
X158308375Y-111831650D01*
X158424003Y-111890566D01*
X158424005Y-111890566D01*
X158424008Y-111890568D01*
X158544412Y-111929689D01*
X158648631Y-111963553D01*
X158881903Y-112000500D01*
X158881908Y-112000500D01*
X159118097Y-112000500D01*
X159351368Y-111963553D01*
X159375137Y-111955830D01*
X159575992Y-111890568D01*
X159786433Y-111783343D01*
X159977510Y-111644517D01*
X160144517Y-111477510D01*
X160283343Y-111286433D01*
X160390568Y-111075992D01*
X160463553Y-110851368D01*
X160500500Y-110618097D01*
X160500500Y-110381902D01*
X163999500Y-110381902D01*
X163999500Y-110618097D01*
X164036446Y-110851368D01*
X164109433Y-111075996D01*
X164216657Y-111286433D01*
X164355483Y-111477510D01*
X164522490Y-111644517D01*
X164713567Y-111783343D01*
X164808375Y-111831650D01*
X164924003Y-111890566D01*
X164924005Y-111890566D01*
X164924008Y-111890568D01*
X165044412Y-111929689D01*
X165148631Y-111963553D01*
X165381903Y-112000500D01*
X165381908Y-112000500D01*
X165618097Y-112000500D01*
X165851368Y-111963553D01*
X165875137Y-111955830D01*
X166075992Y-111890568D01*
X166286433Y-111783343D01*
X166477510Y-111644517D01*
X166644517Y-111477510D01*
X166783343Y-111286433D01*
X166890568Y-111075992D01*
X166963553Y-110851368D01*
X167000500Y-110618097D01*
X167000500Y-110381902D01*
X166963553Y-110148631D01*
X166910401Y-109985048D01*
X166890568Y-109924008D01*
X166890566Y-109924005D01*
X166890566Y-109924003D01*
X166783342Y-109713566D01*
X166780596Y-109709786D01*
X166644517Y-109522490D01*
X166477510Y-109355483D01*
X166286433Y-109216657D01*
X166075996Y-109109433D01*
X165851368Y-109036446D01*
X165618097Y-108999500D01*
X165618092Y-108999500D01*
X165381908Y-108999500D01*
X165381903Y-108999500D01*
X165148631Y-109036446D01*
X164924003Y-109109433D01*
X164713566Y-109216657D01*
X164610348Y-109291650D01*
X164522490Y-109355483D01*
X164522488Y-109355485D01*
X164522487Y-109355485D01*
X164355485Y-109522487D01*
X164355485Y-109522488D01*
X164355483Y-109522490D01*
X164295862Y-109604550D01*
X164216657Y-109713566D01*
X164109433Y-109924003D01*
X164036446Y-110148631D01*
X163999500Y-110381902D01*
X160500500Y-110381902D01*
X160463553Y-110148631D01*
X160410401Y-109985048D01*
X160390568Y-109924008D01*
X160390566Y-109924005D01*
X160390566Y-109924003D01*
X160283342Y-109713566D01*
X160280596Y-109709786D01*
X160144517Y-109522490D01*
X159977510Y-109355483D01*
X159786433Y-109216657D01*
X159575996Y-109109433D01*
X159351368Y-109036446D01*
X159118097Y-108999500D01*
X159118092Y-108999500D01*
X158881908Y-108999500D01*
X158881903Y-108999500D01*
X158648631Y-109036446D01*
X158424003Y-109109433D01*
X158213566Y-109216657D01*
X158110348Y-109291650D01*
X158022490Y-109355483D01*
X158022488Y-109355485D01*
X158022487Y-109355485D01*
X157855485Y-109522487D01*
X157855485Y-109522488D01*
X157855483Y-109522490D01*
X157795862Y-109604550D01*
X157716657Y-109713566D01*
X157609433Y-109924003D01*
X157536446Y-110148631D01*
X157499500Y-110381902D01*
X150248313Y-110381902D01*
X150250500Y-110368092D01*
X150250500Y-110131908D01*
X150250500Y-110131902D01*
X150213553Y-109898631D01*
X150172566Y-109772487D01*
X150140568Y-109674008D01*
X150140566Y-109674005D01*
X150140566Y-109674003D01*
X150063364Y-109522487D01*
X150033343Y-109463567D01*
X149894517Y-109272490D01*
X149727510Y-109105483D01*
X149536433Y-108966657D01*
X149325996Y-108859433D01*
X149101368Y-108786446D01*
X148868097Y-108749500D01*
X148868092Y-108749500D01*
X148631908Y-108749500D01*
X148631903Y-108749500D01*
X148398631Y-108786446D01*
X148174003Y-108859433D01*
X147963566Y-108966657D01*
X147854550Y-109045862D01*
X147772490Y-109105483D01*
X147772488Y-109105485D01*
X147772487Y-109105485D01*
X147605485Y-109272487D01*
X147605485Y-109272488D01*
X147605483Y-109272490D01*
X147550322Y-109348412D01*
X147466657Y-109463566D01*
X147359433Y-109674003D01*
X147286446Y-109898631D01*
X147249500Y-110131902D01*
X143750500Y-110131902D01*
X143713553Y-109898631D01*
X143672566Y-109772487D01*
X143640568Y-109674008D01*
X143640566Y-109674005D01*
X143640566Y-109674003D01*
X143563364Y-109522487D01*
X143533343Y-109463567D01*
X143394517Y-109272490D01*
X143227510Y-109105483D01*
X143036433Y-108966657D01*
X142825996Y-108859433D01*
X142601368Y-108786446D01*
X142368097Y-108749500D01*
X142368092Y-108749500D01*
X142131908Y-108749500D01*
X142131903Y-108749500D01*
X141898631Y-108786446D01*
X141674003Y-108859433D01*
X141463566Y-108966657D01*
X141354550Y-109045862D01*
X141272490Y-109105483D01*
X141272488Y-109105485D01*
X141272487Y-109105485D01*
X141105485Y-109272487D01*
X141105485Y-109272488D01*
X141105483Y-109272490D01*
X141050322Y-109348412D01*
X140966657Y-109463566D01*
X140859433Y-109674003D01*
X140786446Y-109898631D01*
X140749500Y-110131902D01*
X135369114Y-110131902D01*
X135321009Y-110037491D01*
X135283343Y-109963567D01*
X135144517Y-109772490D01*
X134977510Y-109605483D01*
X134786433Y-109466657D01*
X134776239Y-109461463D01*
X134575996Y-109359433D01*
X134351368Y-109286446D01*
X134118097Y-109249500D01*
X134118092Y-109249500D01*
X133881908Y-109249500D01*
X133881903Y-109249500D01*
X133648631Y-109286446D01*
X133424003Y-109359433D01*
X133213566Y-109466657D01*
X133127682Y-109529056D01*
X133022490Y-109605483D01*
X133022488Y-109605485D01*
X133022487Y-109605485D01*
X132855485Y-109772487D01*
X132855485Y-109772488D01*
X132855483Y-109772490D01*
X132795862Y-109854550D01*
X132716657Y-109963566D01*
X132609433Y-110174003D01*
X132536446Y-110398631D01*
X132499500Y-110631902D01*
X129000500Y-110631902D01*
X128963553Y-110398631D01*
X128903871Y-110214951D01*
X128890568Y-110174008D01*
X128890566Y-110174005D01*
X128890566Y-110174003D01*
X128821009Y-110037491D01*
X128783343Y-109963567D01*
X128644517Y-109772490D01*
X128477510Y-109605483D01*
X128286433Y-109466657D01*
X128276239Y-109461463D01*
X128075996Y-109359433D01*
X127851368Y-109286446D01*
X127618097Y-109249500D01*
X127618092Y-109249500D01*
X127381908Y-109249500D01*
X127381903Y-109249500D01*
X127148631Y-109286446D01*
X126924003Y-109359433D01*
X126713566Y-109466657D01*
X126627682Y-109529056D01*
X126522490Y-109605483D01*
X126522488Y-109605485D01*
X126522487Y-109605485D01*
X126355485Y-109772487D01*
X126355485Y-109772488D01*
X126355483Y-109772490D01*
X126295862Y-109854550D01*
X126216657Y-109963566D01*
X126109433Y-110174003D01*
X126036446Y-110398631D01*
X125999500Y-110631902D01*
X122250500Y-110631902D01*
X122250500Y-106131902D01*
X125999500Y-106131902D01*
X125999500Y-106368097D01*
X126036446Y-106601368D01*
X126109433Y-106825996D01*
X126196983Y-106997820D01*
X126216657Y-107036433D01*
X126355483Y-107227510D01*
X126522490Y-107394517D01*
X126713567Y-107533343D01*
X126776310Y-107565312D01*
X126924003Y-107640566D01*
X126924005Y-107640566D01*
X126924008Y-107640568D01*
X127029828Y-107674951D01*
X127148631Y-107713553D01*
X127381903Y-107750500D01*
X127381908Y-107750500D01*
X127618097Y-107750500D01*
X127851368Y-107713553D01*
X128075992Y-107640568D01*
X128286433Y-107533343D01*
X128477510Y-107394517D01*
X128644517Y-107227510D01*
X128783343Y-107036433D01*
X128890568Y-106825992D01*
X128963553Y-106601368D01*
X129000500Y-106368097D01*
X129000500Y-106131902D01*
X132499500Y-106131902D01*
X132499500Y-106368097D01*
X132536446Y-106601368D01*
X132609433Y-106825996D01*
X132696983Y-106997820D01*
X132716657Y-107036433D01*
X132855483Y-107227510D01*
X133022490Y-107394517D01*
X133213567Y-107533343D01*
X133276310Y-107565312D01*
X133424003Y-107640566D01*
X133424005Y-107640566D01*
X133424008Y-107640568D01*
X133529828Y-107674951D01*
X133648631Y-107713553D01*
X133881903Y-107750500D01*
X133881908Y-107750500D01*
X134118097Y-107750500D01*
X134351368Y-107713553D01*
X134481861Y-107671153D01*
X172199500Y-107671153D01*
X172199500Y-107828846D01*
X172230261Y-107983489D01*
X172230264Y-107983501D01*
X172290602Y-108129172D01*
X172290609Y-108129185D01*
X172378210Y-108260288D01*
X172378213Y-108260292D01*
X172489707Y-108371786D01*
X172489711Y-108371789D01*
X172620814Y-108459390D01*
X172620827Y-108459397D01*
X172752066Y-108513757D01*
X172766503Y-108519737D01*
X172921153Y-108550499D01*
X172921156Y-108550500D01*
X172921158Y-108550500D01*
X173078844Y-108550500D01*
X173078845Y-108550499D01*
X173233497Y-108519737D01*
X173379179Y-108459394D01*
X173510289Y-108371789D01*
X173621789Y-108260289D01*
X173709394Y-108129179D01*
X173712294Y-108122179D01*
X173769735Y-107983501D01*
X173769737Y-107983497D01*
X173800500Y-107828842D01*
X173800500Y-107671158D01*
X173800500Y-107671155D01*
X173800499Y-107671153D01*
X173790824Y-107622512D01*
X173769737Y-107516503D01*
X173769735Y-107516498D01*
X173709397Y-107370827D01*
X173709390Y-107370814D01*
X173621789Y-107239711D01*
X173621786Y-107239707D01*
X173510292Y-107128213D01*
X173510288Y-107128210D01*
X173379185Y-107040609D01*
X173379172Y-107040602D01*
X173233501Y-106980264D01*
X173233489Y-106980261D01*
X173078845Y-106949500D01*
X173078842Y-106949500D01*
X172921158Y-106949500D01*
X172921155Y-106949500D01*
X172766510Y-106980261D01*
X172766498Y-106980264D01*
X172620827Y-107040602D01*
X172620814Y-107040609D01*
X172489711Y-107128210D01*
X172489707Y-107128213D01*
X172378213Y-107239707D01*
X172378210Y-107239711D01*
X172290609Y-107370814D01*
X172290602Y-107370827D01*
X172230264Y-107516498D01*
X172230261Y-107516510D01*
X172199500Y-107671153D01*
X134481861Y-107671153D01*
X134575992Y-107640568D01*
X134786433Y-107533343D01*
X134977510Y-107394517D01*
X135144517Y-107227510D01*
X135283343Y-107036433D01*
X135390568Y-106825992D01*
X135463553Y-106601368D01*
X135500500Y-106368097D01*
X135500500Y-106131902D01*
X135463553Y-105898631D01*
X135421672Y-105769735D01*
X135390568Y-105674008D01*
X135390566Y-105674005D01*
X135390566Y-105674003D01*
X135369114Y-105631902D01*
X140749500Y-105631902D01*
X140749500Y-105868097D01*
X140786446Y-106101368D01*
X140859433Y-106325996D01*
X140966657Y-106536433D01*
X141105483Y-106727510D01*
X141272490Y-106894517D01*
X141463567Y-107033343D01*
X141562991Y-107084002D01*
X141674003Y-107140566D01*
X141674005Y-107140566D01*
X141674008Y-107140568D01*
X141763950Y-107169792D01*
X141898631Y-107213553D01*
X142131903Y-107250500D01*
X142131908Y-107250500D01*
X142368097Y-107250500D01*
X142601368Y-107213553D01*
X142825992Y-107140568D01*
X143036433Y-107033343D01*
X143227510Y-106894517D01*
X143394517Y-106727510D01*
X143533343Y-106536433D01*
X143640568Y-106325992D01*
X143713553Y-106101368D01*
X143733764Y-105973760D01*
X143750500Y-105868097D01*
X143750500Y-105631902D01*
X147249500Y-105631902D01*
X147249500Y-105868097D01*
X147286446Y-106101368D01*
X147359433Y-106325996D01*
X147466657Y-106536433D01*
X147605483Y-106727510D01*
X147772490Y-106894517D01*
X147963567Y-107033343D01*
X148062991Y-107084002D01*
X148174003Y-107140566D01*
X148174005Y-107140566D01*
X148174008Y-107140568D01*
X148263950Y-107169792D01*
X148398631Y-107213553D01*
X148631903Y-107250500D01*
X148631908Y-107250500D01*
X148868097Y-107250500D01*
X149101368Y-107213553D01*
X149325992Y-107140568D01*
X149536433Y-107033343D01*
X149727510Y-106894517D01*
X149894517Y-106727510D01*
X150033343Y-106536433D01*
X150140568Y-106325992D01*
X150213553Y-106101368D01*
X150248313Y-105881902D01*
X157499500Y-105881902D01*
X157499500Y-106118097D01*
X157536446Y-106351368D01*
X157609433Y-106575996D01*
X157686635Y-106727512D01*
X157716657Y-106786433D01*
X157855483Y-106977510D01*
X158022490Y-107144517D01*
X158213567Y-107283343D01*
X158312991Y-107334002D01*
X158424003Y-107390566D01*
X158424005Y-107390566D01*
X158424008Y-107390568D01*
X158544412Y-107429689D01*
X158648631Y-107463553D01*
X158881903Y-107500500D01*
X158881908Y-107500500D01*
X159118097Y-107500500D01*
X159351368Y-107463553D01*
X159408320Y-107445048D01*
X159575992Y-107390568D01*
X159786433Y-107283343D01*
X159977510Y-107144517D01*
X160144517Y-106977510D01*
X160283343Y-106786433D01*
X160390568Y-106575992D01*
X160463553Y-106351368D01*
X160500500Y-106118097D01*
X160500500Y-105881902D01*
X163999500Y-105881902D01*
X163999500Y-106118097D01*
X164036446Y-106351368D01*
X164109433Y-106575996D01*
X164186635Y-106727512D01*
X164216657Y-106786433D01*
X164355483Y-106977510D01*
X164522490Y-107144517D01*
X164713567Y-107283343D01*
X164812991Y-107334002D01*
X164924003Y-107390566D01*
X164924005Y-107390566D01*
X164924008Y-107390568D01*
X165044412Y-107429689D01*
X165148631Y-107463553D01*
X165381903Y-107500500D01*
X165381908Y-107500500D01*
X165618097Y-107500500D01*
X165851368Y-107463553D01*
X165908320Y-107445048D01*
X166075992Y-107390568D01*
X166286433Y-107283343D01*
X166477510Y-107144517D01*
X166644517Y-106977510D01*
X166783343Y-106786433D01*
X166890568Y-106575992D01*
X166963553Y-106351368D01*
X167000500Y-106118097D01*
X167000500Y-105881902D01*
X166963553Y-105648631D01*
X166918602Y-105510288D01*
X166890568Y-105424008D01*
X166890566Y-105424005D01*
X166890566Y-105424003D01*
X166806949Y-105259896D01*
X166783343Y-105213567D01*
X166644517Y-105022490D01*
X166543180Y-104921153D01*
X171949500Y-104921153D01*
X171949500Y-105078846D01*
X171980261Y-105233489D01*
X171980264Y-105233501D01*
X172040602Y-105379172D01*
X172040609Y-105379185D01*
X172128210Y-105510288D01*
X172128213Y-105510292D01*
X172239707Y-105621786D01*
X172239711Y-105621789D01*
X172370814Y-105709390D01*
X172370827Y-105709397D01*
X172516498Y-105769735D01*
X172516503Y-105769737D01*
X172671153Y-105800499D01*
X172671156Y-105800500D01*
X172671158Y-105800500D01*
X172828844Y-105800500D01*
X172828845Y-105800499D01*
X172983497Y-105769737D01*
X173129179Y-105709394D01*
X173260289Y-105621789D01*
X173371789Y-105510289D01*
X173459394Y-105379179D01*
X173519737Y-105233497D01*
X173550500Y-105078842D01*
X173550500Y-104921158D01*
X173550500Y-104921155D01*
X173550499Y-104921153D01*
X173547296Y-104905050D01*
X173519737Y-104766503D01*
X173463110Y-104629792D01*
X173459397Y-104620827D01*
X173459390Y-104620814D01*
X173371789Y-104489711D01*
X173371786Y-104489707D01*
X173260292Y-104378213D01*
X173260288Y-104378210D01*
X173129185Y-104290609D01*
X173129172Y-104290602D01*
X172983501Y-104230264D01*
X172983489Y-104230261D01*
X172828845Y-104199500D01*
X172828842Y-104199500D01*
X172671158Y-104199500D01*
X172671155Y-104199500D01*
X172516510Y-104230261D01*
X172516498Y-104230264D01*
X172370827Y-104290602D01*
X172370814Y-104290609D01*
X172239711Y-104378210D01*
X172239707Y-104378213D01*
X172128213Y-104489707D01*
X172128210Y-104489711D01*
X172040609Y-104620814D01*
X172040602Y-104620827D01*
X171980264Y-104766498D01*
X171980261Y-104766510D01*
X171949500Y-104921153D01*
X166543180Y-104921153D01*
X166477510Y-104855483D01*
X166286433Y-104716657D01*
X166075996Y-104609433D01*
X165851368Y-104536446D01*
X165618097Y-104499500D01*
X165618092Y-104499500D01*
X165381908Y-104499500D01*
X165381903Y-104499500D01*
X165148631Y-104536446D01*
X164924003Y-104609433D01*
X164713566Y-104716657D01*
X164604550Y-104795862D01*
X164522490Y-104855483D01*
X164522488Y-104855485D01*
X164522487Y-104855485D01*
X164355485Y-105022487D01*
X164355485Y-105022488D01*
X164355483Y-105022490D01*
X164314541Y-105078842D01*
X164216657Y-105213566D01*
X164109433Y-105424003D01*
X164036446Y-105648631D01*
X163999500Y-105881902D01*
X160500500Y-105881902D01*
X160463553Y-105648631D01*
X160418602Y-105510288D01*
X160390568Y-105424008D01*
X160390566Y-105424005D01*
X160390566Y-105424003D01*
X160306949Y-105259896D01*
X160283343Y-105213567D01*
X160144517Y-105022490D01*
X159977510Y-104855483D01*
X159786433Y-104716657D01*
X159575996Y-104609433D01*
X159351368Y-104536446D01*
X159118097Y-104499500D01*
X159118092Y-104499500D01*
X158881908Y-104499500D01*
X158881903Y-104499500D01*
X158648631Y-104536446D01*
X158424003Y-104609433D01*
X158213566Y-104716657D01*
X158104550Y-104795862D01*
X158022490Y-104855483D01*
X158022488Y-104855485D01*
X158022487Y-104855485D01*
X157855485Y-105022487D01*
X157855485Y-105022488D01*
X157855483Y-105022490D01*
X157814541Y-105078842D01*
X157716657Y-105213566D01*
X157609433Y-105424003D01*
X157536446Y-105648631D01*
X157499500Y-105881902D01*
X150248313Y-105881902D01*
X150250500Y-105868092D01*
X150250500Y-105631908D01*
X150250500Y-105631902D01*
X150213553Y-105398631D01*
X150168473Y-105259890D01*
X150140568Y-105174008D01*
X150140566Y-105174005D01*
X150140566Y-105174003D01*
X150071494Y-105038443D01*
X150033343Y-104963567D01*
X149894517Y-104772490D01*
X149727510Y-104605483D01*
X149536433Y-104466657D01*
X149325996Y-104359433D01*
X149101368Y-104286446D01*
X148868097Y-104249500D01*
X148868092Y-104249500D01*
X148631908Y-104249500D01*
X148631903Y-104249500D01*
X148398631Y-104286446D01*
X148174003Y-104359433D01*
X147963566Y-104466657D01*
X147854550Y-104545862D01*
X147772490Y-104605483D01*
X147772488Y-104605485D01*
X147772487Y-104605485D01*
X147605485Y-104772487D01*
X147605485Y-104772488D01*
X147605483Y-104772490D01*
X147595343Y-104786447D01*
X147466657Y-104963566D01*
X147359433Y-105174003D01*
X147286446Y-105398631D01*
X147249500Y-105631902D01*
X143750500Y-105631902D01*
X143713553Y-105398631D01*
X143668473Y-105259890D01*
X143640568Y-105174008D01*
X143640566Y-105174005D01*
X143640566Y-105174003D01*
X143571494Y-105038443D01*
X143533343Y-104963567D01*
X143394517Y-104772490D01*
X143227510Y-104605483D01*
X143036433Y-104466657D01*
X142825996Y-104359433D01*
X142601368Y-104286446D01*
X142368097Y-104249500D01*
X142368092Y-104249500D01*
X142131908Y-104249500D01*
X142131903Y-104249500D01*
X141898631Y-104286446D01*
X141674003Y-104359433D01*
X141463566Y-104466657D01*
X141354550Y-104545862D01*
X141272490Y-104605483D01*
X141272488Y-104605485D01*
X141272487Y-104605485D01*
X141105485Y-104772487D01*
X141105485Y-104772488D01*
X141105483Y-104772490D01*
X141095343Y-104786447D01*
X140966657Y-104963566D01*
X140859433Y-105174003D01*
X140786446Y-105398631D01*
X140749500Y-105631902D01*
X135369114Y-105631902D01*
X135334002Y-105562991D01*
X135283343Y-105463567D01*
X135144517Y-105272490D01*
X134977510Y-105105483D01*
X134786433Y-104966657D01*
X134750908Y-104948556D01*
X134575996Y-104859433D01*
X134351368Y-104786446D01*
X134118097Y-104749500D01*
X134118092Y-104749500D01*
X133881908Y-104749500D01*
X133881903Y-104749500D01*
X133648631Y-104786446D01*
X133424003Y-104859433D01*
X133213566Y-104966657D01*
X133114762Y-105038443D01*
X133022490Y-105105483D01*
X133022488Y-105105485D01*
X133022487Y-105105485D01*
X132855485Y-105272487D01*
X132855485Y-105272488D01*
X132855483Y-105272490D01*
X132795862Y-105354550D01*
X132716657Y-105463566D01*
X132609433Y-105674003D01*
X132536446Y-105898631D01*
X132499500Y-106131902D01*
X129000500Y-106131902D01*
X128963553Y-105898631D01*
X128921672Y-105769735D01*
X128890568Y-105674008D01*
X128890566Y-105674005D01*
X128890566Y-105674003D01*
X128834002Y-105562991D01*
X128783343Y-105463567D01*
X128644517Y-105272490D01*
X128477510Y-105105483D01*
X128286433Y-104966657D01*
X128250908Y-104948556D01*
X128075996Y-104859433D01*
X127851368Y-104786446D01*
X127618097Y-104749500D01*
X127618092Y-104749500D01*
X127381908Y-104749500D01*
X127381903Y-104749500D01*
X127148631Y-104786446D01*
X126924003Y-104859433D01*
X126713566Y-104966657D01*
X126614762Y-105038443D01*
X126522490Y-105105483D01*
X126522488Y-105105485D01*
X126522487Y-105105485D01*
X126355485Y-105272487D01*
X126355485Y-105272488D01*
X126355483Y-105272490D01*
X126295862Y-105354550D01*
X126216657Y-105463566D01*
X126109433Y-105674003D01*
X126036446Y-105898631D01*
X125999500Y-106131902D01*
X122250500Y-106131902D01*
X122250500Y-100624000D01*
X122270185Y-100556961D01*
X122322989Y-100511206D01*
X122374500Y-100500000D01*
X129049017Y-100500000D01*
X129116056Y-100519685D01*
X129161811Y-100572489D01*
X129171755Y-100641647D01*
X129142730Y-100705203D01*
X129096469Y-100738561D01*
X128970827Y-100790602D01*
X128970814Y-100790609D01*
X128839711Y-100878210D01*
X128839707Y-100878213D01*
X128728213Y-100989707D01*
X128728210Y-100989711D01*
X128640609Y-101120814D01*
X128640602Y-101120827D01*
X128580264Y-101266498D01*
X128580261Y-101266510D01*
X128549500Y-101421153D01*
X128549500Y-101578846D01*
X128580261Y-101733489D01*
X128580264Y-101733501D01*
X128640602Y-101879172D01*
X128640609Y-101879185D01*
X128728210Y-102010288D01*
X128728213Y-102010292D01*
X128839707Y-102121786D01*
X128839711Y-102121789D01*
X128970814Y-102209390D01*
X128970827Y-102209397D01*
X129116498Y-102269735D01*
X129116503Y-102269737D01*
X129271153Y-102300499D01*
X129271156Y-102300500D01*
X129271158Y-102300500D01*
X129428844Y-102300500D01*
X129428845Y-102300499D01*
X129583497Y-102269737D01*
X129729179Y-102209394D01*
X129860289Y-102121789D01*
X129971789Y-102010289D01*
X130059394Y-101879179D01*
X130119737Y-101733497D01*
X130150500Y-101578842D01*
X130150500Y-101421158D01*
X130150500Y-101421155D01*
X130150499Y-101421153D01*
X130119737Y-101266503D01*
X130059794Y-101121786D01*
X130059397Y-101120827D01*
X130059390Y-101120814D01*
X129971789Y-100989711D01*
X129971786Y-100989707D01*
X129860292Y-100878213D01*
X129860288Y-100878210D01*
X129729185Y-100790609D01*
X129729172Y-100790602D01*
X129603531Y-100738561D01*
X129549127Y-100694720D01*
X129527062Y-100628426D01*
X129544341Y-100560727D01*
X129595478Y-100513116D01*
X129650983Y-100500000D01*
X134829826Y-100500000D01*
X134829826Y-100421153D01*
X136049500Y-100421153D01*
X136049500Y-100578846D01*
X136080261Y-100733489D01*
X136080264Y-100733501D01*
X136140602Y-100879172D01*
X136140609Y-100879185D01*
X136228210Y-101010288D01*
X136228213Y-101010292D01*
X136339707Y-101121786D01*
X136339711Y-101121789D01*
X136470814Y-101209390D01*
X136470827Y-101209397D01*
X136608683Y-101266498D01*
X136616503Y-101269737D01*
X136771153Y-101300499D01*
X136771156Y-101300500D01*
X136771158Y-101300500D01*
X136928844Y-101300500D01*
X136928845Y-101300499D01*
X137083497Y-101269737D01*
X137229179Y-101209394D01*
X137360289Y-101121789D01*
X137471789Y-101010289D01*
X137559394Y-100879179D01*
X137619737Y-100733497D01*
X137650500Y-100578842D01*
X137650500Y-100421158D01*
X137650500Y-100421155D01*
X137650499Y-100421153D01*
X137619738Y-100266510D01*
X137619737Y-100266503D01*
X137580242Y-100171153D01*
X156449500Y-100171153D01*
X156449500Y-100328846D01*
X156480261Y-100483489D01*
X156480264Y-100483501D01*
X156540602Y-100629172D01*
X156540609Y-100629185D01*
X156628210Y-100760288D01*
X156628213Y-100760292D01*
X156739707Y-100871786D01*
X156739711Y-100871789D01*
X156870814Y-100959390D01*
X156870827Y-100959397D01*
X157016498Y-101019735D01*
X157016503Y-101019737D01*
X157171153Y-101050499D01*
X157171156Y-101050500D01*
X157171158Y-101050500D01*
X157328844Y-101050500D01*
X157328845Y-101050499D01*
X157483497Y-101019737D01*
X157629179Y-100959394D01*
X157760289Y-100871789D01*
X157871789Y-100760289D01*
X157959394Y-100629179D01*
X158019737Y-100483497D01*
X158050500Y-100328842D01*
X158050500Y-100171158D01*
X158050500Y-100171155D01*
X158050499Y-100171153D01*
X161199500Y-100171153D01*
X161199500Y-100328846D01*
X161230261Y-100483489D01*
X161230264Y-100483501D01*
X161290602Y-100629172D01*
X161290609Y-100629185D01*
X161378210Y-100760288D01*
X161378213Y-100760292D01*
X161489707Y-100871786D01*
X161489711Y-100871789D01*
X161620814Y-100959390D01*
X161620827Y-100959397D01*
X161766498Y-101019735D01*
X161766503Y-101019737D01*
X161921153Y-101050499D01*
X161921156Y-101050500D01*
X161921158Y-101050500D01*
X162078844Y-101050500D01*
X162078845Y-101050499D01*
X162233497Y-101019737D01*
X162379179Y-100959394D01*
X162510289Y-100871789D01*
X162621789Y-100760289D01*
X162709394Y-100629179D01*
X162769737Y-100483497D01*
X162800500Y-100328842D01*
X162800500Y-100171158D01*
X162800500Y-100171155D01*
X162800499Y-100171153D01*
X162777384Y-100054949D01*
X162769737Y-100016503D01*
X162763942Y-100002512D01*
X162709397Y-99870827D01*
X162709390Y-99870814D01*
X162621789Y-99739711D01*
X162621786Y-99739707D01*
X162510292Y-99628213D01*
X162510288Y-99628210D01*
X162379185Y-99540609D01*
X162379172Y-99540602D01*
X162233501Y-99480264D01*
X162233489Y-99480261D01*
X162078845Y-99449500D01*
X162078842Y-99449500D01*
X161921158Y-99449500D01*
X161921155Y-99449500D01*
X161766510Y-99480261D01*
X161766498Y-99480264D01*
X161620827Y-99540602D01*
X161620814Y-99540609D01*
X161489711Y-99628210D01*
X161489707Y-99628213D01*
X161378213Y-99739707D01*
X161378210Y-99739711D01*
X161290609Y-99870814D01*
X161290602Y-99870827D01*
X161230264Y-100016498D01*
X161230261Y-100016510D01*
X161199500Y-100171153D01*
X158050499Y-100171153D01*
X158027384Y-100054949D01*
X158019737Y-100016503D01*
X158013942Y-100002512D01*
X157959397Y-99870827D01*
X157959390Y-99870814D01*
X157871789Y-99739711D01*
X157871786Y-99739707D01*
X157806964Y-99674885D01*
X157773479Y-99613562D01*
X157778463Y-99543870D01*
X157820335Y-99487937D01*
X157847190Y-99472643D01*
X157879179Y-99459394D01*
X158010289Y-99371789D01*
X158121789Y-99260289D01*
X158209394Y-99129179D01*
X158216550Y-99111904D01*
X158258640Y-99010288D01*
X158269737Y-98983497D01*
X158300500Y-98828842D01*
X158300500Y-98671158D01*
X158300500Y-98671155D01*
X158300499Y-98671153D01*
X159199500Y-98671153D01*
X159199500Y-98828846D01*
X159230261Y-98983489D01*
X159230264Y-98983501D01*
X159290602Y-99129172D01*
X159290609Y-99129185D01*
X159378210Y-99260288D01*
X159378213Y-99260292D01*
X159489707Y-99371786D01*
X159489711Y-99371789D01*
X159620814Y-99459390D01*
X159620827Y-99459397D01*
X159766498Y-99519735D01*
X159766503Y-99519737D01*
X159887827Y-99543870D01*
X159921153Y-99550499D01*
X159921156Y-99550500D01*
X159921158Y-99550500D01*
X160078844Y-99550500D01*
X160078845Y-99550499D01*
X160233497Y-99519737D01*
X160379179Y-99459394D01*
X160510289Y-99371789D01*
X160621789Y-99260289D01*
X160709394Y-99129179D01*
X160716550Y-99111904D01*
X160758640Y-99010288D01*
X160769737Y-98983497D01*
X160800500Y-98828842D01*
X160800500Y-98671158D01*
X160800500Y-98671155D01*
X160800499Y-98671153D01*
X160782137Y-98578842D01*
X160769737Y-98516503D01*
X160730242Y-98421153D01*
X160709397Y-98370827D01*
X160709390Y-98370814D01*
X160621789Y-98239711D01*
X160621786Y-98239707D01*
X160510292Y-98128213D01*
X160510288Y-98128210D01*
X160379185Y-98040609D01*
X160379172Y-98040602D01*
X160233501Y-97980264D01*
X160233489Y-97980261D01*
X160078845Y-97949500D01*
X160078842Y-97949500D01*
X159921158Y-97949500D01*
X159921155Y-97949500D01*
X159766510Y-97980261D01*
X159766498Y-97980264D01*
X159620827Y-98040602D01*
X159620814Y-98040609D01*
X159489711Y-98128210D01*
X159489707Y-98128213D01*
X159378213Y-98239707D01*
X159378210Y-98239711D01*
X159290609Y-98370814D01*
X159290602Y-98370827D01*
X159230264Y-98516498D01*
X159230261Y-98516510D01*
X159199500Y-98671153D01*
X158300499Y-98671153D01*
X158282137Y-98578842D01*
X158269737Y-98516503D01*
X158230242Y-98421153D01*
X158209397Y-98370827D01*
X158209390Y-98370814D01*
X158121789Y-98239711D01*
X158121786Y-98239707D01*
X158010292Y-98128213D01*
X158010288Y-98128210D01*
X157879185Y-98040609D01*
X157879172Y-98040602D01*
X157733501Y-97980264D01*
X157733489Y-97980261D01*
X157578845Y-97949500D01*
X157578842Y-97949500D01*
X157421158Y-97949500D01*
X157421155Y-97949500D01*
X157266510Y-97980261D01*
X157266498Y-97980264D01*
X157120827Y-98040602D01*
X157120814Y-98040609D01*
X156989711Y-98128210D01*
X156989707Y-98128213D01*
X156878213Y-98239707D01*
X156878210Y-98239711D01*
X156790609Y-98370814D01*
X156790602Y-98370827D01*
X156730264Y-98516498D01*
X156730261Y-98516510D01*
X156699500Y-98671153D01*
X156699500Y-98828846D01*
X156730261Y-98983489D01*
X156730264Y-98983501D01*
X156790602Y-99129172D01*
X156790609Y-99129185D01*
X156878210Y-99260288D01*
X156878213Y-99260292D01*
X156943035Y-99325114D01*
X156976520Y-99386437D01*
X156971536Y-99456129D01*
X156929664Y-99512062D01*
X156902809Y-99527355D01*
X156870826Y-99540603D01*
X156870814Y-99540609D01*
X156739711Y-99628210D01*
X156739707Y-99628213D01*
X156628213Y-99739707D01*
X156628210Y-99739711D01*
X156540609Y-99870814D01*
X156540602Y-99870827D01*
X156480264Y-100016498D01*
X156480261Y-100016510D01*
X156449500Y-100171153D01*
X137580242Y-100171153D01*
X137579933Y-100170408D01*
X137559397Y-100120827D01*
X137559390Y-100120814D01*
X137471789Y-99989711D01*
X137471786Y-99989707D01*
X137360292Y-99878213D01*
X137360288Y-99878210D01*
X137229185Y-99790609D01*
X137229172Y-99790602D01*
X137083501Y-99730264D01*
X137083489Y-99730261D01*
X136928845Y-99699500D01*
X136928842Y-99699500D01*
X136771158Y-99699500D01*
X136771155Y-99699500D01*
X136616510Y-99730261D01*
X136616498Y-99730264D01*
X136470827Y-99790602D01*
X136470814Y-99790609D01*
X136339711Y-99878210D01*
X136339707Y-99878213D01*
X136228213Y-99989707D01*
X136228210Y-99989711D01*
X136140609Y-100120814D01*
X136140602Y-100120827D01*
X136080264Y-100266498D01*
X136080261Y-100266510D01*
X136049500Y-100421153D01*
X134829826Y-100421153D01*
X134829826Y-99336571D01*
X134849511Y-99269532D01*
X134902315Y-99223777D01*
X134971473Y-99213833D01*
X135001278Y-99222010D01*
X135116008Y-99269532D01*
X135116503Y-99269737D01*
X135271153Y-99300499D01*
X135271156Y-99300500D01*
X135271158Y-99300500D01*
X135428844Y-99300500D01*
X135428845Y-99300499D01*
X135583497Y-99269737D01*
X135729179Y-99209394D01*
X135860289Y-99121789D01*
X135971789Y-99010289D01*
X136059394Y-98879179D01*
X136119737Y-98733497D01*
X136150500Y-98578842D01*
X136150500Y-98421158D01*
X136150500Y-98421155D01*
X136150499Y-98421153D01*
X136140486Y-98370814D01*
X136119737Y-98266503D01*
X136119735Y-98266498D01*
X136059397Y-98120827D01*
X136059390Y-98120814D01*
X135971789Y-97989711D01*
X135971786Y-97989707D01*
X135860292Y-97878213D01*
X135860288Y-97878210D01*
X135729185Y-97790609D01*
X135729172Y-97790602D01*
X135583501Y-97730264D01*
X135583489Y-97730261D01*
X135428845Y-97699500D01*
X135428842Y-97699500D01*
X135271158Y-97699500D01*
X135271155Y-97699500D01*
X135116510Y-97730261D01*
X135116507Y-97730262D01*
X135116506Y-97730262D01*
X135116503Y-97730263D01*
X135058757Y-97754182D01*
X135001278Y-97777990D01*
X134931808Y-97785458D01*
X134869329Y-97754182D01*
X134833677Y-97694093D01*
X134829826Y-97663428D01*
X134829826Y-96486113D01*
X140638009Y-96486113D01*
X140638009Y-96643806D01*
X140668770Y-96798449D01*
X140668773Y-96798461D01*
X140729111Y-96944132D01*
X140729118Y-96944145D01*
X140816719Y-97075248D01*
X140816722Y-97075252D01*
X140928216Y-97186746D01*
X140928220Y-97186749D01*
X141059323Y-97274350D01*
X141059336Y-97274357D01*
X141190186Y-97328556D01*
X141205012Y-97334697D01*
X141359662Y-97365459D01*
X141359665Y-97365460D01*
X141359667Y-97365460D01*
X141517353Y-97365460D01*
X141517354Y-97365459D01*
X141672006Y-97334697D01*
X141817688Y-97274354D01*
X141948798Y-97186749D01*
X142060298Y-97075249D01*
X142147903Y-96944139D01*
X142208246Y-96798457D01*
X142239009Y-96643802D01*
X142239009Y-96486118D01*
X142239009Y-96486115D01*
X142239008Y-96486113D01*
X142231077Y-96446243D01*
X142208246Y-96331463D01*
X142198325Y-96307511D01*
X142147906Y-96185787D01*
X142147899Y-96185774D01*
X142082389Y-96087732D01*
X142060298Y-96054671D01*
X142060295Y-96054667D01*
X142029341Y-96023713D01*
X178859500Y-96023713D01*
X178859500Y-96236286D01*
X178874574Y-96331463D01*
X178892754Y-96446243D01*
X178956946Y-96643806D01*
X178958444Y-96648414D01*
X179054951Y-96837820D01*
X179179890Y-97009786D01*
X179330213Y-97160109D01*
X179502182Y-97285050D01*
X179510946Y-97289516D01*
X179561742Y-97337491D01*
X179578536Y-97405312D01*
X179555998Y-97471447D01*
X179510946Y-97510484D01*
X179502182Y-97514949D01*
X179330213Y-97639890D01*
X179179890Y-97790213D01*
X179054951Y-97962179D01*
X178958444Y-98151585D01*
X178892753Y-98353760D01*
X178859500Y-98563713D01*
X178859500Y-98776286D01*
X178892753Y-98986239D01*
X178958444Y-99188414D01*
X179054951Y-99377820D01*
X179179890Y-99549786D01*
X179330213Y-99700109D01*
X179502182Y-99825050D01*
X179510946Y-99829516D01*
X179561742Y-99877491D01*
X179578536Y-99945312D01*
X179555998Y-100011447D01*
X179510946Y-100050484D01*
X179502182Y-100054949D01*
X179330213Y-100179890D01*
X179179890Y-100330213D01*
X179054951Y-100502179D01*
X178958444Y-100691585D01*
X178892753Y-100893760D01*
X178859500Y-101103713D01*
X178859500Y-101316286D01*
X178892753Y-101526239D01*
X178958444Y-101728414D01*
X179054951Y-101917820D01*
X179179890Y-102089786D01*
X179330213Y-102240109D01*
X179502182Y-102365050D01*
X179510946Y-102369516D01*
X179561742Y-102417491D01*
X179578536Y-102485312D01*
X179555998Y-102551447D01*
X179510946Y-102590484D01*
X179502182Y-102594949D01*
X179330213Y-102719890D01*
X179179890Y-102870213D01*
X179054951Y-103042179D01*
X178958444Y-103231585D01*
X178892753Y-103433760D01*
X178859500Y-103643713D01*
X178859500Y-103856286D01*
X178892753Y-104066239D01*
X178958444Y-104268414D01*
X179054951Y-104457820D01*
X179179890Y-104629786D01*
X179330213Y-104780109D01*
X179502182Y-104905050D01*
X179510946Y-104909516D01*
X179561742Y-104957491D01*
X179578536Y-105025312D01*
X179555998Y-105091447D01*
X179510946Y-105130484D01*
X179502182Y-105134949D01*
X179330213Y-105259890D01*
X179179890Y-105410213D01*
X179054951Y-105582179D01*
X178958444Y-105771585D01*
X178892753Y-105973760D01*
X178859500Y-106183713D01*
X178859500Y-106396286D01*
X178887962Y-106575992D01*
X178892754Y-106606243D01*
X178932156Y-106727510D01*
X178958444Y-106808414D01*
X179054951Y-106997820D01*
X179179890Y-107169786D01*
X179330213Y-107320109D01*
X179502182Y-107445050D01*
X179510946Y-107449516D01*
X179561742Y-107497491D01*
X179578536Y-107565312D01*
X179555998Y-107631447D01*
X179510946Y-107670484D01*
X179502182Y-107674949D01*
X179330213Y-107799890D01*
X179179890Y-107950213D01*
X179054951Y-108122179D01*
X178958444Y-108311585D01*
X178892753Y-108513760D01*
X178859500Y-108723713D01*
X178859500Y-108936286D01*
X178886923Y-109109432D01*
X178892754Y-109146243D01*
X178938309Y-109286447D01*
X178958444Y-109348414D01*
X179054951Y-109537820D01*
X179179890Y-109709786D01*
X179330213Y-109860109D01*
X179502182Y-109985050D01*
X179510946Y-109989516D01*
X179561742Y-110037491D01*
X179578536Y-110105312D01*
X179555998Y-110171447D01*
X179510946Y-110210484D01*
X179502182Y-110214949D01*
X179330213Y-110339890D01*
X179179890Y-110490213D01*
X179054951Y-110662179D01*
X178958444Y-110851585D01*
X178892753Y-111053760D01*
X178859500Y-111263713D01*
X178859500Y-111476286D01*
X178886144Y-111644514D01*
X178892754Y-111686243D01*
X178955128Y-111878211D01*
X178958444Y-111888414D01*
X179054951Y-112077820D01*
X179179890Y-112249786D01*
X179330213Y-112400109D01*
X179502179Y-112525048D01*
X179502181Y-112525049D01*
X179502184Y-112525051D01*
X179691588Y-112621557D01*
X179893757Y-112687246D01*
X180103713Y-112720500D01*
X180103714Y-112720500D01*
X180316286Y-112720500D01*
X180316287Y-112720500D01*
X180526243Y-112687246D01*
X180728412Y-112621557D01*
X180917816Y-112525051D01*
X180939789Y-112509086D01*
X181089786Y-112400109D01*
X181089788Y-112400106D01*
X181089792Y-112400104D01*
X181240104Y-112249792D01*
X181240106Y-112249788D01*
X181240109Y-112249786D01*
X181365048Y-112077820D01*
X181365047Y-112077820D01*
X181365051Y-112077816D01*
X181369514Y-112069054D01*
X181417488Y-112018259D01*
X181485308Y-112001463D01*
X181551444Y-112023999D01*
X181590486Y-112069056D01*
X181594951Y-112077820D01*
X181719890Y-112249786D01*
X181870213Y-112400109D01*
X182042179Y-112525048D01*
X182042181Y-112525049D01*
X182042184Y-112525051D01*
X182231588Y-112621557D01*
X182433757Y-112687246D01*
X182643713Y-112720500D01*
X182643714Y-112720500D01*
X182856286Y-112720500D01*
X182856287Y-112720500D01*
X183066243Y-112687246D01*
X183268412Y-112621557D01*
X183457816Y-112525051D01*
X183479789Y-112509086D01*
X183629786Y-112400109D01*
X183629788Y-112400106D01*
X183629792Y-112400104D01*
X183780104Y-112249792D01*
X183780106Y-112249788D01*
X183780109Y-112249786D01*
X183905048Y-112077820D01*
X183905047Y-112077820D01*
X183905051Y-112077816D01*
X184001557Y-111888412D01*
X184067246Y-111686243D01*
X184100500Y-111476287D01*
X184100500Y-111263713D01*
X184067246Y-111053757D01*
X184001557Y-110851588D01*
X183905051Y-110662184D01*
X183905049Y-110662181D01*
X183905048Y-110662179D01*
X183780109Y-110490213D01*
X183629786Y-110339890D01*
X183457820Y-110214951D01*
X183457115Y-110214591D01*
X183449054Y-110210485D01*
X183398259Y-110162512D01*
X183381463Y-110094692D01*
X183403999Y-110028556D01*
X183449054Y-109989515D01*
X183457816Y-109985051D01*
X183541842Y-109924003D01*
X183629786Y-109860109D01*
X183629788Y-109860106D01*
X183629792Y-109860104D01*
X183780104Y-109709792D01*
X183780106Y-109709788D01*
X183780109Y-109709786D01*
X183905048Y-109537820D01*
X183905047Y-109537820D01*
X183905051Y-109537816D01*
X184001557Y-109348412D01*
X184067246Y-109146243D01*
X184100500Y-108936287D01*
X184100500Y-108723713D01*
X184067246Y-108513757D01*
X184001557Y-108311588D01*
X183905051Y-108122184D01*
X183905049Y-108122181D01*
X183905048Y-108122179D01*
X183780109Y-107950213D01*
X183629786Y-107799890D01*
X183457820Y-107674951D01*
X183457115Y-107674591D01*
X183449054Y-107670485D01*
X183398259Y-107622512D01*
X183381463Y-107554692D01*
X183403999Y-107488556D01*
X183449054Y-107449515D01*
X183457816Y-107445051D01*
X183532809Y-107390566D01*
X183629786Y-107320109D01*
X183629788Y-107320106D01*
X183629792Y-107320104D01*
X183780104Y-107169792D01*
X183780106Y-107169788D01*
X183780109Y-107169786D01*
X183905048Y-106997820D01*
X183905047Y-106997820D01*
X183905051Y-106997816D01*
X184001557Y-106808412D01*
X184067246Y-106606243D01*
X184100500Y-106396287D01*
X184100500Y-106183713D01*
X184067246Y-105973757D01*
X184001557Y-105771588D01*
X183905051Y-105582184D01*
X183905049Y-105582181D01*
X183905048Y-105582179D01*
X183780109Y-105410213D01*
X183629786Y-105259890D01*
X183457820Y-105134951D01*
X183457115Y-105134591D01*
X183449054Y-105130485D01*
X183398259Y-105082512D01*
X183381463Y-105014692D01*
X183403999Y-104948556D01*
X183449054Y-104909515D01*
X183457816Y-104905051D01*
X183621062Y-104786447D01*
X183629786Y-104780109D01*
X183629788Y-104780106D01*
X183629792Y-104780104D01*
X183780104Y-104629792D01*
X183780106Y-104629788D01*
X183780109Y-104629786D01*
X183905048Y-104457820D01*
X183905047Y-104457820D01*
X183905051Y-104457816D01*
X184001557Y-104268412D01*
X184067246Y-104066243D01*
X184100500Y-103856287D01*
X184100500Y-103643713D01*
X184067246Y-103433757D01*
X184001557Y-103231588D01*
X183905051Y-103042184D01*
X183905049Y-103042181D01*
X183905048Y-103042179D01*
X183780109Y-102870213D01*
X183629786Y-102719890D01*
X183457820Y-102594951D01*
X183457115Y-102594591D01*
X183449054Y-102590485D01*
X183398259Y-102542512D01*
X183381463Y-102474692D01*
X183403999Y-102408556D01*
X183449054Y-102369515D01*
X183457816Y-102365051D01*
X183479789Y-102349086D01*
X183629786Y-102240109D01*
X183629788Y-102240106D01*
X183629792Y-102240104D01*
X183780104Y-102089792D01*
X183780106Y-102089788D01*
X183780109Y-102089786D01*
X183905048Y-101917820D01*
X183905047Y-101917820D01*
X183905051Y-101917816D01*
X184001557Y-101728412D01*
X184067246Y-101526243D01*
X184100500Y-101316287D01*
X184100500Y-101103713D01*
X184067246Y-100893757D01*
X184001557Y-100691588D01*
X183905051Y-100502184D01*
X183905049Y-100502181D01*
X183905048Y-100502179D01*
X183780109Y-100330213D01*
X183629786Y-100179890D01*
X183457820Y-100054951D01*
X183457115Y-100054591D01*
X183449054Y-100050485D01*
X183398259Y-100002512D01*
X183381463Y-99934692D01*
X183403999Y-99868556D01*
X183449054Y-99829515D01*
X183457816Y-99825051D01*
X183505231Y-99790602D01*
X183629786Y-99700109D01*
X183629788Y-99700106D01*
X183629792Y-99700104D01*
X183780104Y-99549792D01*
X183780106Y-99549788D01*
X183780109Y-99549786D01*
X183889086Y-99399789D01*
X183905051Y-99377816D01*
X184001557Y-99188412D01*
X184067246Y-98986243D01*
X184100500Y-98776287D01*
X184100500Y-98563713D01*
X184067246Y-98353757D01*
X184001557Y-98151588D01*
X183905051Y-97962184D01*
X183905049Y-97962181D01*
X183905048Y-97962179D01*
X183780109Y-97790213D01*
X183666181Y-97676285D01*
X183632696Y-97614962D01*
X183637680Y-97545270D01*
X183679552Y-97489337D01*
X183710529Y-97472422D01*
X183842086Y-97423354D01*
X183842093Y-97423350D01*
X183957187Y-97337190D01*
X183957190Y-97337187D01*
X184043350Y-97222093D01*
X184043354Y-97222086D01*
X184093596Y-97087379D01*
X184093598Y-97087372D01*
X184099999Y-97027844D01*
X184100000Y-97027827D01*
X184100000Y-96380000D01*
X183183012Y-96380000D01*
X183215925Y-96322993D01*
X183250000Y-96195826D01*
X183250000Y-96064174D01*
X183215925Y-95937007D01*
X183183012Y-95880000D01*
X184100000Y-95880000D01*
X184100000Y-95232172D01*
X184099999Y-95232155D01*
X184093598Y-95172627D01*
X184093596Y-95172620D01*
X184043354Y-95037913D01*
X184043350Y-95037906D01*
X183957190Y-94922812D01*
X183957187Y-94922809D01*
X183842093Y-94836649D01*
X183842086Y-94836645D01*
X183707379Y-94786403D01*
X183707372Y-94786401D01*
X183647844Y-94780000D01*
X183000000Y-94780000D01*
X183000000Y-95696988D01*
X182942993Y-95664075D01*
X182815826Y-95630000D01*
X182684174Y-95630000D01*
X182557007Y-95664075D01*
X182500000Y-95696988D01*
X182500000Y-94780000D01*
X181852155Y-94780000D01*
X181792627Y-94786401D01*
X181792620Y-94786403D01*
X181657913Y-94836645D01*
X181657906Y-94836649D01*
X181542812Y-94922809D01*
X181542809Y-94922812D01*
X181456649Y-95037906D01*
X181456646Y-95037912D01*
X181407577Y-95169471D01*
X181365705Y-95225404D01*
X181300241Y-95249821D01*
X181231968Y-95234969D01*
X181203714Y-95213818D01*
X181089786Y-95099890D01*
X180917820Y-94974951D01*
X180728414Y-94878444D01*
X180728413Y-94878443D01*
X180728412Y-94878443D01*
X180526243Y-94812754D01*
X180526241Y-94812753D01*
X180526240Y-94812753D01*
X180364957Y-94787208D01*
X180316287Y-94779500D01*
X180103713Y-94779500D01*
X180055042Y-94787208D01*
X179893760Y-94812753D01*
X179691585Y-94878444D01*
X179502179Y-94974951D01*
X179330213Y-95099890D01*
X179179890Y-95250213D01*
X179054951Y-95422179D01*
X178958444Y-95611585D01*
X178892753Y-95813760D01*
X178859500Y-96023713D01*
X142029341Y-96023713D01*
X141948801Y-95943173D01*
X141948797Y-95943170D01*
X141817694Y-95855569D01*
X141817681Y-95855562D01*
X141672010Y-95795224D01*
X141671998Y-95795221D01*
X141517354Y-95764460D01*
X141517351Y-95764460D01*
X141359667Y-95764460D01*
X141359664Y-95764460D01*
X141205019Y-95795221D01*
X141205007Y-95795224D01*
X141059336Y-95855562D01*
X141059323Y-95855569D01*
X140928220Y-95943170D01*
X140928216Y-95943173D01*
X140816722Y-96054667D01*
X140816719Y-96054671D01*
X140729118Y-96185774D01*
X140729111Y-96185787D01*
X140668773Y-96331458D01*
X140668770Y-96331470D01*
X140638009Y-96486113D01*
X134829826Y-96486113D01*
X134829826Y-94421153D01*
X136199500Y-94421153D01*
X136199500Y-94578846D01*
X136230261Y-94733489D01*
X136230264Y-94733501D01*
X136290602Y-94879172D01*
X136290609Y-94879185D01*
X136378210Y-95010288D01*
X136378213Y-95010292D01*
X136489707Y-95121786D01*
X136489711Y-95121789D01*
X136620814Y-95209390D01*
X136620827Y-95209397D01*
X136766498Y-95269735D01*
X136766503Y-95269737D01*
X136921153Y-95300499D01*
X136921156Y-95300500D01*
X136921158Y-95300500D01*
X137078844Y-95300500D01*
X137078845Y-95300499D01*
X137233497Y-95269737D01*
X137346166Y-95223067D01*
X137379172Y-95209397D01*
X137379172Y-95209396D01*
X137379179Y-95209394D01*
X137510289Y-95121789D01*
X137621789Y-95010289D01*
X137709394Y-94879179D01*
X137709396Y-94879171D01*
X137711638Y-94874980D01*
X137760595Y-94825130D01*
X137828732Y-94809663D01*
X137889893Y-94830320D01*
X137970814Y-94884390D01*
X137970827Y-94884397D01*
X138112708Y-94943165D01*
X138116503Y-94944737D01*
X138268388Y-94974949D01*
X138271153Y-94975499D01*
X138271156Y-94975500D01*
X138271158Y-94975500D01*
X138428844Y-94975500D01*
X138428845Y-94975499D01*
X138583497Y-94944737D01*
X138587292Y-94943164D01*
X138656759Y-94935688D01*
X138703644Y-94954616D01*
X138741011Y-94979584D01*
X138741014Y-94979585D01*
X138741017Y-94979587D01*
X138815147Y-95010292D01*
X138886693Y-95039927D01*
X139041343Y-95070689D01*
X139041346Y-95070690D01*
X139041348Y-95070690D01*
X139199034Y-95070690D01*
X139199035Y-95070689D01*
X139353687Y-95039927D01*
X139499369Y-94979584D01*
X139630479Y-94891979D01*
X139741979Y-94780479D01*
X139829584Y-94649369D01*
X139889927Y-94503687D01*
X139920690Y-94349032D01*
X139920690Y-94191348D01*
X139920690Y-94191345D01*
X139920689Y-94191343D01*
X139912354Y-94149439D01*
X139889927Y-94036693D01*
X139852807Y-93947076D01*
X139829587Y-93891017D01*
X139829580Y-93891004D01*
X139741979Y-93759901D01*
X139741976Y-93759897D01*
X139630482Y-93648403D01*
X139630478Y-93648400D01*
X139499375Y-93560799D01*
X139499362Y-93560792D01*
X139353691Y-93500454D01*
X139353679Y-93500451D01*
X139199035Y-93469690D01*
X139199032Y-93469690D01*
X139041348Y-93469690D01*
X139041345Y-93469690D01*
X138886701Y-93500450D01*
X138886688Y-93500454D01*
X138882880Y-93502032D01*
X138880600Y-93502277D01*
X138878762Y-93503653D01*
X138846028Y-93505992D01*
X138813411Y-93509498D01*
X138810643Y-93508521D01*
X138809070Y-93508634D01*
X138799785Y-93504690D01*
X138776001Y-93496299D01*
X138771147Y-93493648D01*
X138729179Y-93465606D01*
X138690330Y-93449514D01*
X138684499Y-93446330D01*
X138664307Y-93426136D01*
X138642075Y-93408221D01*
X138639920Y-93401746D01*
X138635096Y-93396922D01*
X138629027Y-93369019D01*
X138620010Y-93341927D01*
X138621697Y-93335316D01*
X138620247Y-93328649D01*
X138630227Y-93301892D01*
X138637289Y-93274227D01*
X138642282Y-93269578D01*
X138644667Y-93263185D01*
X138667529Y-93246071D01*
X138688425Y-93226617D01*
X138696479Y-93222939D01*
X138729173Y-93209397D01*
X138729176Y-93209395D01*
X138729179Y-93209394D01*
X138860289Y-93121789D01*
X138971789Y-93010289D01*
X139059394Y-92879179D01*
X139119737Y-92733497D01*
X139150500Y-92578842D01*
X139150500Y-92421158D01*
X139150500Y-92421155D01*
X139150499Y-92421153D01*
X139119738Y-92266510D01*
X139119737Y-92266503D01*
X139119735Y-92266498D01*
X139059397Y-92120827D01*
X139059390Y-92120814D01*
X138971790Y-91989712D01*
X138971784Y-91989705D01*
X138903232Y-91921153D01*
X140699500Y-91921153D01*
X140699500Y-92078846D01*
X140730261Y-92233489D01*
X140730264Y-92233501D01*
X140790602Y-92379172D01*
X140790609Y-92379185D01*
X140878210Y-92510288D01*
X140878213Y-92510292D01*
X140989710Y-92621789D01*
X141120815Y-92709390D01*
X141120821Y-92709394D01*
X141122945Y-92710274D01*
X141123885Y-92711031D01*
X141126192Y-92712264D01*
X141125958Y-92712701D01*
X141177349Y-92754107D01*
X141199421Y-92820399D01*
X141199500Y-92824837D01*
X141199500Y-92828846D01*
X141230261Y-92983489D01*
X141230264Y-92983501D01*
X141290602Y-93129172D01*
X141290609Y-93129185D01*
X141378210Y-93260288D01*
X141378213Y-93260292D01*
X141489707Y-93371786D01*
X141489711Y-93371789D01*
X141620814Y-93459390D01*
X141620827Y-93459397D01*
X141766498Y-93519735D01*
X141766503Y-93519737D01*
X141921153Y-93550499D01*
X141921156Y-93550500D01*
X141921158Y-93550500D01*
X142078844Y-93550500D01*
X142078845Y-93550499D01*
X142233497Y-93519737D01*
X142379179Y-93459394D01*
X142510289Y-93371789D01*
X142621789Y-93260289D01*
X142709394Y-93129179D01*
X142769737Y-92983497D01*
X142800500Y-92828842D01*
X142800500Y-92671158D01*
X142800500Y-92671155D01*
X142800499Y-92671153D01*
X142790680Y-92621789D01*
X142769737Y-92516503D01*
X142730242Y-92421153D01*
X142709397Y-92370827D01*
X142709390Y-92370814D01*
X142621789Y-92239711D01*
X142621786Y-92239707D01*
X142510292Y-92128213D01*
X142510288Y-92128210D01*
X142379185Y-92040609D01*
X142379169Y-92040601D01*
X142377038Y-92039718D01*
X142376094Y-92038957D01*
X142373809Y-92037736D01*
X142374040Y-92037302D01*
X142322638Y-91995873D01*
X142300579Y-91929577D01*
X142300500Y-91925161D01*
X142300500Y-91921155D01*
X142300499Y-91921153D01*
X142274531Y-91790606D01*
X142269737Y-91766503D01*
X142269735Y-91766498D01*
X142209397Y-91620827D01*
X142209393Y-91620820D01*
X142209389Y-91620814D01*
X142140346Y-91517484D01*
X149349500Y-91517484D01*
X149349500Y-93917515D01*
X149360000Y-94020295D01*
X149360001Y-94020297D01*
X149379401Y-94078842D01*
X149415186Y-94186835D01*
X149415187Y-94186837D01*
X149507286Y-94336151D01*
X149507289Y-94336155D01*
X149631344Y-94460210D01*
X149631348Y-94460213D01*
X149780662Y-94552312D01*
X149780664Y-94552313D01*
X149780666Y-94552314D01*
X149947203Y-94607499D01*
X150049992Y-94618000D01*
X150049997Y-94618000D01*
X152450003Y-94618000D01*
X152450008Y-94618000D01*
X152552797Y-94607499D01*
X152719334Y-94552314D01*
X152868655Y-94460211D01*
X152992711Y-94336155D01*
X153084814Y-94186834D01*
X153139999Y-94020297D01*
X153150500Y-93917508D01*
X153150500Y-92592941D01*
X154349500Y-92592941D01*
X154349500Y-92842058D01*
X154349501Y-92842075D01*
X154382017Y-93089061D01*
X154446498Y-93329707D01*
X154541830Y-93559861D01*
X154541837Y-93559876D01*
X154666400Y-93775626D01*
X154818060Y-93973274D01*
X154818066Y-93973281D01*
X154994218Y-94149433D01*
X154994225Y-94149439D01*
X155191873Y-94301099D01*
X155407623Y-94425662D01*
X155407638Y-94425669D01*
X155506825Y-94466753D01*
X155637793Y-94521002D01*
X155878435Y-94585482D01*
X156125435Y-94618000D01*
X156125442Y-94618000D01*
X156374558Y-94618000D01*
X156374565Y-94618000D01*
X156621565Y-94585482D01*
X156862207Y-94521002D01*
X157092373Y-94425664D01*
X157308127Y-94301099D01*
X157505776Y-94149438D01*
X157681938Y-93973276D01*
X157721933Y-93921153D01*
X171449500Y-93921153D01*
X171449500Y-94078846D01*
X171480261Y-94233489D01*
X171480264Y-94233501D01*
X171540602Y-94379172D01*
X171540609Y-94379185D01*
X171628210Y-94510288D01*
X171628213Y-94510292D01*
X171739707Y-94621786D01*
X171739711Y-94621789D01*
X171870814Y-94709390D01*
X171870827Y-94709397D01*
X172016498Y-94769735D01*
X172016503Y-94769737D01*
X172152502Y-94796789D01*
X172171153Y-94800499D01*
X172171156Y-94800500D01*
X172171158Y-94800500D01*
X172328844Y-94800500D01*
X172328845Y-94800499D01*
X172483497Y-94769737D01*
X172629179Y-94709394D01*
X172760289Y-94621789D01*
X172871789Y-94510289D01*
X172959394Y-94379179D01*
X173019737Y-94233497D01*
X173050500Y-94078842D01*
X173050500Y-93921158D01*
X173050500Y-93921155D01*
X173050499Y-93921153D01*
X173049773Y-93917502D01*
X173019737Y-93766503D01*
X173017001Y-93759897D01*
X172959397Y-93620827D01*
X172959390Y-93620814D01*
X172871789Y-93489711D01*
X172871786Y-93489707D01*
X172760292Y-93378213D01*
X172760288Y-93378210D01*
X172629185Y-93290609D01*
X172629172Y-93290602D01*
X172483501Y-93230264D01*
X172483489Y-93230261D01*
X172328845Y-93199500D01*
X172328842Y-93199500D01*
X172171158Y-93199500D01*
X172171155Y-93199500D01*
X172016510Y-93230261D01*
X172016498Y-93230264D01*
X171870827Y-93290602D01*
X171870814Y-93290609D01*
X171739711Y-93378210D01*
X171739707Y-93378213D01*
X171628213Y-93489707D01*
X171628210Y-93489711D01*
X171540609Y-93620814D01*
X171540602Y-93620827D01*
X171480264Y-93766498D01*
X171480261Y-93766510D01*
X171449500Y-93921153D01*
X157721933Y-93921153D01*
X157725323Y-93916735D01*
X157784527Y-93839580D01*
X157808444Y-93808408D01*
X157833599Y-93775627D01*
X157958164Y-93559873D01*
X158053502Y-93329707D01*
X158117982Y-93089065D01*
X158150500Y-92842065D01*
X158150500Y-92592935D01*
X158117982Y-92345935D01*
X158053502Y-92105293D01*
X157977231Y-91921158D01*
X157958169Y-91875138D01*
X157958162Y-91875123D01*
X157833599Y-91659373D01*
X157681939Y-91461725D01*
X157681933Y-91461718D01*
X157505781Y-91285566D01*
X157505774Y-91285560D01*
X157308126Y-91133900D01*
X157092376Y-91009337D01*
X157092361Y-91009330D01*
X156862207Y-90913998D01*
X156621561Y-90849517D01*
X156374575Y-90817001D01*
X156374570Y-90817000D01*
X156374565Y-90817000D01*
X156125435Y-90817000D01*
X156125429Y-90817000D01*
X156125424Y-90817001D01*
X155878438Y-90849517D01*
X155637792Y-90913998D01*
X155407638Y-91009330D01*
X155407623Y-91009337D01*
X155191873Y-91133900D01*
X154994225Y-91285560D01*
X154994218Y-91285566D01*
X154818066Y-91461718D01*
X154818060Y-91461725D01*
X154666400Y-91659373D01*
X154541837Y-91875123D01*
X154541830Y-91875138D01*
X154446498Y-92105292D01*
X154382017Y-92345938D01*
X154349501Y-92592924D01*
X154349500Y-92592941D01*
X153150500Y-92592941D01*
X153150500Y-91517492D01*
X153139999Y-91414703D01*
X153084814Y-91248166D01*
X153075768Y-91233501D01*
X152992713Y-91098848D01*
X152992710Y-91098844D01*
X152868655Y-90974789D01*
X152868651Y-90974786D01*
X152719337Y-90882687D01*
X152719335Y-90882686D01*
X152597563Y-90842335D01*
X152552797Y-90827501D01*
X152552795Y-90827500D01*
X152450015Y-90817000D01*
X152450008Y-90817000D01*
X150049992Y-90817000D01*
X150049984Y-90817000D01*
X149947204Y-90827500D01*
X149947203Y-90827501D01*
X149780664Y-90882686D01*
X149780662Y-90882687D01*
X149631348Y-90974786D01*
X149631344Y-90974789D01*
X149507289Y-91098844D01*
X149507286Y-91098848D01*
X149415187Y-91248162D01*
X149415186Y-91248164D01*
X149360001Y-91414703D01*
X149360000Y-91414704D01*
X149349500Y-91517484D01*
X142140346Y-91517484D01*
X142121789Y-91489711D01*
X142121786Y-91489707D01*
X142010292Y-91378213D01*
X142010288Y-91378210D01*
X141879185Y-91290609D01*
X141879172Y-91290602D01*
X141733501Y-91230264D01*
X141733489Y-91230261D01*
X141578845Y-91199500D01*
X141578842Y-91199500D01*
X141421158Y-91199500D01*
X141421155Y-91199500D01*
X141266510Y-91230261D01*
X141266498Y-91230264D01*
X141120827Y-91290602D01*
X141120814Y-91290609D01*
X140989711Y-91378210D01*
X140989707Y-91378213D01*
X140878213Y-91489707D01*
X140878210Y-91489711D01*
X140790609Y-91620814D01*
X140790602Y-91620827D01*
X140730264Y-91766498D01*
X140730261Y-91766510D01*
X140699500Y-91921153D01*
X138903232Y-91921153D01*
X138860292Y-91878213D01*
X138860288Y-91878210D01*
X138729185Y-91790609D01*
X138729172Y-91790602D01*
X138583501Y-91730264D01*
X138583489Y-91730261D01*
X138428845Y-91699500D01*
X138428842Y-91699500D01*
X138271158Y-91699500D01*
X138271155Y-91699500D01*
X138116510Y-91730261D01*
X138116498Y-91730264D01*
X137970827Y-91790602D01*
X137970814Y-91790609D01*
X137839711Y-91878210D01*
X137839707Y-91878213D01*
X137728213Y-91989707D01*
X137728210Y-91989711D01*
X137640609Y-92120814D01*
X137640602Y-92120827D01*
X137580264Y-92266498D01*
X137580261Y-92266510D01*
X137549500Y-92421153D01*
X137549500Y-92578846D01*
X137580261Y-92733489D01*
X137580264Y-92733501D01*
X137640602Y-92879172D01*
X137640609Y-92879185D01*
X137728210Y-93010288D01*
X137728213Y-93010292D01*
X137839707Y-93121786D01*
X137839711Y-93121789D01*
X137970814Y-93209390D01*
X137970818Y-93209392D01*
X137970821Y-93209394D01*
X137984929Y-93215237D01*
X138003521Y-93222939D01*
X138057924Y-93266780D01*
X138079989Y-93333074D01*
X138062710Y-93400774D01*
X138011572Y-93448384D01*
X138003521Y-93452061D01*
X137970824Y-93465604D01*
X137970814Y-93465609D01*
X137839711Y-93553210D01*
X137839707Y-93553213D01*
X137728213Y-93664707D01*
X137728210Y-93664711D01*
X137640606Y-93795819D01*
X137638354Y-93800033D01*
X137589390Y-93849876D01*
X137521252Y-93865335D01*
X137460106Y-93844679D01*
X137379185Y-93790609D01*
X137379172Y-93790602D01*
X137233501Y-93730264D01*
X137233489Y-93730261D01*
X137078845Y-93699500D01*
X137078842Y-93699500D01*
X136921158Y-93699500D01*
X136921155Y-93699500D01*
X136766510Y-93730261D01*
X136766498Y-93730264D01*
X136620827Y-93790602D01*
X136620814Y-93790609D01*
X136489711Y-93878210D01*
X136489707Y-93878213D01*
X136378213Y-93989707D01*
X136378210Y-93989711D01*
X136290609Y-94120814D01*
X136290602Y-94120827D01*
X136230264Y-94266498D01*
X136230261Y-94266510D01*
X136199500Y-94421153D01*
X134829826Y-94421153D01*
X134829826Y-91836571D01*
X134849511Y-91769532D01*
X134902315Y-91723777D01*
X134971473Y-91713833D01*
X135001278Y-91722010D01*
X135108683Y-91766498D01*
X135116503Y-91769737D01*
X135271153Y-91800499D01*
X135271156Y-91800500D01*
X135271158Y-91800500D01*
X135428844Y-91800500D01*
X135428845Y-91800499D01*
X135583497Y-91769737D01*
X135729179Y-91709394D01*
X135860289Y-91621789D01*
X135971789Y-91510289D01*
X136059394Y-91379179D01*
X136119737Y-91233497D01*
X136150500Y-91078842D01*
X136150500Y-90921158D01*
X136150500Y-90921155D01*
X136150499Y-90921153D01*
X136147296Y-90905051D01*
X136119737Y-90766503D01*
X136096713Y-90710917D01*
X136059397Y-90620827D01*
X136059390Y-90620814D01*
X135971789Y-90489711D01*
X135971786Y-90489707D01*
X135860292Y-90378213D01*
X135860288Y-90378210D01*
X135729185Y-90290609D01*
X135729172Y-90290602D01*
X135583501Y-90230264D01*
X135583489Y-90230261D01*
X135428845Y-90199500D01*
X135428842Y-90199500D01*
X135271158Y-90199500D01*
X135271155Y-90199500D01*
X135116510Y-90230261D01*
X135116507Y-90230262D01*
X135116506Y-90230262D01*
X135116503Y-90230263D01*
X135058757Y-90254182D01*
X135001278Y-90277990D01*
X134931808Y-90285458D01*
X134869329Y-90254182D01*
X134833677Y-90194093D01*
X134829826Y-90163428D01*
X134829826Y-89643713D01*
X160449500Y-89643713D01*
X160449500Y-89856287D01*
X160482754Y-90066243D01*
X160543819Y-90254182D01*
X160548444Y-90268414D01*
X160644951Y-90457820D01*
X160769890Y-90629786D01*
X160920213Y-90780109D01*
X161092179Y-90905048D01*
X161092181Y-90905049D01*
X161092184Y-90905051D01*
X161281588Y-91001557D01*
X161483757Y-91067246D01*
X161693713Y-91100500D01*
X161693714Y-91100500D01*
X161906286Y-91100500D01*
X161906287Y-91100500D01*
X162116243Y-91067246D01*
X162318412Y-91001557D01*
X162507816Y-90905051D01*
X162594138Y-90842335D01*
X162679786Y-90780109D01*
X162679788Y-90780106D01*
X162679792Y-90780104D01*
X162830104Y-90629792D01*
X162830106Y-90629788D01*
X162830109Y-90629786D01*
X162955048Y-90457820D01*
X162955047Y-90457820D01*
X162955051Y-90457816D01*
X162959514Y-90449054D01*
X163007488Y-90398259D01*
X163075308Y-90381463D01*
X163141444Y-90403999D01*
X163180486Y-90449056D01*
X163184951Y-90457820D01*
X163309890Y-90629786D01*
X163460213Y-90780109D01*
X163632179Y-90905048D01*
X163632181Y-90905049D01*
X163632184Y-90905051D01*
X163821588Y-91001557D01*
X164023757Y-91067246D01*
X164233713Y-91100500D01*
X164233714Y-91100500D01*
X164446286Y-91100500D01*
X164446287Y-91100500D01*
X164656243Y-91067246D01*
X164858412Y-91001557D01*
X165047816Y-90905051D01*
X165134138Y-90842335D01*
X165219786Y-90780109D01*
X165219788Y-90780106D01*
X165219792Y-90780104D01*
X165370104Y-90629792D01*
X165370106Y-90629788D01*
X165370109Y-90629786D01*
X165495048Y-90457820D01*
X165495047Y-90457820D01*
X165495051Y-90457816D01*
X165499514Y-90449054D01*
X165547488Y-90398259D01*
X165615308Y-90381463D01*
X165681444Y-90403999D01*
X165720486Y-90449056D01*
X165724951Y-90457820D01*
X165849890Y-90629786D01*
X166000213Y-90780109D01*
X166172179Y-90905048D01*
X166172181Y-90905049D01*
X166172184Y-90905051D01*
X166361588Y-91001557D01*
X166563757Y-91067246D01*
X166773713Y-91100500D01*
X166773714Y-91100500D01*
X166986286Y-91100500D01*
X166986287Y-91100500D01*
X167196243Y-91067246D01*
X167398412Y-91001557D01*
X167587816Y-90905051D01*
X167674138Y-90842335D01*
X167759786Y-90780109D01*
X167759788Y-90780106D01*
X167759792Y-90780104D01*
X167910104Y-90629792D01*
X167910106Y-90629788D01*
X167910109Y-90629786D01*
X168035048Y-90457820D01*
X168035047Y-90457820D01*
X168035051Y-90457816D01*
X168039514Y-90449054D01*
X168087488Y-90398259D01*
X168155308Y-90381463D01*
X168221444Y-90403999D01*
X168260486Y-90449056D01*
X168264951Y-90457820D01*
X168389890Y-90629786D01*
X168540213Y-90780109D01*
X168712179Y-90905048D01*
X168712181Y-90905049D01*
X168712184Y-90905051D01*
X168901588Y-91001557D01*
X169103757Y-91067246D01*
X169313713Y-91100500D01*
X169313714Y-91100500D01*
X169526286Y-91100500D01*
X169526287Y-91100500D01*
X169736243Y-91067246D01*
X169938412Y-91001557D01*
X170127816Y-90905051D01*
X170214138Y-90842335D01*
X170299786Y-90780109D01*
X170299788Y-90780106D01*
X170299792Y-90780104D01*
X170450104Y-90629792D01*
X170450106Y-90629788D01*
X170450109Y-90629786D01*
X170535890Y-90511717D01*
X170575051Y-90457816D01*
X170579793Y-90448508D01*
X170627763Y-90397711D01*
X170695583Y-90380911D01*
X170761719Y-90403445D01*
X170800763Y-90448500D01*
X170805373Y-90457547D01*
X170844728Y-90511716D01*
X171477037Y-89879408D01*
X171494075Y-89942993D01*
X171559901Y-90057007D01*
X171652993Y-90150099D01*
X171767007Y-90215925D01*
X171830590Y-90232962D01*
X171198282Y-90865269D01*
X171198282Y-90865270D01*
X171252449Y-90904624D01*
X171441782Y-91001095D01*
X171643870Y-91066757D01*
X171853754Y-91100000D01*
X172066246Y-91100000D01*
X172276127Y-91066757D01*
X172276130Y-91066757D01*
X172478217Y-91001095D01*
X172667554Y-90904622D01*
X172721716Y-90865270D01*
X172721717Y-90865270D01*
X172089408Y-90232962D01*
X172152993Y-90215925D01*
X172267007Y-90150099D01*
X172360099Y-90057007D01*
X172425925Y-89942993D01*
X172442962Y-89879409D01*
X173075270Y-90511717D01*
X173075270Y-90511716D01*
X173114622Y-90457555D01*
X173119232Y-90448507D01*
X173167205Y-90397709D01*
X173235025Y-90380912D01*
X173301161Y-90403447D01*
X173340204Y-90448504D01*
X173344949Y-90457817D01*
X173469890Y-90629786D01*
X173620213Y-90780109D01*
X173792179Y-90905048D01*
X173792181Y-90905049D01*
X173792184Y-90905051D01*
X173981588Y-91001557D01*
X174183757Y-91067246D01*
X174393713Y-91100500D01*
X174393714Y-91100500D01*
X174606286Y-91100500D01*
X174606287Y-91100500D01*
X174816243Y-91067246D01*
X175018412Y-91001557D01*
X175207816Y-90905051D01*
X175379792Y-90780104D01*
X175493329Y-90666566D01*
X175554648Y-90633084D01*
X175624340Y-90638068D01*
X175680274Y-90679939D01*
X175697189Y-90710917D01*
X175746202Y-90842328D01*
X175746206Y-90842335D01*
X175832452Y-90957544D01*
X175832455Y-90957547D01*
X175947664Y-91043793D01*
X175947671Y-91043797D01*
X176082517Y-91094091D01*
X176082516Y-91094091D01*
X176089444Y-91094835D01*
X176142127Y-91100500D01*
X177937872Y-91100499D01*
X177997483Y-91094091D01*
X178132331Y-91043796D01*
X178247546Y-90957546D01*
X178333796Y-90842331D01*
X178384091Y-90707483D01*
X178390500Y-90647873D01*
X178390499Y-88852128D01*
X178384091Y-88792517D01*
X178382810Y-88789083D01*
X178333797Y-88657671D01*
X178333793Y-88657664D01*
X178247547Y-88542455D01*
X178247544Y-88542452D01*
X178132335Y-88456206D01*
X178132328Y-88456202D01*
X177997482Y-88405908D01*
X177997483Y-88405908D01*
X177937883Y-88399501D01*
X177937881Y-88399500D01*
X177937873Y-88399500D01*
X177937864Y-88399500D01*
X176142129Y-88399500D01*
X176142123Y-88399501D01*
X176082516Y-88405908D01*
X175947671Y-88456202D01*
X175947664Y-88456206D01*
X175832455Y-88542452D01*
X175832452Y-88542455D01*
X175746206Y-88657664D01*
X175746203Y-88657669D01*
X175697189Y-88789083D01*
X175655317Y-88845016D01*
X175589853Y-88869433D01*
X175521580Y-88854581D01*
X175493326Y-88833430D01*
X175379786Y-88719890D01*
X175207820Y-88594951D01*
X175018414Y-88498444D01*
X175018413Y-88498443D01*
X175018412Y-88498443D01*
X174816243Y-88432754D01*
X174816241Y-88432753D01*
X174816240Y-88432753D01*
X174654957Y-88407208D01*
X174606287Y-88399500D01*
X174393713Y-88399500D01*
X174345042Y-88407208D01*
X174183760Y-88432753D01*
X173981585Y-88498444D01*
X173792179Y-88594951D01*
X173620213Y-88719890D01*
X173469890Y-88870213D01*
X173344949Y-89042182D01*
X173340202Y-89051499D01*
X173292227Y-89102293D01*
X173224405Y-89119087D01*
X173158271Y-89096548D01*
X173119234Y-89051495D01*
X173114626Y-89042452D01*
X173075270Y-88988282D01*
X173075269Y-88988282D01*
X172442962Y-89620590D01*
X172425925Y-89557007D01*
X172360099Y-89442993D01*
X172267007Y-89349901D01*
X172152993Y-89284075D01*
X172089409Y-89267037D01*
X172721716Y-88634728D01*
X172667550Y-88595375D01*
X172478217Y-88498904D01*
X172276129Y-88433242D01*
X172066246Y-88400000D01*
X171853754Y-88400000D01*
X171643872Y-88433242D01*
X171643869Y-88433242D01*
X171441782Y-88498904D01*
X171252439Y-88595380D01*
X171198282Y-88634727D01*
X171198282Y-88634728D01*
X171830591Y-89267037D01*
X171767007Y-89284075D01*
X171652993Y-89349901D01*
X171559901Y-89442993D01*
X171494075Y-89557007D01*
X171477037Y-89620591D01*
X170844728Y-88988282D01*
X170844727Y-88988282D01*
X170805380Y-89042440D01*
X170805376Y-89042446D01*
X170800760Y-89051505D01*
X170752781Y-89102297D01*
X170684959Y-89119087D01*
X170618826Y-89096543D01*
X170579794Y-89051493D01*
X170575051Y-89042184D01*
X170575049Y-89042181D01*
X170575048Y-89042179D01*
X170450109Y-88870213D01*
X170299786Y-88719890D01*
X170127820Y-88594951D01*
X169938414Y-88498444D01*
X169938413Y-88498443D01*
X169938412Y-88498443D01*
X169736243Y-88432754D01*
X169736241Y-88432753D01*
X169736240Y-88432753D01*
X169574957Y-88407208D01*
X169526287Y-88399500D01*
X169313713Y-88399500D01*
X169265042Y-88407208D01*
X169103760Y-88432753D01*
X168901585Y-88498444D01*
X168712179Y-88594951D01*
X168540213Y-88719890D01*
X168389890Y-88870213D01*
X168264949Y-89042182D01*
X168260484Y-89050946D01*
X168212509Y-89101742D01*
X168144688Y-89118536D01*
X168078553Y-89095998D01*
X168039516Y-89050946D01*
X168035050Y-89042182D01*
X167910109Y-88870213D01*
X167759786Y-88719890D01*
X167587820Y-88594951D01*
X167398414Y-88498444D01*
X167398413Y-88498443D01*
X167398412Y-88498443D01*
X167196243Y-88432754D01*
X167196241Y-88432753D01*
X167196240Y-88432753D01*
X167034957Y-88407208D01*
X166986287Y-88399500D01*
X166773713Y-88399500D01*
X166725042Y-88407208D01*
X166563760Y-88432753D01*
X166361585Y-88498444D01*
X166172179Y-88594951D01*
X166000213Y-88719890D01*
X165849890Y-88870213D01*
X165724949Y-89042182D01*
X165720484Y-89050946D01*
X165672509Y-89101742D01*
X165604688Y-89118536D01*
X165538553Y-89095998D01*
X165499516Y-89050946D01*
X165495050Y-89042182D01*
X165370109Y-88870213D01*
X165219786Y-88719890D01*
X165047820Y-88594951D01*
X164858414Y-88498444D01*
X164858413Y-88498443D01*
X164858412Y-88498443D01*
X164656243Y-88432754D01*
X164656241Y-88432753D01*
X164656240Y-88432753D01*
X164494957Y-88407208D01*
X164446287Y-88399500D01*
X164233713Y-88399500D01*
X164185042Y-88407208D01*
X164023760Y-88432753D01*
X163821585Y-88498444D01*
X163632179Y-88594951D01*
X163460213Y-88719890D01*
X163309890Y-88870213D01*
X163184949Y-89042182D01*
X163180484Y-89050946D01*
X163132509Y-89101742D01*
X163064688Y-89118536D01*
X162998553Y-89095998D01*
X162959516Y-89050946D01*
X162955050Y-89042182D01*
X162830109Y-88870213D01*
X162679786Y-88719890D01*
X162507820Y-88594951D01*
X162318414Y-88498444D01*
X162318413Y-88498443D01*
X162318412Y-88498443D01*
X162116243Y-88432754D01*
X162116241Y-88432753D01*
X162116240Y-88432753D01*
X161954957Y-88407208D01*
X161906287Y-88399500D01*
X161693713Y-88399500D01*
X161645042Y-88407208D01*
X161483760Y-88432753D01*
X161281585Y-88498444D01*
X161092179Y-88594951D01*
X160920213Y-88719890D01*
X160769890Y-88870213D01*
X160644951Y-89042179D01*
X160548444Y-89231585D01*
X160482753Y-89433760D01*
X160481291Y-89442993D01*
X160449500Y-89643713D01*
X134829826Y-89643713D01*
X134829826Y-87500000D01*
X130638391Y-87500000D01*
X130571352Y-87480315D01*
X130535289Y-87444891D01*
X130466445Y-87341858D01*
X130354948Y-87230361D01*
X130354944Y-87230358D01*
X130223841Y-87142757D01*
X130223828Y-87142750D01*
X130078157Y-87082412D01*
X130078145Y-87082409D01*
X129923501Y-87051648D01*
X129923498Y-87051648D01*
X129840867Y-87051648D01*
X129773828Y-87031963D01*
X129737766Y-86996541D01*
X129733201Y-86989709D01*
X129621705Y-86878213D01*
X129621701Y-86878210D01*
X129490598Y-86790609D01*
X129490586Y-86790602D01*
X129464087Y-86779627D01*
X129344914Y-86730264D01*
X129344902Y-86730261D01*
X129190258Y-86699500D01*
X129190255Y-86699500D01*
X129032571Y-86699500D01*
X129032568Y-86699500D01*
X128877923Y-86730261D01*
X128877911Y-86730264D01*
X128732240Y-86790602D01*
X128732227Y-86790609D01*
X128601124Y-86878210D01*
X128601120Y-86878213D01*
X128489626Y-86989707D01*
X128489623Y-86989711D01*
X128402022Y-87120814D01*
X128402015Y-87120827D01*
X128341677Y-87266498D01*
X128341674Y-87266510D01*
X128315083Y-87400191D01*
X128282698Y-87462102D01*
X128221982Y-87496677D01*
X128193466Y-87500000D01*
X122374500Y-87500000D01*
X122307461Y-87480315D01*
X122261706Y-87427511D01*
X122250500Y-87376000D01*
X122250500Y-86671153D01*
X142449500Y-86671153D01*
X142449500Y-86828846D01*
X142480261Y-86983489D01*
X142480264Y-86983501D01*
X142540602Y-87129172D01*
X142540609Y-87129185D01*
X142628210Y-87260288D01*
X142628213Y-87260292D01*
X142739707Y-87371786D01*
X142739711Y-87371789D01*
X142870814Y-87459390D01*
X142870827Y-87459397D01*
X142968853Y-87500000D01*
X143016503Y-87519737D01*
X143171153Y-87550499D01*
X143171156Y-87550500D01*
X143171158Y-87550500D01*
X143328844Y-87550500D01*
X143328845Y-87550499D01*
X143483497Y-87519737D01*
X143629179Y-87459394D01*
X143760289Y-87371789D01*
X143871789Y-87260289D01*
X143959394Y-87129179D01*
X143962854Y-87120827D01*
X144017164Y-86989709D01*
X144019737Y-86983497D01*
X144050500Y-86828842D01*
X144050500Y-86671158D01*
X144050500Y-86671155D01*
X144050499Y-86671153D01*
X144019738Y-86516510D01*
X144019737Y-86516503D01*
X144019735Y-86516498D01*
X143959397Y-86370827D01*
X143959390Y-86370814D01*
X143871789Y-86239711D01*
X143871786Y-86239707D01*
X143760292Y-86128213D01*
X143760288Y-86128210D01*
X143629185Y-86040609D01*
X143629172Y-86040602D01*
X143483501Y-85980264D01*
X143483489Y-85980261D01*
X143328845Y-85949500D01*
X143328842Y-85949500D01*
X143171158Y-85949500D01*
X143171155Y-85949500D01*
X143016510Y-85980261D01*
X143016498Y-85980264D01*
X142870827Y-86040602D01*
X142870814Y-86040609D01*
X142739711Y-86128210D01*
X142739707Y-86128213D01*
X142628213Y-86239707D01*
X142628210Y-86239711D01*
X142540609Y-86370814D01*
X142540602Y-86370827D01*
X142480264Y-86516498D01*
X142480261Y-86516510D01*
X142449500Y-86671153D01*
X122250500Y-86671153D01*
X122250500Y-81102135D01*
X123949500Y-81102135D01*
X123949500Y-82897870D01*
X123949501Y-82897876D01*
X123955908Y-82957483D01*
X124006202Y-83092328D01*
X124006206Y-83092335D01*
X124092452Y-83207544D01*
X124092455Y-83207547D01*
X124207664Y-83293793D01*
X124207671Y-83293797D01*
X124342517Y-83344091D01*
X124342516Y-83344091D01*
X124349444Y-83344835D01*
X124402127Y-83350500D01*
X126197872Y-83350499D01*
X126257483Y-83344091D01*
X126392331Y-83293796D01*
X126507546Y-83207546D01*
X126593796Y-83092331D01*
X126642810Y-82960916D01*
X126684681Y-82904984D01*
X126750145Y-82880566D01*
X126818418Y-82895417D01*
X126846673Y-82916569D01*
X126960213Y-83030109D01*
X127132179Y-83155048D01*
X127132181Y-83155049D01*
X127132184Y-83155051D01*
X127321588Y-83251557D01*
X127523757Y-83317246D01*
X127733713Y-83350500D01*
X127733714Y-83350500D01*
X127946286Y-83350500D01*
X127946287Y-83350500D01*
X128156243Y-83317246D01*
X128358412Y-83251557D01*
X128547816Y-83155051D01*
X128634138Y-83092335D01*
X128719786Y-83030109D01*
X128719788Y-83030106D01*
X128719792Y-83030104D01*
X128870104Y-82879792D01*
X128870106Y-82879788D01*
X128870109Y-82879786D01*
X128995048Y-82707820D01*
X128995050Y-82707817D01*
X128995051Y-82707816D01*
X128999514Y-82699054D01*
X129047488Y-82648259D01*
X129115308Y-82631463D01*
X129181444Y-82653999D01*
X129220486Y-82699056D01*
X129224951Y-82707820D01*
X129349890Y-82879786D01*
X129500213Y-83030109D01*
X129672179Y-83155048D01*
X129672181Y-83155049D01*
X129672184Y-83155051D01*
X129861588Y-83251557D01*
X130063757Y-83317246D01*
X130273713Y-83350500D01*
X130273714Y-83350500D01*
X130486286Y-83350500D01*
X130486287Y-83350500D01*
X130696243Y-83317246D01*
X130898412Y-83251557D01*
X131087816Y-83155051D01*
X131174138Y-83092335D01*
X131259786Y-83030109D01*
X131259788Y-83030106D01*
X131259792Y-83030104D01*
X131410104Y-82879792D01*
X131410106Y-82879788D01*
X131410109Y-82879786D01*
X131535048Y-82707820D01*
X131535050Y-82707817D01*
X131535051Y-82707816D01*
X131539514Y-82699054D01*
X131587488Y-82648259D01*
X131655308Y-82631463D01*
X131721444Y-82653999D01*
X131760486Y-82699056D01*
X131764951Y-82707820D01*
X131889890Y-82879786D01*
X132040213Y-83030109D01*
X132212179Y-83155048D01*
X132212181Y-83155049D01*
X132212184Y-83155051D01*
X132401588Y-83251557D01*
X132603757Y-83317246D01*
X132813713Y-83350500D01*
X132813714Y-83350500D01*
X133026286Y-83350500D01*
X133026287Y-83350500D01*
X133236243Y-83317246D01*
X133438412Y-83251557D01*
X133627816Y-83155051D01*
X133714138Y-83092335D01*
X133799786Y-83030109D01*
X133799788Y-83030106D01*
X133799792Y-83030104D01*
X133950104Y-82879792D01*
X133950106Y-82879788D01*
X133950109Y-82879786D01*
X134075048Y-82707820D01*
X134075050Y-82707817D01*
X134075051Y-82707816D01*
X134079514Y-82699054D01*
X134127488Y-82648259D01*
X134195308Y-82631463D01*
X134261444Y-82653999D01*
X134300486Y-82699056D01*
X134304951Y-82707820D01*
X134429890Y-82879786D01*
X134580213Y-83030109D01*
X134752179Y-83155048D01*
X134752181Y-83155049D01*
X134752184Y-83155051D01*
X134941588Y-83251557D01*
X135143757Y-83317246D01*
X135353713Y-83350500D01*
X135353714Y-83350500D01*
X135566286Y-83350500D01*
X135566287Y-83350500D01*
X135776243Y-83317246D01*
X135978412Y-83251557D01*
X136167816Y-83155051D01*
X136254138Y-83092335D01*
X136339786Y-83030109D01*
X136339788Y-83030106D01*
X136339792Y-83030104D01*
X136490104Y-82879792D01*
X136490106Y-82879788D01*
X136490109Y-82879786D01*
X136615048Y-82707820D01*
X136615050Y-82707817D01*
X136615051Y-82707816D01*
X136619514Y-82699054D01*
X136667488Y-82648259D01*
X136735308Y-82631463D01*
X136801444Y-82653999D01*
X136840486Y-82699056D01*
X136844951Y-82707820D01*
X136969890Y-82879786D01*
X137120213Y-83030109D01*
X137292179Y-83155048D01*
X137292181Y-83155049D01*
X137292184Y-83155051D01*
X137481588Y-83251557D01*
X137683757Y-83317246D01*
X137893713Y-83350500D01*
X137893714Y-83350500D01*
X138106286Y-83350500D01*
X138106287Y-83350500D01*
X138316243Y-83317246D01*
X138518412Y-83251557D01*
X138707816Y-83155051D01*
X138794138Y-83092335D01*
X138879786Y-83030109D01*
X138879788Y-83030106D01*
X138879792Y-83030104D01*
X139030104Y-82879792D01*
X139030106Y-82879788D01*
X139030109Y-82879786D01*
X139155048Y-82707820D01*
X139155050Y-82707817D01*
X139155051Y-82707816D01*
X139159514Y-82699054D01*
X139207488Y-82648259D01*
X139275308Y-82631463D01*
X139341444Y-82653999D01*
X139380486Y-82699056D01*
X139384951Y-82707820D01*
X139509890Y-82879786D01*
X139660213Y-83030109D01*
X139832179Y-83155048D01*
X139832181Y-83155049D01*
X139832184Y-83155051D01*
X140021588Y-83251557D01*
X140223757Y-83317246D01*
X140433713Y-83350500D01*
X140433714Y-83350500D01*
X140646286Y-83350500D01*
X140646287Y-83350500D01*
X140856243Y-83317246D01*
X141058412Y-83251557D01*
X141247816Y-83155051D01*
X141334138Y-83092335D01*
X141419786Y-83030109D01*
X141419788Y-83030106D01*
X141419792Y-83030104D01*
X141570104Y-82879792D01*
X141570106Y-82879788D01*
X141570109Y-82879786D01*
X141695048Y-82707820D01*
X141695050Y-82707817D01*
X141695051Y-82707816D01*
X141699514Y-82699054D01*
X141747488Y-82648259D01*
X141815308Y-82631463D01*
X141881444Y-82653999D01*
X141920486Y-82699056D01*
X141924951Y-82707820D01*
X142049890Y-82879786D01*
X142200213Y-83030109D01*
X142372179Y-83155048D01*
X142372181Y-83155049D01*
X142372184Y-83155051D01*
X142561588Y-83251557D01*
X142763757Y-83317246D01*
X142973713Y-83350500D01*
X142973714Y-83350500D01*
X143186286Y-83350500D01*
X143186287Y-83350500D01*
X143396243Y-83317246D01*
X143598412Y-83251557D01*
X143787816Y-83155051D01*
X143874138Y-83092335D01*
X143959786Y-83030109D01*
X143959788Y-83030106D01*
X143959792Y-83030104D01*
X144110104Y-82879792D01*
X144110106Y-82879788D01*
X144110109Y-82879786D01*
X144235050Y-82707817D01*
X144239514Y-82699056D01*
X144299446Y-82581432D01*
X144347419Y-82530638D01*
X144415240Y-82513842D01*
X144481375Y-82536379D01*
X144524491Y-82590275D01*
X144540604Y-82629175D01*
X144540609Y-82629185D01*
X144628210Y-82760288D01*
X144628213Y-82760292D01*
X144739707Y-82871786D01*
X144739711Y-82871789D01*
X144870814Y-82959390D01*
X144870827Y-82959397D01*
X145016498Y-83019735D01*
X145016503Y-83019737D01*
X145066223Y-83029627D01*
X145127841Y-83041884D01*
X145189752Y-83074269D01*
X145224326Y-83134984D01*
X145220587Y-83204754D01*
X145179720Y-83261426D01*
X145151104Y-83278061D01*
X145120829Y-83290601D01*
X145120814Y-83290609D01*
X144989711Y-83378210D01*
X144989707Y-83378213D01*
X144878213Y-83489707D01*
X144878210Y-83489711D01*
X144790609Y-83620814D01*
X144790602Y-83620827D01*
X144730264Y-83766498D01*
X144730261Y-83766510D01*
X144699500Y-83921153D01*
X144699500Y-84078846D01*
X144730261Y-84233489D01*
X144730264Y-84233501D01*
X144790602Y-84379172D01*
X144790609Y-84379185D01*
X144878210Y-84510288D01*
X144878213Y-84510292D01*
X144989707Y-84621786D01*
X144989711Y-84621789D01*
X145120814Y-84709390D01*
X145120827Y-84709397D01*
X145266498Y-84769735D01*
X145266503Y-84769737D01*
X145421153Y-84800499D01*
X145421156Y-84800500D01*
X145421158Y-84800500D01*
X145578844Y-84800500D01*
X145578845Y-84800499D01*
X145733497Y-84769737D01*
X145879179Y-84709394D01*
X146010289Y-84621789D01*
X146121789Y-84510289D01*
X146209394Y-84379179D01*
X146269737Y-84233497D01*
X146282138Y-84171153D01*
X148199500Y-84171153D01*
X148199500Y-84328846D01*
X148230261Y-84483488D01*
X148230264Y-84483501D01*
X148290602Y-84629172D01*
X148290609Y-84629185D01*
X148378210Y-84760288D01*
X148378213Y-84760292D01*
X148489707Y-84871786D01*
X148489711Y-84871789D01*
X148620814Y-84959390D01*
X148620827Y-84959397D01*
X148766498Y-85019735D01*
X148766503Y-85019737D01*
X148921153Y-85050499D01*
X148921156Y-85050500D01*
X148921158Y-85050500D01*
X149078844Y-85050500D01*
X149078845Y-85050499D01*
X149233497Y-85019737D01*
X149327550Y-84980778D01*
X149397016Y-84973310D01*
X149422443Y-84980775D01*
X149516503Y-85019737D01*
X149671153Y-85050499D01*
X149671156Y-85050500D01*
X149671158Y-85050500D01*
X149828844Y-85050500D01*
X149828845Y-85050499D01*
X149983497Y-85019737D01*
X150096166Y-84973067D01*
X150129172Y-84959397D01*
X150129172Y-84959396D01*
X150129179Y-84959394D01*
X150260289Y-84871789D01*
X150371789Y-84760289D01*
X150459394Y-84629179D01*
X150519737Y-84483497D01*
X150524531Y-84459397D01*
X150532138Y-84421153D01*
X160199500Y-84421153D01*
X160199500Y-84578846D01*
X160230261Y-84733489D01*
X160230264Y-84733501D01*
X160290602Y-84879172D01*
X160290609Y-84879185D01*
X160378210Y-85010288D01*
X160378213Y-85010292D01*
X160489707Y-85121786D01*
X160489711Y-85121789D01*
X160620814Y-85209390D01*
X160620827Y-85209397D01*
X160766498Y-85269735D01*
X160766503Y-85269737D01*
X160921153Y-85300499D01*
X160921156Y-85300500D01*
X160921158Y-85300500D01*
X161078844Y-85300500D01*
X161078845Y-85300499D01*
X161233497Y-85269737D01*
X161379179Y-85209394D01*
X161510289Y-85121789D01*
X161621789Y-85010289D01*
X161709394Y-84879179D01*
X161769737Y-84733497D01*
X161800500Y-84578842D01*
X161800500Y-84421158D01*
X161800500Y-84421155D01*
X161800499Y-84421153D01*
X161782137Y-84328842D01*
X161769737Y-84266503D01*
X161717701Y-84140875D01*
X161709397Y-84120827D01*
X161709390Y-84120814D01*
X161621790Y-83989712D01*
X161621784Y-83989705D01*
X161553232Y-83921153D01*
X165449500Y-83921153D01*
X165449500Y-84078846D01*
X165480261Y-84233489D01*
X165480264Y-84233501D01*
X165540602Y-84379172D01*
X165540609Y-84379185D01*
X165628210Y-84510288D01*
X165628213Y-84510292D01*
X165739707Y-84621786D01*
X165739711Y-84621789D01*
X165870814Y-84709390D01*
X165870827Y-84709397D01*
X166016498Y-84769735D01*
X166016503Y-84769737D01*
X166171153Y-84800499D01*
X166171156Y-84800500D01*
X166171158Y-84800500D01*
X166328844Y-84800500D01*
X166328845Y-84800499D01*
X166483497Y-84769737D01*
X166629179Y-84709394D01*
X166760289Y-84621789D01*
X166871789Y-84510289D01*
X166959394Y-84379179D01*
X167019737Y-84233497D01*
X167050500Y-84078842D01*
X167050500Y-83921158D01*
X167050500Y-83921155D01*
X167050499Y-83921153D01*
X167024531Y-83790606D01*
X167019737Y-83766503D01*
X166980242Y-83671153D01*
X169449500Y-83671153D01*
X169449500Y-83828846D01*
X169480261Y-83983489D01*
X169480264Y-83983501D01*
X169540602Y-84129172D01*
X169540609Y-84129185D01*
X169628210Y-84260288D01*
X169628213Y-84260292D01*
X169739707Y-84371786D01*
X169739711Y-84371789D01*
X169870814Y-84459390D01*
X169870827Y-84459397D01*
X170016498Y-84519735D01*
X170016503Y-84519737D01*
X170171153Y-84550499D01*
X170171156Y-84550500D01*
X170171158Y-84550500D01*
X170328844Y-84550500D01*
X170328845Y-84550499D01*
X170483497Y-84519737D01*
X170629179Y-84459394D01*
X170760289Y-84371789D01*
X170871789Y-84260289D01*
X170959394Y-84129179D01*
X170962854Y-84120827D01*
X170980244Y-84078842D01*
X171019737Y-83983497D01*
X171050500Y-83828842D01*
X171050500Y-83671158D01*
X171050500Y-83671155D01*
X171050499Y-83671153D01*
X171024531Y-83540606D01*
X171019737Y-83516503D01*
X171010297Y-83493713D01*
X170959397Y-83370827D01*
X170959390Y-83370814D01*
X170871789Y-83239711D01*
X170871786Y-83239707D01*
X170760292Y-83128213D01*
X170760288Y-83128210D01*
X170629185Y-83040609D01*
X170629173Y-83040602D01*
X170602674Y-83029627D01*
X170483501Y-82980264D01*
X170483489Y-82980261D01*
X170328845Y-82949500D01*
X170328842Y-82949500D01*
X170171158Y-82949500D01*
X170171155Y-82949500D01*
X170016510Y-82980261D01*
X170016498Y-82980264D01*
X169870827Y-83040602D01*
X169870814Y-83040609D01*
X169739711Y-83128210D01*
X169739707Y-83128213D01*
X169628213Y-83239707D01*
X169628210Y-83239711D01*
X169540609Y-83370814D01*
X169540602Y-83370827D01*
X169480264Y-83516498D01*
X169480261Y-83516510D01*
X169449500Y-83671153D01*
X166980242Y-83671153D01*
X166959794Y-83621786D01*
X166959397Y-83620827D01*
X166959390Y-83620814D01*
X166871789Y-83489711D01*
X166871786Y-83489707D01*
X166760292Y-83378213D01*
X166760288Y-83378210D01*
X166629185Y-83290609D01*
X166629172Y-83290602D01*
X166483501Y-83230264D01*
X166483489Y-83230261D01*
X166328845Y-83199500D01*
X166328842Y-83199500D01*
X166171158Y-83199500D01*
X166171155Y-83199500D01*
X166016510Y-83230261D01*
X166016498Y-83230264D01*
X165870827Y-83290602D01*
X165870814Y-83290609D01*
X165739711Y-83378210D01*
X165739707Y-83378213D01*
X165628213Y-83489707D01*
X165628210Y-83489711D01*
X165540609Y-83620814D01*
X165540602Y-83620827D01*
X165480264Y-83766498D01*
X165480261Y-83766510D01*
X165449500Y-83921153D01*
X161553232Y-83921153D01*
X161510292Y-83878213D01*
X161510288Y-83878210D01*
X161379185Y-83790609D01*
X161379172Y-83790602D01*
X161233501Y-83730264D01*
X161233489Y-83730261D01*
X161078845Y-83699500D01*
X161078842Y-83699500D01*
X160921158Y-83699500D01*
X160921155Y-83699500D01*
X160766510Y-83730261D01*
X160766498Y-83730264D01*
X160620827Y-83790602D01*
X160620814Y-83790609D01*
X160489711Y-83878210D01*
X160489707Y-83878213D01*
X160378213Y-83989707D01*
X160378210Y-83989711D01*
X160290609Y-84120814D01*
X160290602Y-84120827D01*
X160230264Y-84266498D01*
X160230261Y-84266510D01*
X160199500Y-84421153D01*
X150532138Y-84421153D01*
X150538161Y-84390875D01*
X150538161Y-84390874D01*
X150550500Y-84328844D01*
X150550500Y-84171155D01*
X150550499Y-84171153D01*
X150519738Y-84016510D01*
X150519737Y-84016503D01*
X150508640Y-83989712D01*
X150459397Y-83870827D01*
X150459390Y-83870814D01*
X150371789Y-83739711D01*
X150371786Y-83739707D01*
X150260292Y-83628213D01*
X150260288Y-83628210D01*
X150129185Y-83540609D01*
X150129172Y-83540602D01*
X149983501Y-83480264D01*
X149983489Y-83480261D01*
X149828845Y-83449500D01*
X149828842Y-83449500D01*
X149671158Y-83449500D01*
X149671155Y-83449500D01*
X149516510Y-83480261D01*
X149516498Y-83480264D01*
X149422452Y-83519219D01*
X149352982Y-83526688D01*
X149327548Y-83519219D01*
X149233501Y-83480264D01*
X149233489Y-83480261D01*
X149078845Y-83449500D01*
X149078842Y-83449500D01*
X148921158Y-83449500D01*
X148921155Y-83449500D01*
X148766510Y-83480261D01*
X148766498Y-83480264D01*
X148620827Y-83540602D01*
X148620814Y-83540609D01*
X148489711Y-83628210D01*
X148489707Y-83628213D01*
X148378213Y-83739707D01*
X148378210Y-83739711D01*
X148290609Y-83870814D01*
X148290602Y-83870827D01*
X148230264Y-84016498D01*
X148230261Y-84016510D01*
X148199500Y-84171153D01*
X146282138Y-84171153D01*
X146292629Y-84118412D01*
X146300500Y-84078844D01*
X146300500Y-83921155D01*
X146300499Y-83921153D01*
X146274531Y-83790606D01*
X146269737Y-83766503D01*
X146269735Y-83766498D01*
X146209397Y-83620827D01*
X146209390Y-83620814D01*
X146121789Y-83489711D01*
X146121786Y-83489707D01*
X146010292Y-83378213D01*
X146010288Y-83378210D01*
X145879185Y-83290609D01*
X145879172Y-83290602D01*
X145733501Y-83230264D01*
X145733491Y-83230261D01*
X145622157Y-83208115D01*
X145560246Y-83175730D01*
X145525672Y-83115014D01*
X145529413Y-83045244D01*
X145570279Y-82988573D01*
X145598893Y-82971938D01*
X145629179Y-82959394D01*
X145686411Y-82921153D01*
X171699500Y-82921153D01*
X171699500Y-83078846D01*
X171730261Y-83233489D01*
X171730264Y-83233501D01*
X171790602Y-83379172D01*
X171790609Y-83379185D01*
X171878210Y-83510288D01*
X171878213Y-83510292D01*
X171989707Y-83621786D01*
X171989711Y-83621789D01*
X172120814Y-83709390D01*
X172120827Y-83709397D01*
X172194013Y-83739711D01*
X172266503Y-83769737D01*
X172421153Y-83800499D01*
X172421156Y-83800500D01*
X172421158Y-83800500D01*
X172578844Y-83800500D01*
X172578845Y-83800499D01*
X172733497Y-83769737D01*
X172871635Y-83712519D01*
X172879172Y-83709397D01*
X172879172Y-83709396D01*
X172879179Y-83709394D01*
X173010289Y-83621789D01*
X173121789Y-83510289D01*
X173209394Y-83379179D01*
X173212854Y-83370827D01*
X173244760Y-83293797D01*
X173269737Y-83233497D01*
X173300500Y-83078842D01*
X173300500Y-82921158D01*
X173300500Y-82921155D01*
X173300499Y-82921153D01*
X173292272Y-82879792D01*
X173269737Y-82766503D01*
X173223137Y-82653999D01*
X173209397Y-82620827D01*
X173209390Y-82620814D01*
X173121789Y-82489711D01*
X173121786Y-82489707D01*
X173010292Y-82378213D01*
X173010288Y-82378210D01*
X172879185Y-82290609D01*
X172879172Y-82290602D01*
X172733501Y-82230264D01*
X172733489Y-82230261D01*
X172578845Y-82199500D01*
X172578842Y-82199500D01*
X172421158Y-82199500D01*
X172421155Y-82199500D01*
X172266510Y-82230261D01*
X172266498Y-82230264D01*
X172120827Y-82290602D01*
X172120814Y-82290609D01*
X171989711Y-82378210D01*
X171989707Y-82378213D01*
X171878213Y-82489707D01*
X171878210Y-82489711D01*
X171790609Y-82620814D01*
X171790602Y-82620827D01*
X171730264Y-82766498D01*
X171730261Y-82766510D01*
X171699500Y-82921153D01*
X145686411Y-82921153D01*
X145760289Y-82871789D01*
X145871789Y-82760289D01*
X145959394Y-82629179D01*
X145962854Y-82620827D01*
X146017163Y-82489711D01*
X146019737Y-82483497D01*
X146050500Y-82328842D01*
X146050500Y-82171158D01*
X146050500Y-82171155D01*
X146050499Y-82171153D01*
X146019738Y-82016510D01*
X146019737Y-82016503D01*
X146019735Y-82016498D01*
X145959397Y-81870827D01*
X145959390Y-81870814D01*
X145871789Y-81739711D01*
X145871786Y-81739707D01*
X145760292Y-81628213D01*
X145760288Y-81628210D01*
X145629185Y-81540609D01*
X145629172Y-81540602D01*
X145483501Y-81480264D01*
X145483489Y-81480261D01*
X145328845Y-81449500D01*
X145328842Y-81449500D01*
X145171158Y-81449500D01*
X145171155Y-81449500D01*
X145016510Y-81480261D01*
X145016498Y-81480264D01*
X144870827Y-81540602D01*
X144870814Y-81540609D01*
X144739711Y-81628210D01*
X144739707Y-81628213D01*
X144628211Y-81739709D01*
X144624680Y-81744995D01*
X144571066Y-81789799D01*
X144501741Y-81798505D01*
X144438714Y-81768349D01*
X144401996Y-81708905D01*
X144399106Y-81695499D01*
X144397247Y-81683761D01*
X144397246Y-81683760D01*
X144397246Y-81683757D01*
X144331557Y-81481588D01*
X144235051Y-81292184D01*
X144235049Y-81292181D01*
X144235048Y-81292179D01*
X144110109Y-81120213D01*
X143959786Y-80969890D01*
X143787820Y-80844951D01*
X143598414Y-80748444D01*
X143598413Y-80748443D01*
X143598412Y-80748443D01*
X143396243Y-80682754D01*
X143396241Y-80682753D01*
X143396240Y-80682753D01*
X143234957Y-80657208D01*
X143186287Y-80649500D01*
X142973713Y-80649500D01*
X142925042Y-80657208D01*
X142763760Y-80682753D01*
X142690841Y-80706446D01*
X142607612Y-80733489D01*
X142561585Y-80748444D01*
X142372179Y-80844951D01*
X142200213Y-80969890D01*
X142049890Y-81120213D01*
X141924949Y-81292182D01*
X141920484Y-81300946D01*
X141872509Y-81351742D01*
X141804688Y-81368536D01*
X141738553Y-81345998D01*
X141699516Y-81300946D01*
X141695050Y-81292182D01*
X141570109Y-81120213D01*
X141419786Y-80969890D01*
X141247820Y-80844951D01*
X141058414Y-80748444D01*
X141058413Y-80748443D01*
X141058412Y-80748443D01*
X140856243Y-80682754D01*
X140856241Y-80682753D01*
X140856240Y-80682753D01*
X140694957Y-80657208D01*
X140646287Y-80649500D01*
X140433713Y-80649500D01*
X140385042Y-80657208D01*
X140223760Y-80682753D01*
X140150841Y-80706446D01*
X140067612Y-80733489D01*
X140021585Y-80748444D01*
X139832179Y-80844951D01*
X139660213Y-80969890D01*
X139509890Y-81120213D01*
X139384949Y-81292182D01*
X139380484Y-81300946D01*
X139332509Y-81351742D01*
X139264688Y-81368536D01*
X139198553Y-81345998D01*
X139159516Y-81300946D01*
X139155050Y-81292182D01*
X139030109Y-81120213D01*
X138879786Y-80969890D01*
X138707820Y-80844951D01*
X138518414Y-80748444D01*
X138518413Y-80748443D01*
X138518412Y-80748443D01*
X138316243Y-80682754D01*
X138316241Y-80682753D01*
X138316240Y-80682753D01*
X138154957Y-80657208D01*
X138106287Y-80649500D01*
X137893713Y-80649500D01*
X137845042Y-80657208D01*
X137683760Y-80682753D01*
X137610841Y-80706446D01*
X137527612Y-80733489D01*
X137481585Y-80748444D01*
X137292179Y-80844951D01*
X137120213Y-80969890D01*
X136969890Y-81120213D01*
X136844949Y-81292182D01*
X136840484Y-81300946D01*
X136792509Y-81351742D01*
X136724688Y-81368536D01*
X136658553Y-81345998D01*
X136619516Y-81300946D01*
X136615050Y-81292182D01*
X136490109Y-81120213D01*
X136339786Y-80969890D01*
X136167820Y-80844951D01*
X135978414Y-80748444D01*
X135978413Y-80748443D01*
X135978412Y-80748443D01*
X135776243Y-80682754D01*
X135776241Y-80682753D01*
X135776240Y-80682753D01*
X135614957Y-80657208D01*
X135566287Y-80649500D01*
X135353713Y-80649500D01*
X135305042Y-80657208D01*
X135143760Y-80682753D01*
X135070841Y-80706446D01*
X134987612Y-80733489D01*
X134941585Y-80748444D01*
X134752179Y-80844951D01*
X134580213Y-80969890D01*
X134429890Y-81120213D01*
X134304949Y-81292182D01*
X134300484Y-81300946D01*
X134252509Y-81351742D01*
X134184688Y-81368536D01*
X134118553Y-81345998D01*
X134079516Y-81300946D01*
X134075050Y-81292182D01*
X133950109Y-81120213D01*
X133799786Y-80969890D01*
X133627820Y-80844951D01*
X133438414Y-80748444D01*
X133438413Y-80748443D01*
X133438412Y-80748443D01*
X133236243Y-80682754D01*
X133236241Y-80682753D01*
X133236240Y-80682753D01*
X133074957Y-80657208D01*
X133026287Y-80649500D01*
X132813713Y-80649500D01*
X132765042Y-80657208D01*
X132603760Y-80682753D01*
X132530841Y-80706446D01*
X132447612Y-80733489D01*
X132401585Y-80748444D01*
X132212179Y-80844951D01*
X132040213Y-80969890D01*
X131889890Y-81120213D01*
X131764949Y-81292182D01*
X131760484Y-81300946D01*
X131712509Y-81351742D01*
X131644688Y-81368536D01*
X131578553Y-81345998D01*
X131539516Y-81300946D01*
X131535050Y-81292182D01*
X131410109Y-81120213D01*
X131259786Y-80969890D01*
X131087820Y-80844951D01*
X130898414Y-80748444D01*
X130898413Y-80748443D01*
X130898412Y-80748443D01*
X130696243Y-80682754D01*
X130696241Y-80682753D01*
X130696240Y-80682753D01*
X130534957Y-80657208D01*
X130486287Y-80649500D01*
X130273713Y-80649500D01*
X130225042Y-80657208D01*
X130063760Y-80682753D01*
X129990841Y-80706446D01*
X129907612Y-80733489D01*
X129861585Y-80748444D01*
X129672179Y-80844951D01*
X129500213Y-80969890D01*
X129349890Y-81120213D01*
X129224949Y-81292182D01*
X129220484Y-81300946D01*
X129172509Y-81351742D01*
X129104688Y-81368536D01*
X129038553Y-81345998D01*
X128999516Y-81300946D01*
X128995050Y-81292182D01*
X128870109Y-81120213D01*
X128719786Y-80969890D01*
X128547820Y-80844951D01*
X128358414Y-80748444D01*
X128358413Y-80748443D01*
X128358412Y-80748443D01*
X128156243Y-80682754D01*
X128156241Y-80682753D01*
X128156240Y-80682753D01*
X127994957Y-80657208D01*
X127946287Y-80649500D01*
X127733713Y-80649500D01*
X127685042Y-80657208D01*
X127523760Y-80682753D01*
X127450841Y-80706446D01*
X127367612Y-80733489D01*
X127321585Y-80748444D01*
X127132179Y-80844951D01*
X126960215Y-80969889D01*
X126846673Y-81083431D01*
X126785350Y-81116915D01*
X126715658Y-81111931D01*
X126659725Y-81070059D01*
X126642810Y-81039082D01*
X126593797Y-80907671D01*
X126593793Y-80907664D01*
X126507547Y-80792455D01*
X126507544Y-80792452D01*
X126392335Y-80706206D01*
X126392328Y-80706202D01*
X126257482Y-80655908D01*
X126257483Y-80655908D01*
X126197883Y-80649501D01*
X126197881Y-80649500D01*
X126197873Y-80649500D01*
X126197864Y-80649500D01*
X124402129Y-80649500D01*
X124402123Y-80649501D01*
X124342516Y-80655908D01*
X124207671Y-80706202D01*
X124207664Y-80706206D01*
X124092455Y-80792452D01*
X124092452Y-80792455D01*
X124006206Y-80907664D01*
X124006202Y-80907671D01*
X123955908Y-81042517D01*
X123949501Y-81102116D01*
X123949500Y-81102135D01*
X122250500Y-81102135D01*
X122250500Y-80421153D01*
X164199500Y-80421153D01*
X164199500Y-80578846D01*
X164230261Y-80733489D01*
X164230264Y-80733501D01*
X164290602Y-80879172D01*
X164290609Y-80879185D01*
X164378210Y-81010288D01*
X164378213Y-81010292D01*
X164489707Y-81121786D01*
X164489711Y-81121789D01*
X164620814Y-81209390D01*
X164620827Y-81209397D01*
X164726079Y-81252993D01*
X164766503Y-81269737D01*
X164879326Y-81292179D01*
X164921153Y-81300499D01*
X164921156Y-81300500D01*
X164921158Y-81300500D01*
X165078844Y-81300500D01*
X165078845Y-81300499D01*
X165233497Y-81269737D01*
X165379179Y-81209394D01*
X165510289Y-81121789D01*
X165621789Y-81010289D01*
X165681348Y-80921153D01*
X166699500Y-80921153D01*
X166699500Y-81078846D01*
X166730261Y-81233489D01*
X166730264Y-81233501D01*
X166790602Y-81379172D01*
X166790609Y-81379185D01*
X166878210Y-81510288D01*
X166878213Y-81510292D01*
X166989707Y-81621786D01*
X166989711Y-81621789D01*
X167120814Y-81709390D01*
X167120827Y-81709397D01*
X167261223Y-81767550D01*
X167266503Y-81769737D01*
X167411129Y-81798505D01*
X167421153Y-81800499D01*
X167421156Y-81800500D01*
X167421158Y-81800500D01*
X167578844Y-81800500D01*
X167578845Y-81800499D01*
X167733497Y-81769737D01*
X167879179Y-81709394D01*
X168010289Y-81621789D01*
X168121789Y-81510289D01*
X168209394Y-81379179D01*
X168213803Y-81368536D01*
X168245430Y-81292179D01*
X168269737Y-81233497D01*
X168300500Y-81078842D01*
X168300500Y-80921158D01*
X168300500Y-80921155D01*
X168300499Y-80921153D01*
X168289849Y-80867611D01*
X168269737Y-80766503D01*
X168244861Y-80706446D01*
X168209397Y-80620827D01*
X168209390Y-80620814D01*
X168121789Y-80489711D01*
X168121786Y-80489707D01*
X168010292Y-80378213D01*
X168010288Y-80378210D01*
X167879185Y-80290609D01*
X167879172Y-80290602D01*
X167733501Y-80230264D01*
X167733489Y-80230261D01*
X167578845Y-80199500D01*
X167578842Y-80199500D01*
X167421158Y-80199500D01*
X167421155Y-80199500D01*
X167266510Y-80230261D01*
X167266498Y-80230264D01*
X167120827Y-80290602D01*
X167120814Y-80290609D01*
X166989711Y-80378210D01*
X166989707Y-80378213D01*
X166878213Y-80489707D01*
X166878210Y-80489711D01*
X166790609Y-80620814D01*
X166790602Y-80620827D01*
X166730264Y-80766498D01*
X166730261Y-80766510D01*
X166699500Y-80921153D01*
X165681348Y-80921153D01*
X165709394Y-80879179D01*
X165769737Y-80733497D01*
X165800500Y-80578842D01*
X165800500Y-80421158D01*
X165800500Y-80421155D01*
X165800499Y-80421153D01*
X165774531Y-80290606D01*
X165769737Y-80266503D01*
X165769735Y-80266498D01*
X165709397Y-80120827D01*
X165709390Y-80120814D01*
X165621789Y-79989711D01*
X165621786Y-79989707D01*
X165510292Y-79878213D01*
X165510288Y-79878210D01*
X165379185Y-79790609D01*
X165379172Y-79790602D01*
X165233501Y-79730264D01*
X165233489Y-79730261D01*
X165078845Y-79699500D01*
X165078842Y-79699500D01*
X164921158Y-79699500D01*
X164921155Y-79699500D01*
X164766510Y-79730261D01*
X164766498Y-79730264D01*
X164620827Y-79790602D01*
X164620814Y-79790609D01*
X164489711Y-79878210D01*
X164489707Y-79878213D01*
X164378213Y-79989707D01*
X164378210Y-79989711D01*
X164290609Y-80120814D01*
X164290602Y-80120827D01*
X164230264Y-80266498D01*
X164230261Y-80266510D01*
X164199500Y-80421153D01*
X122250500Y-80421153D01*
X122250500Y-78421153D01*
X131199500Y-78421153D01*
X131199500Y-78578846D01*
X131230261Y-78733489D01*
X131230264Y-78733501D01*
X131290602Y-78879172D01*
X131290609Y-78879185D01*
X131378210Y-79010288D01*
X131378213Y-79010292D01*
X131489707Y-79121786D01*
X131489711Y-79121789D01*
X131620814Y-79209390D01*
X131620827Y-79209397D01*
X131766498Y-79269735D01*
X131766503Y-79269737D01*
X131921153Y-79300499D01*
X131921156Y-79300500D01*
X131921158Y-79300500D01*
X132078844Y-79300500D01*
X132078845Y-79300499D01*
X132233497Y-79269737D01*
X132379179Y-79209394D01*
X132510289Y-79121789D01*
X132621789Y-79010289D01*
X132681348Y-78921153D01*
X145199500Y-78921153D01*
X145199500Y-79078846D01*
X145230261Y-79233489D01*
X145230264Y-79233501D01*
X145290602Y-79379172D01*
X145290609Y-79379185D01*
X145378210Y-79510288D01*
X145378213Y-79510292D01*
X145489707Y-79621786D01*
X145489711Y-79621789D01*
X145620814Y-79709390D01*
X145620827Y-79709397D01*
X145766498Y-79769735D01*
X145766503Y-79769737D01*
X145896459Y-79795587D01*
X145921153Y-79800499D01*
X145921156Y-79800500D01*
X145921158Y-79800500D01*
X146078844Y-79800500D01*
X146078845Y-79800499D01*
X146233497Y-79769737D01*
X146346166Y-79723067D01*
X146379172Y-79709397D01*
X146379172Y-79709396D01*
X146379179Y-79709394D01*
X146510289Y-79621789D01*
X146621789Y-79510289D01*
X146709394Y-79379179D01*
X146769737Y-79233497D01*
X146800500Y-79078842D01*
X146800500Y-78921158D01*
X146800500Y-78921155D01*
X146800499Y-78921153D01*
X146769738Y-78766510D01*
X146769737Y-78766503D01*
X146769735Y-78766498D01*
X146709397Y-78620827D01*
X146709390Y-78620814D01*
X146631308Y-78503957D01*
X146631307Y-78503956D01*
X146621787Y-78489708D01*
X146573232Y-78441153D01*
X171219500Y-78441153D01*
X171219500Y-78598846D01*
X171250261Y-78753489D01*
X171250264Y-78753501D01*
X171310602Y-78899172D01*
X171310609Y-78899185D01*
X171398210Y-79030288D01*
X171398213Y-79030292D01*
X171509707Y-79141786D01*
X171509711Y-79141789D01*
X171640814Y-79229390D01*
X171640827Y-79229397D01*
X171786498Y-79289735D01*
X171786503Y-79289737D01*
X171941153Y-79320499D01*
X171941156Y-79320500D01*
X171941158Y-79320500D01*
X172098844Y-79320500D01*
X172098845Y-79320499D01*
X172253497Y-79289737D01*
X172389264Y-79233501D01*
X172399172Y-79229397D01*
X172399172Y-79229396D01*
X172399179Y-79229394D01*
X172530289Y-79141789D01*
X172641789Y-79030289D01*
X172729394Y-78899179D01*
X172789737Y-78753497D01*
X172820500Y-78598842D01*
X172820500Y-78441158D01*
X172820500Y-78441155D01*
X172820499Y-78441153D01*
X172807979Y-78378210D01*
X172789737Y-78286503D01*
X172755463Y-78203757D01*
X172729397Y-78140827D01*
X172729390Y-78140814D01*
X172641789Y-78009711D01*
X172641786Y-78009707D01*
X172530292Y-77898213D01*
X172530288Y-77898210D01*
X172399185Y-77810609D01*
X172399172Y-77810602D01*
X172253501Y-77750264D01*
X172253489Y-77750261D01*
X172098845Y-77719500D01*
X172098842Y-77719500D01*
X171941158Y-77719500D01*
X171941155Y-77719500D01*
X171786510Y-77750261D01*
X171786498Y-77750264D01*
X171640827Y-77810602D01*
X171640814Y-77810609D01*
X171509711Y-77898210D01*
X171509707Y-77898213D01*
X171398213Y-78009707D01*
X171398210Y-78009711D01*
X171310609Y-78140814D01*
X171310602Y-78140827D01*
X171250264Y-78286498D01*
X171250261Y-78286510D01*
X171219500Y-78441153D01*
X146573232Y-78441153D01*
X146510292Y-78378213D01*
X146510288Y-78378210D01*
X146379185Y-78290609D01*
X146379172Y-78290602D01*
X146233501Y-78230264D01*
X146233489Y-78230261D01*
X146078845Y-78199500D01*
X146078842Y-78199500D01*
X145921158Y-78199500D01*
X145921155Y-78199500D01*
X145766510Y-78230261D01*
X145766498Y-78230264D01*
X145620827Y-78290602D01*
X145620814Y-78290609D01*
X145489711Y-78378210D01*
X145489707Y-78378213D01*
X145378213Y-78489707D01*
X145378210Y-78489711D01*
X145290609Y-78620814D01*
X145290602Y-78620827D01*
X145230264Y-78766498D01*
X145230261Y-78766510D01*
X145199500Y-78921153D01*
X132681348Y-78921153D01*
X132709394Y-78879179D01*
X132769737Y-78733497D01*
X132800500Y-78578842D01*
X132800500Y-78421158D01*
X132800500Y-78421155D01*
X132800499Y-78421153D01*
X132774531Y-78290606D01*
X132769737Y-78266503D01*
X132769735Y-78266498D01*
X132709397Y-78120827D01*
X132709390Y-78120814D01*
X132621789Y-77989711D01*
X132621786Y-77989707D01*
X132510292Y-77878213D01*
X132510288Y-77878210D01*
X132379185Y-77790609D01*
X132379172Y-77790602D01*
X132233501Y-77730264D01*
X132233489Y-77730261D01*
X132078845Y-77699500D01*
X132078842Y-77699500D01*
X131921158Y-77699500D01*
X131921155Y-77699500D01*
X131766510Y-77730261D01*
X131766498Y-77730264D01*
X131620827Y-77790602D01*
X131620814Y-77790609D01*
X131489711Y-77878210D01*
X131489707Y-77878213D01*
X131378213Y-77989707D01*
X131378210Y-77989711D01*
X131290609Y-78120814D01*
X131290602Y-78120827D01*
X131230264Y-78266498D01*
X131230261Y-78266510D01*
X131199500Y-78421153D01*
X122250500Y-78421153D01*
X122250500Y-76421153D01*
X139199500Y-76421153D01*
X139199500Y-76578846D01*
X139230261Y-76733489D01*
X139230264Y-76733501D01*
X139290602Y-76879172D01*
X139290609Y-76879185D01*
X139378210Y-77010288D01*
X139378213Y-77010292D01*
X139489707Y-77121786D01*
X139489711Y-77121789D01*
X139620814Y-77209390D01*
X139620827Y-77209397D01*
X139763379Y-77268443D01*
X139766503Y-77269737D01*
X139921153Y-77300499D01*
X139921156Y-77300500D01*
X139921158Y-77300500D01*
X140078844Y-77300500D01*
X140078845Y-77300499D01*
X140233497Y-77269737D01*
X140379179Y-77209394D01*
X140510289Y-77121789D01*
X140621789Y-77010289D01*
X140709394Y-76879179D01*
X140769737Y-76733497D01*
X140800500Y-76578842D01*
X140800500Y-76421158D01*
X140800500Y-76421155D01*
X140800499Y-76421153D01*
X145199500Y-76421153D01*
X145199500Y-76578846D01*
X145230261Y-76733489D01*
X145230264Y-76733501D01*
X145290602Y-76879172D01*
X145290609Y-76879185D01*
X145378210Y-77010288D01*
X145378213Y-77010292D01*
X145489707Y-77121786D01*
X145489711Y-77121789D01*
X145620814Y-77209390D01*
X145620827Y-77209397D01*
X145763379Y-77268443D01*
X145766503Y-77269737D01*
X145921153Y-77300499D01*
X145921156Y-77300500D01*
X145921158Y-77300500D01*
X146078844Y-77300500D01*
X146078845Y-77300499D01*
X146233497Y-77269737D01*
X146379179Y-77209394D01*
X146510289Y-77121789D01*
X146621789Y-77010289D01*
X146709394Y-76879179D01*
X146769737Y-76733497D01*
X146800500Y-76578842D01*
X146800500Y-76421158D01*
X146800500Y-76421155D01*
X146800499Y-76421153D01*
X146789849Y-76367611D01*
X146769737Y-76266503D01*
X146722322Y-76152031D01*
X146709397Y-76120827D01*
X146709390Y-76120814D01*
X146621790Y-75989712D01*
X146621784Y-75989705D01*
X146553232Y-75921153D01*
X152949500Y-75921153D01*
X152949500Y-76078846D01*
X152980261Y-76233489D01*
X152980264Y-76233501D01*
X153040602Y-76379172D01*
X153040609Y-76379185D01*
X153128210Y-76510288D01*
X153128213Y-76510292D01*
X153239707Y-76621786D01*
X153239711Y-76621789D01*
X153370814Y-76709390D01*
X153370827Y-76709397D01*
X153516498Y-76769735D01*
X153516503Y-76769737D01*
X153671153Y-76800499D01*
X153671156Y-76800500D01*
X153671158Y-76800500D01*
X153828844Y-76800500D01*
X153828845Y-76800499D01*
X153983497Y-76769737D01*
X154129179Y-76709394D01*
X154260289Y-76621789D01*
X154371789Y-76510289D01*
X154431348Y-76421153D01*
X169199500Y-76421153D01*
X169199500Y-76578846D01*
X169230261Y-76733489D01*
X169230264Y-76733501D01*
X169290602Y-76879172D01*
X169290609Y-76879185D01*
X169378210Y-77010288D01*
X169378213Y-77010292D01*
X169489707Y-77121786D01*
X169489711Y-77121789D01*
X169620814Y-77209390D01*
X169620827Y-77209397D01*
X169763379Y-77268443D01*
X169766503Y-77269737D01*
X169921153Y-77300499D01*
X169921156Y-77300500D01*
X169921158Y-77300500D01*
X170078844Y-77300500D01*
X170078845Y-77300499D01*
X170233497Y-77269737D01*
X170379179Y-77209394D01*
X170510289Y-77121789D01*
X170621789Y-77010289D01*
X170709394Y-76879179D01*
X170769737Y-76733497D01*
X170800500Y-76578842D01*
X170800500Y-76421158D01*
X170800500Y-76421155D01*
X170800499Y-76421153D01*
X170789849Y-76367611D01*
X170769737Y-76266503D01*
X170722322Y-76152031D01*
X170709397Y-76120827D01*
X170709390Y-76120814D01*
X170621789Y-75989711D01*
X170621786Y-75989707D01*
X170510292Y-75878213D01*
X170510288Y-75878210D01*
X170379185Y-75790609D01*
X170379172Y-75790602D01*
X170233501Y-75730264D01*
X170233489Y-75730261D01*
X170078845Y-75699500D01*
X170078842Y-75699500D01*
X169921158Y-75699500D01*
X169921155Y-75699500D01*
X169766510Y-75730261D01*
X169766498Y-75730264D01*
X169620827Y-75790602D01*
X169620814Y-75790609D01*
X169489711Y-75878210D01*
X169489707Y-75878213D01*
X169378213Y-75989707D01*
X169378210Y-75989711D01*
X169290609Y-76120814D01*
X169290602Y-76120827D01*
X169230264Y-76266498D01*
X169230261Y-76266510D01*
X169199500Y-76421153D01*
X154431348Y-76421153D01*
X154459394Y-76379179D01*
X154519737Y-76233497D01*
X154550500Y-76078842D01*
X154550500Y-75921158D01*
X154550500Y-75921155D01*
X154550499Y-75921153D01*
X154541281Y-75874812D01*
X154519737Y-75766503D01*
X154504908Y-75730703D01*
X154459397Y-75620827D01*
X154459390Y-75620814D01*
X154371789Y-75489711D01*
X154371786Y-75489707D01*
X154260291Y-75378212D01*
X154247551Y-75369700D01*
X154247550Y-75369699D01*
X154129185Y-75290609D01*
X154129172Y-75290602D01*
X154085913Y-75272684D01*
X156445219Y-75272684D01*
X156445219Y-75430377D01*
X156475980Y-75585020D01*
X156475983Y-75585032D01*
X156536321Y-75730703D01*
X156536328Y-75730716D01*
X156623929Y-75861819D01*
X156623932Y-75861823D01*
X156735426Y-75973317D01*
X156735430Y-75973320D01*
X156866533Y-76060921D01*
X156866546Y-76060928D01*
X157011126Y-76120814D01*
X157012222Y-76121268D01*
X157166872Y-76152030D01*
X157166875Y-76152031D01*
X157166877Y-76152031D01*
X157324563Y-76152031D01*
X157324564Y-76152030D01*
X157479216Y-76121268D01*
X157624898Y-76060925D01*
X157756008Y-75973320D01*
X157775151Y-75954176D01*
X157836472Y-75920690D01*
X157906164Y-75925673D01*
X157950514Y-75954175D01*
X157982648Y-75986309D01*
X157982652Y-75986312D01*
X158113755Y-76073913D01*
X158113768Y-76073920D01*
X158259439Y-76134258D01*
X158259444Y-76134260D01*
X158414094Y-76165022D01*
X158414097Y-76165023D01*
X158414099Y-76165023D01*
X158571785Y-76165023D01*
X158571786Y-76165022D01*
X158726438Y-76134260D01*
X158872120Y-76073917D01*
X159003230Y-75986312D01*
X159074342Y-75915199D01*
X159135662Y-75881715D01*
X159205354Y-75886699D01*
X159249703Y-75915200D01*
X159294828Y-75960325D01*
X159294832Y-75960328D01*
X159425935Y-76047929D01*
X159425948Y-76047936D01*
X159518537Y-76086287D01*
X159571624Y-76108276D01*
X159702254Y-76134260D01*
X159726274Y-76139038D01*
X159726277Y-76139039D01*
X159726279Y-76139039D01*
X159883965Y-76139039D01*
X159883966Y-76139038D01*
X160038618Y-76108276D01*
X160184300Y-76047933D01*
X160315410Y-75960328D01*
X160426910Y-75848828D01*
X160514515Y-75717718D01*
X160574858Y-75572036D01*
X160605621Y-75417381D01*
X160605621Y-75259697D01*
X160605621Y-75259694D01*
X160605620Y-75259692D01*
X160593647Y-75199500D01*
X160574858Y-75105042D01*
X160519899Y-74972358D01*
X160514518Y-74959366D01*
X160514511Y-74959353D01*
X160426910Y-74828250D01*
X160426907Y-74828246D01*
X160315413Y-74716752D01*
X160315409Y-74716749D01*
X160184306Y-74629148D01*
X160184293Y-74629141D01*
X160038622Y-74568803D01*
X160038610Y-74568800D01*
X159883966Y-74538039D01*
X159883963Y-74538039D01*
X159726279Y-74538039D01*
X159726276Y-74538039D01*
X159571631Y-74568800D01*
X159571619Y-74568803D01*
X159425948Y-74629141D01*
X159425935Y-74629148D01*
X159294832Y-74716749D01*
X159294828Y-74716752D01*
X159223720Y-74787861D01*
X159162397Y-74821346D01*
X159092705Y-74816362D01*
X159048358Y-74787861D01*
X159003233Y-74742736D01*
X159003229Y-74742733D01*
X158872126Y-74655132D01*
X158872113Y-74655125D01*
X158726442Y-74594787D01*
X158726430Y-74594784D01*
X158571786Y-74564023D01*
X158571783Y-74564023D01*
X158414099Y-74564023D01*
X158414096Y-74564023D01*
X158259451Y-74594784D01*
X158259439Y-74594787D01*
X158113768Y-74655125D01*
X158113755Y-74655132D01*
X157982655Y-74742731D01*
X157982649Y-74742735D01*
X157963505Y-74761880D01*
X157902182Y-74795364D01*
X157832490Y-74790378D01*
X157788145Y-74761878D01*
X157756011Y-74729744D01*
X157756007Y-74729741D01*
X157624904Y-74642140D01*
X157624891Y-74642133D01*
X157479220Y-74581795D01*
X157479208Y-74581792D01*
X157324564Y-74551031D01*
X157324561Y-74551031D01*
X157166877Y-74551031D01*
X157166874Y-74551031D01*
X157012229Y-74581792D01*
X157012217Y-74581795D01*
X156866546Y-74642133D01*
X156866533Y-74642140D01*
X156735430Y-74729741D01*
X156735426Y-74729744D01*
X156623932Y-74841238D01*
X156623929Y-74841242D01*
X156536328Y-74972345D01*
X156536321Y-74972358D01*
X156475983Y-75118029D01*
X156475980Y-75118041D01*
X156445219Y-75272684D01*
X154085913Y-75272684D01*
X153983501Y-75230264D01*
X153983489Y-75230261D01*
X153828845Y-75199500D01*
X153828842Y-75199500D01*
X153671158Y-75199500D01*
X153671155Y-75199500D01*
X153516510Y-75230261D01*
X153516498Y-75230264D01*
X153370827Y-75290602D01*
X153370814Y-75290609D01*
X153239711Y-75378210D01*
X153239707Y-75378213D01*
X153128213Y-75489707D01*
X153128210Y-75489711D01*
X153040609Y-75620814D01*
X153040602Y-75620827D01*
X152980264Y-75766498D01*
X152980261Y-75766510D01*
X152949500Y-75921153D01*
X146553232Y-75921153D01*
X146510292Y-75878213D01*
X146510288Y-75878210D01*
X146379185Y-75790609D01*
X146379172Y-75790602D01*
X146233501Y-75730264D01*
X146233489Y-75730261D01*
X146078845Y-75699500D01*
X146078842Y-75699500D01*
X145921158Y-75699500D01*
X145921155Y-75699500D01*
X145766510Y-75730261D01*
X145766498Y-75730264D01*
X145620827Y-75790602D01*
X145620814Y-75790609D01*
X145489711Y-75878210D01*
X145489707Y-75878213D01*
X145378213Y-75989707D01*
X145378210Y-75989711D01*
X145290609Y-76120814D01*
X145290602Y-76120827D01*
X145230264Y-76266498D01*
X145230261Y-76266510D01*
X145199500Y-76421153D01*
X140800499Y-76421153D01*
X140789849Y-76367611D01*
X140769737Y-76266503D01*
X140722322Y-76152031D01*
X140709397Y-76120827D01*
X140709390Y-76120814D01*
X140621789Y-75989711D01*
X140621786Y-75989707D01*
X140510292Y-75878213D01*
X140510288Y-75878210D01*
X140379185Y-75790609D01*
X140379172Y-75790602D01*
X140233501Y-75730264D01*
X140233489Y-75730261D01*
X140078845Y-75699500D01*
X140078842Y-75699500D01*
X139921158Y-75699500D01*
X139921155Y-75699500D01*
X139766510Y-75730261D01*
X139766498Y-75730264D01*
X139620827Y-75790602D01*
X139620814Y-75790609D01*
X139489711Y-75878210D01*
X139489707Y-75878213D01*
X139378213Y-75989707D01*
X139378210Y-75989711D01*
X139290609Y-76120814D01*
X139290602Y-76120827D01*
X139230264Y-76266498D01*
X139230261Y-76266510D01*
X139199500Y-76421153D01*
X122250500Y-76421153D01*
X122250500Y-74921153D01*
X141199500Y-74921153D01*
X141199500Y-75078846D01*
X141230261Y-75233489D01*
X141230264Y-75233501D01*
X141290602Y-75379172D01*
X141290609Y-75379185D01*
X141378210Y-75510288D01*
X141378213Y-75510292D01*
X141489707Y-75621786D01*
X141489711Y-75621789D01*
X141620814Y-75709390D01*
X141620827Y-75709397D01*
X141758683Y-75766498D01*
X141766503Y-75769737D01*
X141921153Y-75800499D01*
X141921156Y-75800500D01*
X141921158Y-75800500D01*
X142078844Y-75800500D01*
X142078845Y-75800499D01*
X142233497Y-75769737D01*
X142346166Y-75723067D01*
X142379172Y-75709397D01*
X142379172Y-75709396D01*
X142379179Y-75709394D01*
X142510289Y-75621789D01*
X142621789Y-75510289D01*
X142709394Y-75379179D01*
X142769737Y-75233497D01*
X142800500Y-75078842D01*
X142800500Y-74921158D01*
X142800500Y-74921155D01*
X142800499Y-74921153D01*
X142786587Y-74851214D01*
X142769737Y-74766503D01*
X142767821Y-74761878D01*
X142709397Y-74620827D01*
X142709390Y-74620814D01*
X142621789Y-74489711D01*
X142621786Y-74489707D01*
X142510292Y-74378213D01*
X142510288Y-74378210D01*
X142379185Y-74290609D01*
X142379172Y-74290602D01*
X142233501Y-74230264D01*
X142233489Y-74230261D01*
X142078845Y-74199500D01*
X142078842Y-74199500D01*
X141921158Y-74199500D01*
X141921155Y-74199500D01*
X141766510Y-74230261D01*
X141766498Y-74230264D01*
X141620827Y-74290602D01*
X141620814Y-74290609D01*
X141489711Y-74378210D01*
X141489707Y-74378213D01*
X141378213Y-74489707D01*
X141378210Y-74489711D01*
X141290609Y-74620814D01*
X141290602Y-74620827D01*
X141230264Y-74766498D01*
X141230261Y-74766510D01*
X141199500Y-74921153D01*
X122250500Y-74921153D01*
X122250500Y-71907941D01*
X126349500Y-71907941D01*
X126349500Y-72157058D01*
X126349501Y-72157075D01*
X126382017Y-72404061D01*
X126446498Y-72644707D01*
X126541830Y-72874861D01*
X126541837Y-72874876D01*
X126666400Y-73090626D01*
X126818060Y-73288274D01*
X126818066Y-73288281D01*
X126994218Y-73464433D01*
X126994225Y-73464439D01*
X127191873Y-73616099D01*
X127407623Y-73740662D01*
X127407638Y-73740669D01*
X127506825Y-73781753D01*
X127637793Y-73836002D01*
X127878435Y-73900482D01*
X128125435Y-73933000D01*
X128125442Y-73933000D01*
X128374558Y-73933000D01*
X128374565Y-73933000D01*
X128621565Y-73900482D01*
X128862207Y-73836002D01*
X129092373Y-73740664D01*
X129308127Y-73616099D01*
X129505776Y-73464438D01*
X129681938Y-73288276D01*
X129833599Y-73090627D01*
X129958164Y-72874873D01*
X130053502Y-72644707D01*
X130117982Y-72404065D01*
X130150500Y-72157065D01*
X130150500Y-71907935D01*
X130117982Y-71660935D01*
X130053502Y-71420293D01*
X129975819Y-71232750D01*
X129958169Y-71190138D01*
X129958162Y-71190123D01*
X129833599Y-70974373D01*
X129780230Y-70904821D01*
X129724724Y-70832484D01*
X131349500Y-70832484D01*
X131349500Y-73232515D01*
X131360000Y-73335295D01*
X131360001Y-73335297D01*
X131361123Y-73338683D01*
X131415186Y-73501835D01*
X131415187Y-73501837D01*
X131507286Y-73651151D01*
X131507289Y-73651155D01*
X131631344Y-73775210D01*
X131631348Y-73775213D01*
X131780662Y-73867312D01*
X131780664Y-73867313D01*
X131780666Y-73867314D01*
X131947203Y-73922499D01*
X132049992Y-73933000D01*
X132049997Y-73933000D01*
X134450003Y-73933000D01*
X134450008Y-73933000D01*
X134552797Y-73922499D01*
X134719334Y-73867314D01*
X134868655Y-73775211D01*
X134992711Y-73651155D01*
X135084814Y-73501834D01*
X135111549Y-73421153D01*
X144449500Y-73421153D01*
X144449500Y-73578846D01*
X144480261Y-73733489D01*
X144480264Y-73733501D01*
X144540602Y-73879172D01*
X144540609Y-73879185D01*
X144628210Y-74010288D01*
X144628213Y-74010292D01*
X144739707Y-74121786D01*
X144739711Y-74121789D01*
X144870814Y-74209390D01*
X144870827Y-74209397D01*
X145016498Y-74269735D01*
X145016503Y-74269737D01*
X145171153Y-74300499D01*
X145171156Y-74300500D01*
X145171158Y-74300500D01*
X145328844Y-74300500D01*
X145328845Y-74300499D01*
X145483497Y-74269737D01*
X145629179Y-74209394D01*
X145760289Y-74121789D01*
X145871789Y-74010289D01*
X145959394Y-73879179D01*
X146019737Y-73733497D01*
X146050500Y-73578842D01*
X146050500Y-73421158D01*
X146050500Y-73421155D01*
X146050499Y-73421153D01*
X146041530Y-73376063D01*
X146019737Y-73266503D01*
X146005656Y-73232508D01*
X146001451Y-73222355D01*
X145984317Y-73180990D01*
X155548779Y-73180990D01*
X155548779Y-73338683D01*
X155579540Y-73493326D01*
X155579543Y-73493338D01*
X155639881Y-73639009D01*
X155639888Y-73639022D01*
X155727489Y-73770125D01*
X155727492Y-73770129D01*
X155838986Y-73881623D01*
X155838990Y-73881626D01*
X155970093Y-73969227D01*
X155970106Y-73969234D01*
X156095954Y-74021361D01*
X156115782Y-74029574D01*
X156270432Y-74060336D01*
X156270435Y-74060337D01*
X156270437Y-74060337D01*
X156428123Y-74060337D01*
X156428124Y-74060336D01*
X156582776Y-74029574D01*
X156728458Y-73969231D01*
X156859568Y-73881626D01*
X156971068Y-73770126D01*
X157058673Y-73639016D01*
X157119016Y-73493334D01*
X157149779Y-73338679D01*
X157149779Y-73180995D01*
X157149779Y-73180992D01*
X157145627Y-73160120D01*
X157145627Y-73160119D01*
X157142026Y-73142015D01*
X159862086Y-73142015D01*
X159862086Y-73299708D01*
X159892847Y-73454351D01*
X159892850Y-73454363D01*
X159953188Y-73600034D01*
X159953195Y-73600047D01*
X160040796Y-73731150D01*
X160040799Y-73731154D01*
X160152293Y-73842648D01*
X160152297Y-73842651D01*
X160283400Y-73930252D01*
X160283413Y-73930259D01*
X160429084Y-73990597D01*
X160429089Y-73990599D01*
X160528072Y-74010288D01*
X160583739Y-74021361D01*
X160583742Y-74021362D01*
X160583744Y-74021362D01*
X160741430Y-74021362D01*
X160741431Y-74021361D01*
X160896083Y-73990599D01*
X161008752Y-73943929D01*
X161041758Y-73930259D01*
X161041758Y-73930258D01*
X161041765Y-73930256D01*
X161172875Y-73842651D01*
X161284375Y-73731151D01*
X161371980Y-73600041D01*
X161432323Y-73454359D01*
X161456006Y-73335296D01*
X161456321Y-73333713D01*
X176149500Y-73333713D01*
X176149500Y-73546286D01*
X176180286Y-73740664D01*
X176182754Y-73756243D01*
X176240185Y-73932998D01*
X176248444Y-73958414D01*
X176344951Y-74147820D01*
X176469890Y-74319786D01*
X176620213Y-74470109D01*
X176792182Y-74595050D01*
X176800946Y-74599516D01*
X176851742Y-74647491D01*
X176868536Y-74715312D01*
X176845998Y-74781447D01*
X176800946Y-74820484D01*
X176792182Y-74824949D01*
X176620213Y-74949890D01*
X176469890Y-75100213D01*
X176344951Y-75272179D01*
X176248444Y-75461585D01*
X176182753Y-75663760D01*
X176149500Y-75873713D01*
X176149500Y-76086287D01*
X176155041Y-76121269D01*
X176178044Y-76266510D01*
X176182754Y-76296243D01*
X176209700Y-76379175D01*
X176248444Y-76498414D01*
X176344951Y-76687820D01*
X176469890Y-76859786D01*
X176620213Y-77010109D01*
X176792182Y-77135050D01*
X176800946Y-77139516D01*
X176851742Y-77187491D01*
X176868536Y-77255312D01*
X176845998Y-77321447D01*
X176800946Y-77360484D01*
X176792182Y-77364949D01*
X176620213Y-77489890D01*
X176469890Y-77640213D01*
X176344951Y-77812179D01*
X176248444Y-78001585D01*
X176182753Y-78203760D01*
X176149500Y-78413713D01*
X176149500Y-78626286D01*
X176166480Y-78733497D01*
X176182754Y-78836243D01*
X176245803Y-79030288D01*
X176248444Y-79038414D01*
X176344951Y-79227820D01*
X176469890Y-79399786D01*
X176620213Y-79550109D01*
X176792179Y-79675048D01*
X176792181Y-79675049D01*
X176792184Y-79675051D01*
X176801493Y-79679794D01*
X176852290Y-79727766D01*
X176869087Y-79795587D01*
X176846552Y-79861722D01*
X176801505Y-79900760D01*
X176792446Y-79905376D01*
X176792440Y-79905380D01*
X176738282Y-79944727D01*
X176738282Y-79944728D01*
X177370591Y-80577037D01*
X177307007Y-80594075D01*
X177192993Y-80659901D01*
X177099901Y-80752993D01*
X177034075Y-80867007D01*
X177017037Y-80930591D01*
X176384728Y-80298282D01*
X176384727Y-80298282D01*
X176345380Y-80352439D01*
X176248904Y-80541782D01*
X176183242Y-80743869D01*
X176183242Y-80743872D01*
X176150000Y-80953753D01*
X176150000Y-81166246D01*
X176183242Y-81376127D01*
X176183242Y-81376130D01*
X176248904Y-81578217D01*
X176345375Y-81767550D01*
X176384728Y-81821716D01*
X177017037Y-81189408D01*
X177034075Y-81252993D01*
X177099901Y-81367007D01*
X177192993Y-81460099D01*
X177307007Y-81525925D01*
X177370590Y-81542962D01*
X176738282Y-82175269D01*
X176738282Y-82175270D01*
X176792452Y-82214626D01*
X176792451Y-82214626D01*
X176801495Y-82219234D01*
X176852292Y-82267208D01*
X176869087Y-82335029D01*
X176846550Y-82401164D01*
X176801499Y-82440202D01*
X176792182Y-82444949D01*
X176620213Y-82569890D01*
X176469890Y-82720213D01*
X176344951Y-82892179D01*
X176248444Y-83081585D01*
X176182753Y-83283760D01*
X176161183Y-83419950D01*
X176149500Y-83493713D01*
X176149500Y-83706287D01*
X176153298Y-83730264D01*
X176176730Y-83878213D01*
X176182754Y-83916243D01*
X176235587Y-84078846D01*
X176248444Y-84118414D01*
X176344951Y-84307820D01*
X176469890Y-84479786D01*
X176620213Y-84630109D01*
X176792179Y-84755048D01*
X176792181Y-84755049D01*
X176792184Y-84755051D01*
X176981588Y-84851557D01*
X177183757Y-84917246D01*
X177393713Y-84950500D01*
X177393714Y-84950500D01*
X177606286Y-84950500D01*
X177606287Y-84950500D01*
X177816243Y-84917246D01*
X178018412Y-84851557D01*
X178207816Y-84755051D01*
X178270658Y-84709394D01*
X178379786Y-84630109D01*
X178379788Y-84630106D01*
X178379792Y-84630104D01*
X178530104Y-84479792D01*
X178530106Y-84479788D01*
X178530109Y-84479786D01*
X178655048Y-84307820D01*
X178655047Y-84307820D01*
X178655051Y-84307816D01*
X178751557Y-84118412D01*
X178817246Y-83916243D01*
X178850500Y-83706287D01*
X178850500Y-83493713D01*
X178817246Y-83283757D01*
X178751557Y-83081588D01*
X178655051Y-82892184D01*
X178655049Y-82892181D01*
X178655048Y-82892179D01*
X178530109Y-82720213D01*
X178379786Y-82569890D01*
X178207817Y-82444949D01*
X178198504Y-82440204D01*
X178147707Y-82392230D01*
X178130912Y-82324409D01*
X178153449Y-82258274D01*
X178198507Y-82219232D01*
X178207555Y-82214622D01*
X178261716Y-82175270D01*
X178261717Y-82175270D01*
X177629408Y-81542962D01*
X177692993Y-81525925D01*
X177807007Y-81460099D01*
X177900099Y-81367007D01*
X177965925Y-81252993D01*
X177982962Y-81189409D01*
X178615270Y-81821717D01*
X178615270Y-81821716D01*
X178654622Y-81767554D01*
X178751095Y-81578217D01*
X178816757Y-81376130D01*
X178816757Y-81376127D01*
X178850000Y-81166246D01*
X178850000Y-80953753D01*
X178816757Y-80743872D01*
X178816757Y-80743869D01*
X178751095Y-80541782D01*
X178654624Y-80352449D01*
X178615270Y-80298282D01*
X178615269Y-80298282D01*
X177982962Y-80930590D01*
X177965925Y-80867007D01*
X177900099Y-80752993D01*
X177807007Y-80659901D01*
X177692993Y-80594075D01*
X177629409Y-80577037D01*
X178261716Y-79944728D01*
X178207547Y-79905373D01*
X178207547Y-79905372D01*
X178198500Y-79900763D01*
X178147706Y-79852788D01*
X178130912Y-79784966D01*
X178153451Y-79718832D01*
X178198508Y-79679793D01*
X178207816Y-79675051D01*
X178287007Y-79617515D01*
X178379786Y-79550109D01*
X178379788Y-79550106D01*
X178379792Y-79550104D01*
X178530104Y-79399792D01*
X178530106Y-79399788D01*
X178530109Y-79399786D01*
X178650921Y-79233501D01*
X178655051Y-79227816D01*
X178751557Y-79038412D01*
X178817246Y-78836243D01*
X178850500Y-78626287D01*
X178850500Y-78413713D01*
X178817246Y-78203757D01*
X178751557Y-78001588D01*
X178655051Y-77812184D01*
X178655049Y-77812181D01*
X178655048Y-77812179D01*
X178530109Y-77640213D01*
X178379786Y-77489890D01*
X178207820Y-77364951D01*
X178207115Y-77364591D01*
X178199054Y-77360485D01*
X178148259Y-77312512D01*
X178131463Y-77244692D01*
X178153999Y-77178556D01*
X178199054Y-77139515D01*
X178207816Y-77135051D01*
X178229789Y-77119086D01*
X178379786Y-77010109D01*
X178379788Y-77010106D01*
X178379792Y-77010104D01*
X178530104Y-76859792D01*
X178530106Y-76859788D01*
X178530109Y-76859786D01*
X178655048Y-76687820D01*
X178655047Y-76687820D01*
X178655051Y-76687816D01*
X178751557Y-76498412D01*
X178817246Y-76296243D01*
X178850500Y-76086287D01*
X178850500Y-75873713D01*
X178817246Y-75663757D01*
X178751557Y-75461588D01*
X178655051Y-75272184D01*
X178655049Y-75272181D01*
X178655048Y-75272179D01*
X178530109Y-75100213D01*
X178379786Y-74949890D01*
X178207820Y-74824951D01*
X178207115Y-74824591D01*
X178199054Y-74820485D01*
X178148259Y-74772512D01*
X178131463Y-74704692D01*
X178153999Y-74638556D01*
X178199054Y-74599515D01*
X178207816Y-74595051D01*
X178286287Y-74538039D01*
X178379786Y-74470109D01*
X178379788Y-74470106D01*
X178379792Y-74470104D01*
X178530104Y-74319792D01*
X178530106Y-74319788D01*
X178530109Y-74319786D01*
X178655048Y-74147820D01*
X178655047Y-74147820D01*
X178655051Y-74147816D01*
X178751557Y-73958412D01*
X178817246Y-73756243D01*
X178850500Y-73546287D01*
X178850500Y-73333713D01*
X178817246Y-73123757D01*
X178751557Y-72921588D01*
X178655051Y-72732184D01*
X178655049Y-72732181D01*
X178655048Y-72732179D01*
X178530109Y-72560213D01*
X178416181Y-72446285D01*
X178382696Y-72384962D01*
X178387680Y-72315270D01*
X178429552Y-72259337D01*
X178460529Y-72242422D01*
X178592086Y-72193354D01*
X178592093Y-72193350D01*
X178707187Y-72107190D01*
X178707190Y-72107187D01*
X178793350Y-71992093D01*
X178793354Y-71992086D01*
X178843596Y-71857379D01*
X178843598Y-71857372D01*
X178849999Y-71797844D01*
X178850000Y-71797827D01*
X178850000Y-71150000D01*
X177933012Y-71150000D01*
X177965925Y-71092993D01*
X178000000Y-70965826D01*
X178000000Y-70834174D01*
X177965925Y-70707007D01*
X177933012Y-70650000D01*
X178850000Y-70650000D01*
X178850000Y-70002172D01*
X178849999Y-70002155D01*
X178843598Y-69942627D01*
X178843596Y-69942620D01*
X178793354Y-69807913D01*
X178793350Y-69807906D01*
X178707190Y-69692812D01*
X178707187Y-69692809D01*
X178592093Y-69606649D01*
X178592086Y-69606645D01*
X178457379Y-69556403D01*
X178457372Y-69556401D01*
X178397844Y-69550000D01*
X177750000Y-69550000D01*
X177750000Y-70466988D01*
X177692993Y-70434075D01*
X177565826Y-70400000D01*
X177434174Y-70400000D01*
X177307007Y-70434075D01*
X177250000Y-70466988D01*
X177250000Y-69550000D01*
X176602155Y-69550000D01*
X176542627Y-69556401D01*
X176542620Y-69556403D01*
X176407913Y-69606645D01*
X176407906Y-69606649D01*
X176292812Y-69692809D01*
X176292809Y-69692812D01*
X176206649Y-69807906D01*
X176206645Y-69807913D01*
X176156403Y-69942620D01*
X176156401Y-69942627D01*
X176150000Y-70002155D01*
X176150000Y-70650000D01*
X177066988Y-70650000D01*
X177034075Y-70707007D01*
X177000000Y-70834174D01*
X177000000Y-70965826D01*
X177034075Y-71092993D01*
X177066988Y-71150000D01*
X176150000Y-71150000D01*
X176150000Y-71797844D01*
X176156401Y-71857372D01*
X176156403Y-71857379D01*
X176206645Y-71992086D01*
X176206649Y-71992093D01*
X176292809Y-72107187D01*
X176292812Y-72107190D01*
X176407906Y-72193350D01*
X176407913Y-72193354D01*
X176539470Y-72242422D01*
X176595404Y-72284293D01*
X176619821Y-72349758D01*
X176604969Y-72418031D01*
X176583819Y-72446285D01*
X176469889Y-72560215D01*
X176344951Y-72732179D01*
X176248444Y-72921585D01*
X176182753Y-73123760D01*
X176149500Y-73333713D01*
X161456321Y-73333713D01*
X161462098Y-73304672D01*
X161462102Y-73304651D01*
X161463086Y-73299703D01*
X161463086Y-73142017D01*
X161463085Y-73142015D01*
X161440077Y-73026347D01*
X161432323Y-72987365D01*
X161432321Y-72987360D01*
X161371983Y-72841689D01*
X161371976Y-72841676D01*
X161284375Y-72710573D01*
X161284372Y-72710569D01*
X161172878Y-72599075D01*
X161172874Y-72599072D01*
X161041771Y-72511471D01*
X161041758Y-72511464D01*
X160896087Y-72451126D01*
X160896075Y-72451123D01*
X160741431Y-72420362D01*
X160741428Y-72420362D01*
X160583744Y-72420362D01*
X160583741Y-72420362D01*
X160429096Y-72451123D01*
X160429084Y-72451126D01*
X160283413Y-72511464D01*
X160283400Y-72511471D01*
X160152297Y-72599072D01*
X160152293Y-72599075D01*
X160040799Y-72710569D01*
X160040796Y-72710573D01*
X159953195Y-72841676D01*
X159953188Y-72841689D01*
X159892850Y-72987360D01*
X159892847Y-72987372D01*
X159862086Y-73142015D01*
X157142026Y-73142015D01*
X157119017Y-73026347D01*
X157119016Y-73026340D01*
X157075627Y-72921588D01*
X157058676Y-72880664D01*
X157058669Y-72880651D01*
X156971068Y-72749548D01*
X156971065Y-72749544D01*
X156859571Y-72638050D01*
X156859567Y-72638047D01*
X156728464Y-72550446D01*
X156728451Y-72550439D01*
X156582780Y-72490101D01*
X156582768Y-72490098D01*
X156428124Y-72459337D01*
X156428121Y-72459337D01*
X156270437Y-72459337D01*
X156270434Y-72459337D01*
X156115789Y-72490098D01*
X156115777Y-72490101D01*
X155970106Y-72550439D01*
X155970093Y-72550446D01*
X155838990Y-72638047D01*
X155838986Y-72638050D01*
X155727492Y-72749544D01*
X155727489Y-72749548D01*
X155639888Y-72880651D01*
X155639881Y-72880664D01*
X155579543Y-73026335D01*
X155579540Y-73026347D01*
X155548779Y-73180990D01*
X145984317Y-73180990D01*
X145959397Y-73120827D01*
X145959390Y-73120814D01*
X145871789Y-72989711D01*
X145871786Y-72989707D01*
X145760292Y-72878213D01*
X145760288Y-72878210D01*
X145629185Y-72790609D01*
X145629172Y-72790602D01*
X145483501Y-72730264D01*
X145483489Y-72730261D01*
X145328845Y-72699500D01*
X145328842Y-72699500D01*
X145171158Y-72699500D01*
X145171155Y-72699500D01*
X145016510Y-72730261D01*
X145016498Y-72730264D01*
X144870827Y-72790602D01*
X144870814Y-72790609D01*
X144739711Y-72878210D01*
X144739707Y-72878213D01*
X144628213Y-72989707D01*
X144628210Y-72989711D01*
X144540609Y-73120814D01*
X144540602Y-73120827D01*
X144480264Y-73266498D01*
X144480261Y-73266510D01*
X144449500Y-73421153D01*
X135111549Y-73421153D01*
X135139999Y-73335297D01*
X135150500Y-73232508D01*
X135150500Y-71921153D01*
X136699500Y-71921153D01*
X136699500Y-72078846D01*
X136730261Y-72233489D01*
X136730264Y-72233501D01*
X136790602Y-72379172D01*
X136790609Y-72379185D01*
X136878210Y-72510288D01*
X136878213Y-72510292D01*
X136989707Y-72621786D01*
X136989711Y-72621789D01*
X137120814Y-72709390D01*
X137120827Y-72709397D01*
X137175841Y-72732184D01*
X137266503Y-72769737D01*
X137421153Y-72800499D01*
X137421156Y-72800500D01*
X137421158Y-72800500D01*
X137578844Y-72800500D01*
X137578845Y-72800499D01*
X137733497Y-72769737D01*
X137879179Y-72709394D01*
X138010289Y-72621789D01*
X138121789Y-72510289D01*
X138209394Y-72379179D01*
X138269737Y-72233497D01*
X138300500Y-72078842D01*
X138300500Y-71921158D01*
X138300500Y-71921155D01*
X138300499Y-71921153D01*
X138275971Y-71797844D01*
X138269737Y-71766503D01*
X138254621Y-71730010D01*
X138209397Y-71620827D01*
X138209390Y-71620814D01*
X138121790Y-71489712D01*
X138121784Y-71489705D01*
X138053232Y-71421153D01*
X148199500Y-71421153D01*
X148199500Y-71578846D01*
X148230261Y-71733489D01*
X148230264Y-71733501D01*
X148290602Y-71879172D01*
X148290609Y-71879185D01*
X148378210Y-72010288D01*
X148378213Y-72010292D01*
X148489707Y-72121786D01*
X148489711Y-72121789D01*
X148620814Y-72209390D01*
X148620827Y-72209397D01*
X148700558Y-72242422D01*
X148766503Y-72269737D01*
X148921153Y-72300499D01*
X148921156Y-72300500D01*
X148921158Y-72300500D01*
X149078844Y-72300500D01*
X149078845Y-72300499D01*
X149233497Y-72269737D01*
X149379179Y-72209394D01*
X149510289Y-72121789D01*
X149621789Y-72010289D01*
X149709394Y-71879179D01*
X149769737Y-71733497D01*
X149800500Y-71578842D01*
X149800500Y-71421158D01*
X149800500Y-71421155D01*
X149800499Y-71421153D01*
X149796291Y-71400000D01*
X149769737Y-71266503D01*
X149755756Y-71232750D01*
X149709397Y-71120827D01*
X149709390Y-71120814D01*
X149621791Y-70989714D01*
X149621783Y-70989704D01*
X149552481Y-70920402D01*
X156484195Y-70920402D01*
X156484195Y-71078095D01*
X156514956Y-71232738D01*
X156514959Y-71232750D01*
X156575297Y-71378421D01*
X156575304Y-71378434D01*
X156662905Y-71509537D01*
X156662908Y-71509541D01*
X156774402Y-71621035D01*
X156774406Y-71621038D01*
X156905509Y-71708639D01*
X156905522Y-71708646D01*
X157031367Y-71760772D01*
X157051198Y-71768986D01*
X157196191Y-71797827D01*
X157205848Y-71799748D01*
X157205851Y-71799749D01*
X157205853Y-71799749D01*
X157363539Y-71799749D01*
X157363540Y-71799748D01*
X157518192Y-71768986D01*
X157663874Y-71708643D01*
X157794984Y-71621038D01*
X157804288Y-71611734D01*
X157865609Y-71578247D01*
X157935301Y-71583229D01*
X157979656Y-71611734D01*
X157989708Y-71621787D01*
X157989711Y-71621789D01*
X158120814Y-71709390D01*
X158120827Y-71709397D01*
X158258683Y-71766498D01*
X158266503Y-71769737D01*
X158421153Y-71800499D01*
X158421156Y-71800500D01*
X158421158Y-71800500D01*
X158578844Y-71800500D01*
X158578845Y-71800499D01*
X158733497Y-71769737D01*
X158879179Y-71709394D01*
X159010289Y-71621789D01*
X159084743Y-71547334D01*
X159146063Y-71513850D01*
X159215755Y-71518834D01*
X159260104Y-71547335D01*
X159294828Y-71582059D01*
X159294832Y-71582062D01*
X159425935Y-71669663D01*
X159425948Y-71669670D01*
X159521852Y-71709394D01*
X159571624Y-71730010D01*
X159726274Y-71760772D01*
X159726277Y-71760773D01*
X159726279Y-71760773D01*
X159883965Y-71760773D01*
X159883966Y-71760772D01*
X160038618Y-71730010D01*
X160184300Y-71669667D01*
X160315410Y-71582062D01*
X160426910Y-71470562D01*
X160514515Y-71339452D01*
X160514518Y-71339445D01*
X160574857Y-71193773D01*
X160574858Y-71193770D01*
X160605621Y-71039115D01*
X160605621Y-70881431D01*
X160605621Y-70881428D01*
X160605620Y-70881426D01*
X160589523Y-70800500D01*
X160574858Y-70726776D01*
X160574856Y-70726771D01*
X160514518Y-70581100D01*
X160514511Y-70581087D01*
X160426910Y-70449984D01*
X160426907Y-70449980D01*
X160315413Y-70338486D01*
X160315409Y-70338483D01*
X160184306Y-70250882D01*
X160184293Y-70250875D01*
X160038622Y-70190537D01*
X160038610Y-70190534D01*
X159883966Y-70159773D01*
X159883963Y-70159773D01*
X159726279Y-70159773D01*
X159726276Y-70159773D01*
X159571631Y-70190534D01*
X159571619Y-70190537D01*
X159425948Y-70250875D01*
X159425935Y-70250882D01*
X159294832Y-70338483D01*
X159294828Y-70338486D01*
X159220378Y-70412937D01*
X159159055Y-70446422D01*
X159089363Y-70441438D01*
X159045016Y-70412937D01*
X159010292Y-70378213D01*
X159010288Y-70378210D01*
X158879185Y-70290609D01*
X158879172Y-70290602D01*
X158733501Y-70230264D01*
X158733489Y-70230261D01*
X158578845Y-70199500D01*
X158578842Y-70199500D01*
X158421158Y-70199500D01*
X158421155Y-70199500D01*
X158266510Y-70230261D01*
X158266498Y-70230264D01*
X158120827Y-70290602D01*
X158120814Y-70290609D01*
X157989711Y-70378210D01*
X157989705Y-70378215D01*
X157980400Y-70387520D01*
X157919076Y-70421003D01*
X157849384Y-70416016D01*
X157805038Y-70387514D01*
X157794986Y-70377461D01*
X157794983Y-70377459D01*
X157663880Y-70289858D01*
X157663867Y-70289851D01*
X157518196Y-70229513D01*
X157518184Y-70229510D01*
X157363540Y-70198749D01*
X157363537Y-70198749D01*
X157205853Y-70198749D01*
X157205850Y-70198749D01*
X157051205Y-70229510D01*
X157051193Y-70229513D01*
X156905522Y-70289851D01*
X156905509Y-70289858D01*
X156774406Y-70377459D01*
X156774402Y-70377462D01*
X156662908Y-70488956D01*
X156662905Y-70488960D01*
X156575304Y-70620063D01*
X156575297Y-70620076D01*
X156514959Y-70765747D01*
X156514956Y-70765759D01*
X156484195Y-70920402D01*
X149552481Y-70920402D01*
X149510292Y-70878213D01*
X149510288Y-70878210D01*
X149379185Y-70790609D01*
X149379172Y-70790602D01*
X149233501Y-70730264D01*
X149233489Y-70730261D01*
X149078845Y-70699500D01*
X149078842Y-70699500D01*
X148921158Y-70699500D01*
X148921155Y-70699500D01*
X148766510Y-70730261D01*
X148766498Y-70730264D01*
X148620827Y-70790602D01*
X148620814Y-70790609D01*
X148489711Y-70878210D01*
X148489707Y-70878213D01*
X148378213Y-70989707D01*
X148378210Y-70989711D01*
X148290609Y-71120814D01*
X148290602Y-71120827D01*
X148230264Y-71266498D01*
X148230261Y-71266510D01*
X148199500Y-71421153D01*
X138053232Y-71421153D01*
X138010292Y-71378213D01*
X138010288Y-71378210D01*
X137879185Y-71290609D01*
X137879172Y-71290602D01*
X137733501Y-71230264D01*
X137733489Y-71230261D01*
X137578845Y-71199500D01*
X137578842Y-71199500D01*
X137421158Y-71199500D01*
X137421155Y-71199500D01*
X137266510Y-71230261D01*
X137266498Y-71230264D01*
X137120827Y-71290602D01*
X137120814Y-71290609D01*
X136989711Y-71378210D01*
X136989707Y-71378213D01*
X136878213Y-71489707D01*
X136878210Y-71489711D01*
X136790609Y-71620814D01*
X136790602Y-71620827D01*
X136730264Y-71766498D01*
X136730261Y-71766510D01*
X136699500Y-71921153D01*
X135150500Y-71921153D01*
X135150500Y-70832492D01*
X135139999Y-70729703D01*
X135084814Y-70563166D01*
X135052198Y-70510288D01*
X134992713Y-70413848D01*
X134992710Y-70413844D01*
X134868655Y-70289789D01*
X134868651Y-70289786D01*
X134719337Y-70197687D01*
X134719335Y-70197686D01*
X134604920Y-70159773D01*
X134552797Y-70142501D01*
X134552795Y-70142500D01*
X134450015Y-70132000D01*
X134450008Y-70132000D01*
X132049992Y-70132000D01*
X132049984Y-70132000D01*
X131947204Y-70142500D01*
X131947203Y-70142501D01*
X131780664Y-70197686D01*
X131780662Y-70197687D01*
X131631348Y-70289786D01*
X131631344Y-70289789D01*
X131507289Y-70413844D01*
X131507286Y-70413848D01*
X131415187Y-70563162D01*
X131415186Y-70563164D01*
X131360001Y-70729703D01*
X131360000Y-70729704D01*
X131349500Y-70832484D01*
X129724724Y-70832484D01*
X129681939Y-70776725D01*
X129681933Y-70776718D01*
X129505781Y-70600566D01*
X129505774Y-70600560D01*
X129308126Y-70448900D01*
X129092376Y-70324337D01*
X129092361Y-70324330D01*
X128862207Y-70228998D01*
X128621561Y-70164517D01*
X128374575Y-70132001D01*
X128374570Y-70132000D01*
X128374565Y-70132000D01*
X128125435Y-70132000D01*
X128125429Y-70132000D01*
X128125424Y-70132001D01*
X127878438Y-70164517D01*
X127637792Y-70228998D01*
X127407638Y-70324330D01*
X127407623Y-70324337D01*
X127191873Y-70448900D01*
X126994225Y-70600560D01*
X126994218Y-70600566D01*
X126818066Y-70776718D01*
X126818060Y-70776725D01*
X126666400Y-70974373D01*
X126541837Y-71190123D01*
X126541830Y-71190138D01*
X126446498Y-71420292D01*
X126382017Y-71660938D01*
X126349501Y-71907924D01*
X126349500Y-71907941D01*
X122250500Y-71907941D01*
X122250500Y-71042706D01*
X122250618Y-71037298D01*
X122251170Y-71024636D01*
X122268337Y-70631439D01*
X122269276Y-70620708D01*
X122321951Y-70220609D01*
X122323823Y-70209993D01*
X122387856Y-69921153D01*
X169449500Y-69921153D01*
X169449500Y-70078846D01*
X169480261Y-70233489D01*
X169480264Y-70233501D01*
X169540602Y-70379172D01*
X169540609Y-70379185D01*
X169628210Y-70510288D01*
X169628213Y-70510292D01*
X169739707Y-70621786D01*
X169739711Y-70621789D01*
X169870814Y-70709390D01*
X169870827Y-70709397D01*
X170006870Y-70765747D01*
X170016503Y-70769737D01*
X170171153Y-70800499D01*
X170171156Y-70800500D01*
X170171158Y-70800500D01*
X170328844Y-70800500D01*
X170328845Y-70800499D01*
X170483497Y-70769737D01*
X170629179Y-70709394D01*
X170760289Y-70621789D01*
X170871789Y-70510289D01*
X170959394Y-70379179D01*
X170960107Y-70377459D01*
X170982110Y-70324337D01*
X171019737Y-70233497D01*
X171050500Y-70078842D01*
X171050500Y-69921158D01*
X171050500Y-69921155D01*
X171050499Y-69921153D01*
X171043950Y-69888228D01*
X171019737Y-69766503D01*
X171019735Y-69766498D01*
X170974638Y-69657622D01*
X170967169Y-69588153D01*
X170998445Y-69525674D01*
X171041742Y-69495611D01*
X171129179Y-69459394D01*
X171260289Y-69371789D01*
X171371789Y-69260289D01*
X171459394Y-69129179D01*
X171519737Y-68983497D01*
X171550500Y-68828842D01*
X171550500Y-68671158D01*
X171550500Y-68671155D01*
X171550499Y-68671153D01*
X171519738Y-68516510D01*
X171519737Y-68516503D01*
X171480242Y-68421153D01*
X171459397Y-68370827D01*
X171459390Y-68370814D01*
X171371789Y-68239711D01*
X171371786Y-68239707D01*
X171260292Y-68128213D01*
X171260284Y-68128207D01*
X171213168Y-68096725D01*
X171209485Y-68092318D01*
X171204181Y-68090117D01*
X171187329Y-68065808D01*
X171168362Y-68043113D01*
X171167646Y-68037414D01*
X171164375Y-68032696D01*
X171163340Y-68003133D01*
X171159655Y-67973788D01*
X171162080Y-67967111D01*
X171161932Y-67962869D01*
X171171002Y-67942549D01*
X171175463Y-67930271D01*
X171177133Y-67927460D01*
X171181347Y-67921153D01*
X172449500Y-67921153D01*
X172449500Y-68078846D01*
X172480261Y-68233489D01*
X172480264Y-68233501D01*
X172540602Y-68379172D01*
X172540609Y-68379185D01*
X172628210Y-68510288D01*
X172628213Y-68510292D01*
X172739707Y-68621786D01*
X172739711Y-68621789D01*
X172870814Y-68709390D01*
X172870827Y-68709397D01*
X173016498Y-68769735D01*
X173016503Y-68769737D01*
X173171153Y-68800499D01*
X173171156Y-68800500D01*
X173171158Y-68800500D01*
X173328844Y-68800500D01*
X173328845Y-68800499D01*
X173483497Y-68769737D01*
X173629179Y-68709394D01*
X173760289Y-68621789D01*
X173871789Y-68510289D01*
X173959394Y-68379179D01*
X173962854Y-68370827D01*
X174002045Y-68276210D01*
X174019737Y-68233497D01*
X174050500Y-68078842D01*
X174050500Y-67921158D01*
X174050500Y-67921155D01*
X174050499Y-67921153D01*
X174024531Y-67790606D01*
X174019737Y-67766503D01*
X173980242Y-67671153D01*
X174449500Y-67671153D01*
X174449500Y-67828846D01*
X174480261Y-67983489D01*
X174480264Y-67983501D01*
X174540602Y-68129172D01*
X174540609Y-68129185D01*
X174628210Y-68260288D01*
X174628213Y-68260292D01*
X174739707Y-68371786D01*
X174739711Y-68371789D01*
X174870814Y-68459390D01*
X174870827Y-68459397D01*
X175008683Y-68516498D01*
X175016503Y-68519737D01*
X175171153Y-68550499D01*
X175171156Y-68550500D01*
X175171158Y-68550500D01*
X175328844Y-68550500D01*
X175328845Y-68550499D01*
X175483497Y-68519737D01*
X175629179Y-68459394D01*
X175760289Y-68371789D01*
X175871789Y-68260289D01*
X175959394Y-68129179D01*
X175962854Y-68120827D01*
X176008640Y-68010288D01*
X176019737Y-67983497D01*
X176050500Y-67828842D01*
X176050500Y-67671158D01*
X176050500Y-67671155D01*
X176050499Y-67671153D01*
X176019738Y-67516510D01*
X176019737Y-67516503D01*
X176019735Y-67516498D01*
X175959397Y-67370827D01*
X175959390Y-67370814D01*
X175871789Y-67239711D01*
X175871786Y-67239707D01*
X175760292Y-67128213D01*
X175760288Y-67128210D01*
X175629185Y-67040609D01*
X175629172Y-67040602D01*
X175483501Y-66980264D01*
X175483489Y-66980261D01*
X175328845Y-66949500D01*
X175328842Y-66949500D01*
X175171158Y-66949500D01*
X175171155Y-66949500D01*
X175016510Y-66980261D01*
X175016498Y-66980264D01*
X174870827Y-67040602D01*
X174870814Y-67040609D01*
X174739711Y-67128210D01*
X174739707Y-67128213D01*
X174628213Y-67239707D01*
X174628210Y-67239711D01*
X174540609Y-67370814D01*
X174540602Y-67370827D01*
X174480264Y-67516498D01*
X174480261Y-67516510D01*
X174449500Y-67671153D01*
X173980242Y-67671153D01*
X173968873Y-67643705D01*
X173959397Y-67620827D01*
X173959390Y-67620814D01*
X173871789Y-67489711D01*
X173871786Y-67489707D01*
X173760292Y-67378213D01*
X173760288Y-67378210D01*
X173629185Y-67290609D01*
X173629172Y-67290602D01*
X173483501Y-67230264D01*
X173483489Y-67230261D01*
X173328845Y-67199500D01*
X173328842Y-67199500D01*
X173171158Y-67199500D01*
X173171155Y-67199500D01*
X173016510Y-67230261D01*
X173016498Y-67230264D01*
X172870827Y-67290602D01*
X172870814Y-67290609D01*
X172739711Y-67378210D01*
X172739707Y-67378213D01*
X172628213Y-67489707D01*
X172628210Y-67489711D01*
X172540609Y-67620814D01*
X172540602Y-67620827D01*
X172480264Y-67766498D01*
X172480261Y-67766510D01*
X172449500Y-67921153D01*
X171181347Y-67921153D01*
X171209394Y-67879179D01*
X171230243Y-67828846D01*
X171256063Y-67766510D01*
X171269737Y-67733497D01*
X171300500Y-67578842D01*
X171300500Y-67421158D01*
X171300500Y-67421155D01*
X171300499Y-67421153D01*
X171274531Y-67290606D01*
X171269737Y-67266503D01*
X171269735Y-67266498D01*
X171209397Y-67120827D01*
X171209390Y-67120814D01*
X171121789Y-66989711D01*
X171121786Y-66989707D01*
X171010292Y-66878213D01*
X171010288Y-66878210D01*
X170879185Y-66790609D01*
X170879172Y-66790602D01*
X170733501Y-66730264D01*
X170733489Y-66730261D01*
X170578845Y-66699500D01*
X170578842Y-66699500D01*
X170421158Y-66699500D01*
X170421155Y-66699500D01*
X170266510Y-66730261D01*
X170266498Y-66730264D01*
X170120827Y-66790602D01*
X170120814Y-66790609D01*
X169989711Y-66878210D01*
X169989707Y-66878213D01*
X169878213Y-66989707D01*
X169878210Y-66989711D01*
X169790609Y-67120814D01*
X169790602Y-67120827D01*
X169730264Y-67266498D01*
X169730261Y-67266510D01*
X169699500Y-67421153D01*
X169699500Y-67578846D01*
X169730261Y-67733489D01*
X169730264Y-67733501D01*
X169790602Y-67879172D01*
X169790609Y-67879185D01*
X169878210Y-68010288D01*
X169878213Y-68010292D01*
X169989708Y-68121787D01*
X169989711Y-68121789D01*
X170036832Y-68153274D01*
X170081636Y-68206885D01*
X170090344Y-68276210D01*
X170071044Y-68325266D01*
X170040608Y-68370816D01*
X170040602Y-68370827D01*
X169980264Y-68516498D01*
X169980261Y-68516510D01*
X169949500Y-68671153D01*
X169949500Y-68828846D01*
X169980261Y-68983489D01*
X169980264Y-68983501D01*
X170025362Y-69092377D01*
X170032831Y-69161846D01*
X170001556Y-69224325D01*
X169958254Y-69254390D01*
X169870823Y-69290604D01*
X169870814Y-69290609D01*
X169739711Y-69378210D01*
X169739707Y-69378213D01*
X169628213Y-69489707D01*
X169628210Y-69489711D01*
X169540609Y-69620814D01*
X169540602Y-69620827D01*
X169480264Y-69766498D01*
X169480261Y-69766510D01*
X169449500Y-69921153D01*
X122387856Y-69921153D01*
X122411168Y-69816000D01*
X122413955Y-69805600D01*
X122535309Y-69420713D01*
X122538993Y-69410592D01*
X122693426Y-69037758D01*
X122697984Y-69027984D01*
X122884315Y-68670045D01*
X122889710Y-68660700D01*
X123042319Y-68421153D01*
X138199500Y-68421153D01*
X138199500Y-68578846D01*
X138230261Y-68733489D01*
X138230264Y-68733501D01*
X138290602Y-68879172D01*
X138290609Y-68879185D01*
X138378210Y-69010288D01*
X138378213Y-69010292D01*
X138489707Y-69121786D01*
X138489711Y-69121789D01*
X138620814Y-69209390D01*
X138620827Y-69209397D01*
X138766498Y-69269735D01*
X138766503Y-69269737D01*
X138921153Y-69300499D01*
X138921156Y-69300500D01*
X138921158Y-69300500D01*
X139078844Y-69300500D01*
X139078845Y-69300499D01*
X139233497Y-69269737D01*
X139379179Y-69209394D01*
X139510289Y-69121789D01*
X139621789Y-69010289D01*
X139709394Y-68879179D01*
X139769737Y-68733497D01*
X139800500Y-68578842D01*
X139800500Y-68421158D01*
X139800500Y-68421155D01*
X139800499Y-68421153D01*
X139790486Y-68370814D01*
X139769737Y-68266503D01*
X139767163Y-68260288D01*
X139709397Y-68120827D01*
X139709390Y-68120814D01*
X139621789Y-67989711D01*
X139621786Y-67989707D01*
X139510292Y-67878213D01*
X139510288Y-67878210D01*
X139379185Y-67790609D01*
X139379172Y-67790602D01*
X139233501Y-67730264D01*
X139233489Y-67730261D01*
X139078845Y-67699500D01*
X139078842Y-67699500D01*
X138921158Y-67699500D01*
X138921155Y-67699500D01*
X138766510Y-67730261D01*
X138766498Y-67730264D01*
X138620827Y-67790602D01*
X138620814Y-67790609D01*
X138489711Y-67878210D01*
X138489707Y-67878213D01*
X138378213Y-67989707D01*
X138378210Y-67989711D01*
X138290609Y-68120814D01*
X138290602Y-68120827D01*
X138230264Y-68266498D01*
X138230261Y-68266510D01*
X138199500Y-68421153D01*
X123042319Y-68421153D01*
X123106531Y-68320361D01*
X123112727Y-68311511D01*
X123358385Y-67991363D01*
X123365323Y-67983094D01*
X123637949Y-67685575D01*
X123645575Y-67677949D01*
X123925819Y-67421153D01*
X148699500Y-67421153D01*
X148699500Y-67578846D01*
X148730261Y-67733489D01*
X148730264Y-67733501D01*
X148790602Y-67879172D01*
X148790609Y-67879185D01*
X148878210Y-68010288D01*
X148878213Y-68010292D01*
X148989707Y-68121786D01*
X148989711Y-68121789D01*
X149120814Y-68209390D01*
X149120827Y-68209397D01*
X149258683Y-68266498D01*
X149266503Y-68269737D01*
X149421153Y-68300499D01*
X149421156Y-68300500D01*
X149421158Y-68300500D01*
X149578844Y-68300500D01*
X149578845Y-68300499D01*
X149733497Y-68269737D01*
X149879179Y-68209394D01*
X150010289Y-68121789D01*
X150121789Y-68010289D01*
X150209394Y-67879179D01*
X150269737Y-67733497D01*
X150300500Y-67578842D01*
X150300500Y-67421158D01*
X150300500Y-67421155D01*
X150300499Y-67421153D01*
X150274531Y-67290606D01*
X150269737Y-67266503D01*
X150269735Y-67266498D01*
X150209397Y-67120827D01*
X150209390Y-67120814D01*
X150121789Y-66989711D01*
X150121786Y-66989707D01*
X150010292Y-66878213D01*
X150010288Y-66878210D01*
X149879185Y-66790609D01*
X149879172Y-66790602D01*
X149733501Y-66730264D01*
X149733489Y-66730261D01*
X149578845Y-66699500D01*
X149578842Y-66699500D01*
X149421158Y-66699500D01*
X149421155Y-66699500D01*
X149266510Y-66730261D01*
X149266498Y-66730264D01*
X149120827Y-66790602D01*
X149120814Y-66790609D01*
X148989711Y-66878210D01*
X148989707Y-66878213D01*
X148878213Y-66989707D01*
X148878210Y-66989711D01*
X148790609Y-67120814D01*
X148790602Y-67120827D01*
X148730264Y-67266498D01*
X148730261Y-67266510D01*
X148699500Y-67421153D01*
X123925819Y-67421153D01*
X123943094Y-67405323D01*
X123951363Y-67398385D01*
X124271511Y-67152727D01*
X124280350Y-67146537D01*
X124620700Y-66929710D01*
X124630045Y-66924315D01*
X124987984Y-66737984D01*
X124997758Y-66733426D01*
X125370592Y-66578993D01*
X125380713Y-66575309D01*
X125765600Y-66453955D01*
X125776000Y-66451168D01*
X126169993Y-66363823D01*
X126180609Y-66361951D01*
X126580708Y-66309276D01*
X126591439Y-66308337D01*
X126984636Y-66291170D01*
X126997298Y-66290618D01*
X127002706Y-66290500D01*
X149549826Y-66290500D01*
X149549828Y-66290500D01*
X149641897Y-66252364D01*
X149712364Y-66181897D01*
X149739433Y-66116547D01*
X149783275Y-66062143D01*
X149849569Y-66040079D01*
X149853994Y-66040000D01*
X170146006Y-66040000D01*
X170213045Y-66059685D01*
G37*
%TD.AperFunction*%
%TD*%
M02*
